<svg version="1.1" xmlns="http://www.w3.org/2000/svg" xmlns:xlink="http://www.w3.org/1999/xlink" width="1725.93798828125" height="1141"><defs/><g><g transform="translate(-54,-14) scale(1,1)"><path fill="#C0C0C0" stroke="none" d="M 367 56.5 C 367 51.2532944 371.2532944 47 376.5 47 C 381.7467056 47 386 51.2532944 386 56.5 C 386 61.7467056 381.7467056 66 376.5 66 C 371.2532944 66 367 61.7467056 367 56.5 Z" opacity="0.2"/></g><g transform="translate(-54,-14) scale(1,1)"><path fill="#000000" stroke="none" d="M 360 49.5 C 360 44.2532944 364.2532944 40 369.5 40 C 374.7467056 40 379 44.2532944 379 49.5 C 379 54.7467056 374.7467056 59 369.5 59 C 364.2532944 59 360 54.7467056 360 49.5 Z"/></g><g transform="translate(-54,-14) scale(1,1)"><path fill="#C0C0C0" stroke="none" d="M 1359 1139.5 C 1359 1132.59644 1364.59644 1127 1371.5 1127 C 1378.40356 1127 1384 1132.59644 1384 1139.5 C 1384 1146.40356 1378.40356 1152 1371.5 1152 C 1364.59644 1152 1359 1146.40356 1359 1139.5 Z" opacity="0.2"/></g><g transform="translate(-54,-14) scale(1,1)"><path fill="none" stroke="#000000" d="M 1352 1132.5 C 1352 1125.59644 1357.59644 1120 1364.5 1120 C 1371.40356 1120 1377 1125.59644 1377 1132.5 C 1377 1139.40356 1371.40356 1145 1364.5 1145 C 1357.59644 1145 1352 1139.40356 1352 1132.5 Z" stroke-miterlimit="10"/></g><g transform="translate(-54,-14) scale(1,1)"><path fill="#000000" stroke="none" d="M 1357 1132.5 C 1357 1128.357864 1360.357864 1125 1364.5 1125 C 1368.642136 1125 1372 1128.357864 1372 1132.5 C 1372 1136.642136 1368.642136 1140 1364.5 1140 C 1360.357864 1140 1357 1136.642136 1357 1132.5 Z"/></g><g transform="translate(-54,-14) scale(1,1)"><path fill="#C0C0C0" stroke="none" d="M 129 255 L 208.8857421875 255 Q 218.8857421875 255 218.8857421875 265 L 218.8857421875 285 Q 218.8857421875 295 208.8857421875 295 L 129 295 Q 119 295 119 285 L 119 265 Q 119 255 129 255 Z" opacity="0.2"/></g><g transform="translate(-54,-14) scale(1,1)"><path fill="#ffffff" stroke="none" d="M 122 248 L 201.8857421875 248 Q 211.8857421875 248 211.8857421875 258 L 211.8857421875 278 Q 211.8857421875 288 201.8857421875 288 L 122 288 Q 112 288 112 278 L 112 258 Q 112 248 122 248 Z"/></g><g transform="translate(-54,-14) scale(1,1)"><path fill="none" stroke="#000000" d="M 122 248 L 201.8857421875 248 Q 211.8857421875 248 211.8857421875 258 L 211.8857421875 278 Q 211.8857421875 288 201.8857421875 288 L 122 288 Q 112 288 112 278 L 112 258 Q 112 248 122 248 Z" stroke-miterlimit="10"/></g><g transform="translate(-54,-14) scale(1,1)"><g><path fill="none" stroke="none"/><text fill="#000000" stroke="none" font-family="Arial" font-size="13px" font-style="normal" font-weight="bold" text-decoration="none" x="120.37841796875" y="267.5">Выбор блюда</text></g></g><g transform="translate(-54,-14) scale(1,1)"><path fill="none" stroke="#000000" d="M 359 96 L 226 99" stroke-miterlimit="10"/></g><g transform="translate(-54,-14) scale(1,1)"><path fill="none" stroke="#000000" d="M 236.06516312383604 94.56237774359161 L 226 99 L 236.25501788846395 102.97927230876252" stroke-miterlimit="10"/></g><g transform="translate(-54,-14) scale(1,1)"><path fill="#C0C0C0" stroke="none" d="M 297 335 L 415.94287109375 335 Q 425.94287109375 335 425.94287109375 345 L 425.94287109375 365 Q 425.94287109375 375 415.94287109375 375 L 297 375 Q 287 375 287 365 L 287 345 Q 287 335 297 335 Z" opacity="0.2"/></g><g transform="translate(-54,-14) scale(1,1)"><path fill="#ffffff" stroke="none" d="M 290 328 L 408.94287109375 328 Q 418.94287109375 328 418.94287109375 338 L 418.94287109375 358 Q 418.94287109375 368 408.94287109375 368 L 290 368 Q 280 368 280 358 L 280 338 Q 280 328 290 328 Z"/></g><g transform="translate(-54,-14) scale(1,1)"><path fill="none" stroke="#000000" d="M 290 328 L 408.94287109375 328 Q 418.94287109375 328 418.94287109375 338 L 418.94287109375 358 Q 418.94287109375 368 408.94287109375 368 L 290 368 Q 280 368 280 358 L 280 338 Q 280 328 290 328 Z" stroke-miterlimit="10"/></g><g transform="translate(-54,-14) scale(1,1)"><g><path fill="none" stroke="none"/><text fill="#000000" stroke="none" font-family="Arial" font-size="13px" font-style="normal" font-weight="bold" text-decoration="none" x="290.07958984375" y="347.5">Добавить в корзину</text></g></g><g transform="translate(-54,-14) scale(1,1)"><path fill="#C0C0C0" stroke="none" d="M 1327 191.5 L 1359.5 159 L 1391 191.5 L 1359.5 223 L 1327 191.5" opacity="0.2"/></g><g transform="translate(-54,-14) scale(1,1)"><path fill="#ffffff" stroke="none" d="M 1320 184 L 1352 152 L 1384 184 L 1352 216 L 1320 184"/></g><g transform="translate(-54,-14) scale(1,1)"><path fill="none" stroke="#000000" d="M 1320 184 L 1352 152 L 1384 184 L 1352 216 L 1320 184 L 1320 184" stroke-miterlimit="10"/></g><g transform="translate(-54,-14) scale(1,1)"><path fill="#C0C0C0" stroke="none" d="M 1273 399 L 1461.80517578125 399 Q 1471.80517578125 399 1471.80517578125 409 L 1471.80517578125 429 Q 1471.80517578125 439 1461.80517578125 439 L 1273 439 Q 1263 439 1263 429 L 1263 409 Q 1263 399 1273 399 Z" opacity="0.2"/></g><g transform="translate(-54,-14) scale(1,1)"><path fill="#ffffff" stroke="none" d="M 1266 392 L 1454.80517578125 392 Q 1464.80517578125 392 1464.80517578125 402 L 1464.80517578125 422 Q 1464.80517578125 432 1454.80517578125 432 L 1266 432 Q 1256 432 1256 422 L 1256 402 Q 1256 392 1266 392 Z"/></g><g transform="translate(-54,-14) scale(1,1)"><path fill="none" stroke="#000000" d="M 1266 392 L 1454.80517578125 392 Q 1464.80517578125 392 1464.80517578125 402 L 1464.80517578125 422 Q 1464.80517578125 432 1454.80517578125 432 L 1266 432 Q 1256 432 1256 422 L 1256 402 Q 1256 392 1266 392 Z" stroke-miterlimit="10"/></g><g transform="translate(-54,-14) scale(1,1)"><g><path fill="none" stroke="none"/><text fill="#000000" stroke="none" font-family="Arial" font-size="13px" font-style="normal" font-weight="bold" text-decoration="none" x="1266.571533203125" y="411.5">Перейти к оформлению заказа</text></g></g><g transform="translate(-54,-14) scale(1,1)"><path fill="none" stroke="#000000" d="M 1353 217 L 1359 391" stroke-miterlimit="10"/></g><g transform="translate(-54,-14) scale(1,1)"><path fill="none" stroke="#000000" d="M 1354.4427537960387 380.98843133987083 L 1359 391 L 1362.8567883955343 380.69829221575026" stroke-miterlimit="10"/></g><g transform="translate(-54,-14) scale(1,1)"><g><path fill="none" stroke="none"/><text fill="#000000" stroke="none" font-family="Arial" font-size="13px" font-style="normal" font-weight="normal" text-decoration="none" x="1428" y="325">Да</text></g></g><g transform="translate(-54,-14) scale(1,1)"><path fill="none" stroke="#000000" d="M 311 504 L 64 504 L 64 48 L 359 49" stroke-miterlimit="10"/></g><g transform="translate(-54,-14) scale(1,1)"><path fill="none" stroke="#000000" d="M 348.82311406154076 53.17504402319193 L 359 49 L 348.8516530010021 44.75605688210483" stroke-miterlimit="10"/></g><g transform="translate(-54,-14) scale(1,1)"><g><path fill="none" stroke="none"/><text fill="#000000" stroke="none" font-family="Arial" font-size="13px" font-style="normal" font-weight="normal" text-decoration="none" x="70" y="494">Продолжить покупки</text></g></g><g transform="translate(-54,-14) scale(1,1)"><path fill="#C0C0C0" stroke="none" d="M 1305 543 L 1446.92138671875 543 Q 1456.92138671875 543 1456.92138671875 553 L 1456.92138671875 573 Q 1456.92138671875 583 1446.92138671875 583 L 1305 583 Q 1295 583 1295 573 L 1295 553 Q 1295 543 1305 543 Z" opacity="0.2"/></g><g transform="translate(-54,-14) scale(1,1)"><path fill="#ffffff" stroke="none" d="M 1298 536 L 1439.92138671875 536 Q 1449.92138671875 536 1449.92138671875 546 L 1449.92138671875 566 Q 1449.92138671875 576 1439.92138671875 576 L 1298 576 Q 1288 576 1288 566 L 1288 546 Q 1288 536 1298 536 Z"/></g><g transform="translate(-54,-14) scale(1,1)"><path fill="none" stroke="#000000" d="M 1298 536 L 1439.92138671875 536 Q 1449.92138671875 536 1449.92138671875 546 L 1449.92138671875 566 Q 1449.92138671875 576 1439.92138671875 576 L 1298 576 Q 1288 576 1288 566 L 1288 546 Q 1288 536 1298 536 Z" stroke-miterlimit="10"/></g><g transform="translate(-54,-14) scale(1,1)"><g><path fill="none" stroke="none"/><text fill="#000000" stroke="none" font-family="Arial" font-size="13px" font-style="normal" font-weight="bold" text-decoration="none" x="1298.527099609375" y="555.5">Ввести личные данные</text></g></g><g transform="translate(-54,-14) scale(1,1)"><path fill="none" stroke="#000000" d="M 1361 433 L 1367 535" stroke-miterlimit="10"/></g><g transform="translate(-54,-14) scale(1,1)"><path fill="none" stroke="#000000" d="M 1362.200973484669 525.1020535207979 L 1367 535 L 1370.605480883181 524.60767073265" stroke-miterlimit="10"/></g><g transform="translate(-54,-14) scale(1,1)"><path fill="#C0C0C0" stroke="none" d="M 1335 663.5 L 1375.5 631 L 1415 663.5 L 1375.5 695 L 1335 663.5" opacity="0.2"/></g><g transform="translate(-54,-14) scale(1,1)"><path fill="#ffffff" stroke="none" d="M 1328 656 L 1368 624 L 1408 656 L 1368 688 L 1328 656"/></g><g transform="translate(-54,-14) scale(1,1)"><path fill="none" stroke="#000000" d="M 1328 656 L 1368 624 L 1408 656 L 1368 688 L 1328 656 L 1328 656" stroke-miterlimit="10"/></g><g transform="translate(-54,-14) scale(1,1)"><path fill="none" stroke="#000000" d="M 1368 577 L 1368 623" stroke-miterlimit="10"/></g><g transform="translate(-54,-14) scale(1,1)"><path fill="none" stroke="#000000" d="M 1363.7904822439841 612.8373251423759 L 1368 623 L 1372.2095177560159 612.8373251423759" stroke-miterlimit="10"/></g><g transform="translate(-54,-14) scale(1,1)"><g><path fill="none" stroke="none"/><text fill="#000000" stroke="none" font-family="Arial" font-size="13px" font-style="normal" font-weight="normal" text-decoration="none" x="1335" y="606">Данные верны?</text></g></g><g transform="translate(-54,-14) scale(1,1)"><path fill="#C0C0C0" stroke="none" d="M 1321 743 L 1420.525390625 743 Q 1430.525390625 743 1430.525390625 753 L 1430.525390625 773 Q 1430.525390625 783 1420.525390625 783 L 1321 783 Q 1311 783 1311 773 L 1311 753 Q 1311 743 1321 743 Z" opacity="0.2"/></g><g transform="translate(-54,-14) scale(1,1)"><path fill="#ffffff" stroke="none" d="M 1314 736 L 1413.525390625 736 Q 1423.525390625 736 1423.525390625 746 L 1423.525390625 766 Q 1423.525390625 776 1413.525390625 776 L 1314 776 Q 1304 776 1304 766 L 1304 746 Q 1304 736 1314 736 Z"/></g><g transform="translate(-54,-14) scale(1,1)"><path fill="none" stroke="#000000" d="M 1314 736 L 1413.525390625 736 Q 1423.525390625 736 1423.525390625 746 L 1423.525390625 766 Q 1423.525390625 776 1413.525390625 776 L 1314 776 Q 1304 776 1304 766 L 1304 746 Q 1304 736 1314 736 Z" stroke-miterlimit="10"/></g><g transform="translate(-54,-14) scale(1,1)"><g><path fill="none" stroke="none"/><text fill="#000000" stroke="none" font-family="Arial" font-size="13px" font-style="normal" font-weight="bold" text-decoration="none" x="1312.359375" y="755.5">Провести оплату</text></g></g><g transform="translate(-54,-14) scale(1,1)"><path fill="none" stroke="#000000" d="M 1366 689 L 1364 735" stroke-miterlimit="10"/></g><g transform="translate(-54,-14) scale(1,1)"><path fill="none" stroke="#000000" d="M 1360.2358937491852 724.6640673312673 L 1364 735 L 1368.6469830248905 725.0297668649936" stroke-miterlimit="10"/></g><g transform="translate(-54,-14) scale(1,1)"><g><path fill="none" stroke="none"/><text fill="#000000" stroke="none" font-family="Arial" font-size="13px" font-style="normal" font-weight="normal" text-decoration="none" x="1371" y="719">Да</text></g></g><g transform="translate(-54,-14) scale(1,1)"><path fill="#C0C0C0" stroke="none" d="M 1057 647 L 1179.326171875 647 Q 1189.326171875 647 1189.326171875 657 L 1189.326171875 677 Q 1189.326171875 687 1179.326171875 687 L 1057 687 Q 1047 687 1047 677 L 1047 657 Q 1047 647 1057 647 Z" opacity="0.2"/></g><g transform="translate(-54,-14) scale(1,1)"><path fill="#ffffff" stroke="none" d="M 1050 640 L 1172.326171875 640 Q 1182.326171875 640 1182.326171875 650 L 1182.326171875 670 Q 1182.326171875 680 1172.326171875 680 L 1050 680 Q 1040 680 1040 670 L 1040 650 Q 1040 640 1050 640 Z"/></g><g transform="translate(-54,-14) scale(1,1)"><path fill="none" stroke="#000000" d="M 1050 640 L 1172.326171875 640 Q 1182.326171875 640 1182.326171875 650 L 1182.326171875 670 Q 1182.326171875 680 1172.326171875 680 L 1050 680 Q 1040 680 1040 670 L 1040 650 Q 1040 640 1050 640 Z" stroke-miterlimit="10"/></g><g transform="translate(-54,-14) scale(1,1)"><g><path fill="none" stroke="none"/><text fill="#000000" stroke="none" font-family="Arial" font-size="13px" font-style="normal" font-weight="bold" text-decoration="none" x="1049.422607421875" y="659.5">Вывести сообщение</text></g></g><g transform="translate(-54,-14) scale(1,1)"><path fill="none" stroke="#000000" d="M 1327 657 L 1183 659" stroke-miterlimit="10"/></g><g transform="translate(-54,-14) scale(1,1)"><path fill="none" stroke="#000000" d="M 1193.10323491698 654.6497535457958 L 1183 659 L 1193.2201546893177 663.0679771541168" stroke-miterlimit="10"/></g><g transform="translate(-54,-14) scale(1,1)"><g><path fill="none" stroke="none"/><text fill="#000000" stroke="none" font-family="Arial" font-size="13px" font-style="normal" font-weight="normal" text-decoration="none" x="1243" y="652">Нет</text></g></g><g transform="translate(-54,-14) scale(1,1)"><path fill="#C0C0C0" stroke="none" d="M 273 255 L 395.326171875 255 Q 405.326171875 255 405.326171875 265 L 405.326171875 285 Q 405.326171875 295 395.326171875 295 L 273 295 Q 263 295 263 285 L 263 265 Q 263 255 273 255 Z" opacity="0.2"/></g><g transform="translate(-54,-14) scale(1,1)"><path fill="#ffffff" stroke="none" d="M 266 248 L 388.326171875 248 Q 398.326171875 248 398.326171875 258 L 398.326171875 278 Q 398.326171875 288 388.326171875 288 L 266 288 Q 256 288 256 278 L 256 258 Q 256 248 266 248 Z"/></g><g transform="translate(-54,-14) scale(1,1)"><path fill="none" stroke="#000000" d="M 266 248 L 388.326171875 248 Q 398.326171875 248 398.326171875 258 L 398.326171875 278 Q 398.326171875 288 388.326171875 288 L 266 288 Q 256 288 256 278 L 256 258 Q 256 248 266 248 Z" stroke-miterlimit="10"/></g><g transform="translate(-54,-14) scale(1,1)"><g><path fill="none" stroke="none"/><text fill="#000000" stroke="none" font-family="Arial" font-size="13px" font-style="normal" font-weight="bold" text-decoration="none" x="265.422607421875" y="267.5">Вывести сообщение</text></g></g><g transform="translate(-54,-14) scale(1,1)"><path fill="#C0C0C0" stroke="none" d="M 151 355.5 L 171.5 335 L 191 355.5 L 171.5 375 L 151 355.5" opacity="0.2"/></g><g transform="translate(-54,-14) scale(1,1)"><path fill="#ffffff" stroke="none" d="M 144 348 L 164 328 L 184 348 L 164 368 L 144 348"/></g><g transform="translate(-54,-14) scale(1,1)"><path fill="none" stroke="#000000" d="M 144 348 L 164 328 L 184 348 L 164 368 L 144 348 L 144 348" stroke-miterlimit="10"/></g><g transform="translate(-54,-14) scale(1,1)"><path fill="none" stroke="#000000" d="M 162 289 L 163 327" stroke-miterlimit="10"/></g><g transform="translate(-54,-14) scale(1,1)"><path fill="none" stroke="#000000" d="M 158.5245928199676 316.9515806928197 L 163 327 L 166.94071466674117 316.7301038021151" stroke-miterlimit="10"/></g><g transform="translate(-54,-14) scale(1,1)"><g><path fill="none" stroke="none"/><text fill="#000000" stroke="none" font-family="Arial" font-size="13px" font-style="normal" font-weight="normal" text-decoration="none" x="111" y="388">Есть в наличии?</text></g></g><g transform="translate(-54,-14) scale(1,1)"><path fill="none" stroke="#000000" d="M 185 338 L 284 289" stroke-miterlimit="10"/></g><g transform="translate(-54,-14) scale(1,1)"><path fill="none" stroke="#000000" d="M 276.7591964884879 297.2807466153526 L 284 289 L 273.02460665076705 289.73535082077376" stroke-miterlimit="10"/></g><g transform="translate(-54,-14) scale(1,1)"><g><path fill="none" stroke="none"/><text fill="#000000" stroke="none" font-family="Arial" font-size="13px" font-style="normal" font-weight="normal" text-decoration="none" x="216" y="306">Нет</text></g></g><g transform="translate(-54,-14) scale(1,1)"><path fill="none" stroke="#000000" d="M 255 268 L 213 268" stroke-miterlimit="10"/></g><g transform="translate(-54,-14) scale(1,1)"><path fill="none" stroke="#000000" d="M 223.16267485762415 263.790482243984 L 213 268 L 223.16267485762415 272.209517756016" stroke-miterlimit="10"/></g><g transform="translate(-54,-14) scale(1,1)"><path fill="none" stroke="#000000" d="M 185 348 L 279 348" stroke-miterlimit="10"/></g><g transform="translate(-54,-14) scale(1,1)"><path fill="none" stroke="#000000" d="M 268.83732514237585 352.209517756016 L 279 348 L 268.83732514237585 343.790482243984" stroke-miterlimit="10"/></g><g transform="translate(-54,-14) scale(1,1)"><g><path fill="none" stroke="none"/><text fill="#000000" stroke="none" font-family="Arial" font-size="13px" font-style="normal" font-weight="normal" text-decoration="none" x="247" y="344">Да</text></g></g><g transform="translate(-54,-14) scale(1,1)"><path fill="none" stroke="#000000" d="M 1111 639 L 1112 560 L 1287 557" stroke-miterlimit="10"/></g><g transform="translate(-54,-14) scale(1,1)"><path fill="none" stroke="#000000" d="M 1276.910970664624 561.3830910405699 L 1287 557 L 1276.7666655440207 552.9652923387106" stroke-miterlimit="10"/></g><g transform="translate(-54,-14) scale(1,1)"><path fill="#C0C0C0" stroke="none" d="M 1335 879.5 L 1371.5 847 L 1407 879.5 L 1371.5 911 L 1335 879.5" opacity="0.2"/></g><g transform="translate(-54,-14) scale(1,1)"><path fill="#ffffff" stroke="none" d="M 1328 872 L 1364 840 L 1400 872 L 1364 904 L 1328 872"/></g><g transform="translate(-54,-14) scale(1,1)"><path fill="none" stroke="#000000" d="M 1328 872 L 1364 840 L 1400 872 L 1364 904 L 1328 872 L 1328 872" stroke-miterlimit="10"/></g><g transform="translate(-54,-14) scale(1,1)"><path fill="none" stroke="#000000" d="M 1363 777 L 1364 839" stroke-miterlimit="10"/></g><g transform="translate(-54,-14) scale(1,1)"><path fill="none" stroke="#000000" d="M 1359.6271368871173 828.9065333905545 L 1364 839 L 1368.045077524899 828.7707601544613" stroke-miterlimit="10"/></g><g transform="translate(-54,-14) scale(1,1)"><g><path fill="none" stroke="none"/><text fill="#000000" stroke="none" font-family="Arial" font-size="13px" font-style="normal" font-weight="normal" text-decoration="none" x="1298" y="814">Оплата прошла успешно?</text></g></g><g transform="translate(-54,-14) scale(1,1)"><path fill="#C0C0C0" stroke="none" d="M 1225 999 L 1518.47802734375 999 Q 1528.47802734375 999 1528.47802734375 1009 L 1528.47802734375 1029 Q 1528.47802734375 1039 1518.47802734375 1039 L 1225 1039 Q 1215 1039 1215 1029 L 1215 1009 Q 1215 999 1225 999 Z" opacity="0.2"/></g><g transform="translate(-54,-14) scale(1,1)"><path fill="#ffffff" stroke="none" d="M 1218 992 L 1511.47802734375 992 Q 1521.47802734375 992 1521.47802734375 1002 L 1521.47802734375 1022 Q 1521.47802734375 1032 1511.47802734375 1032 L 1218 1032 Q 1208 1032 1208 1022 L 1208 1002 Q 1208 992 1218 992 Z"/></g><g transform="translate(-54,-14) scale(1,1)"><path fill="none" stroke="#000000" d="M 1218 992 L 1511.47802734375 992 Q 1521.47802734375 992 1521.47802734375 1002 L 1521.47802734375 1022 Q 1521.47802734375 1032 1511.47802734375 1032 L 1218 1032 Q 1208 1032 1208 1022 L 1208 1002 Q 1208 992 1218 992 Z" stroke-miterlimit="10"/></g><g transform="translate(-54,-14) scale(1,1)"><g><path fill="none" stroke="none"/><text fill="#000000" stroke="none" font-family="Arial" font-size="13px" font-style="normal" font-weight="bold" text-decoration="none" x="1221.6533203125" y="1011.5">Вывести сообщение о  текущем статусе заказа</text></g></g><g transform="translate(-54,-14) scale(1,1)"><path fill="none" stroke="#000000" d="M 1364 905 L 1364 991" stroke-miterlimit="10"/></g><g transform="translate(-54,-14) scale(1,1)"><path fill="none" stroke="#000000" d="M 1359.7904822439841 980.8373251423759 L 1364 991 L 1368.2095177560159 980.8373251423759" stroke-miterlimit="10"/></g><g transform="translate(-54,-14) scale(1,1)"><g><path fill="none" stroke="none"/><text fill="#000000" stroke="none" font-family="Arial" font-size="13px" font-style="normal" font-weight="normal" text-decoration="none" x="1322" y="943">Да</text></g></g><g transform="translate(-54,-14) scale(1,1)"><path fill="none" stroke="#000000" d="M 1364 1033 L 1364 1119" stroke-miterlimit="10"/></g><g transform="translate(-54,-14) scale(1,1)"><path fill="none" stroke="#000000" d="M 1359.7904822439841 1108.837325142376 L 1364 1119 L 1368.2095177560159 1108.837325142376" stroke-miterlimit="10"/></g><g transform="translate(-54,-14) scale(1,1)"><path fill="#C0C0C0" stroke="none" d="M 1513 863 L 1552 863 Q 1562 863 1562 873 L 1562 893 Q 1562 903 1552 903 L 1513 903 Q 1503 903 1503 893 L 1503 873 Q 1503 863 1513 863 Z" opacity="0.2"/></g><g transform="translate(-54,-14) scale(1,1)"><path fill="#ffffff" stroke="none" d="M 1506 856 L 1545 856 Q 1555 856 1555 866 L 1555 886 Q 1555 896 1545 896 L 1506 896 Q 1496 896 1496 886 L 1496 866 Q 1496 856 1506 856 Z"/></g><g transform="translate(-54,-14) scale(1,1)"><path fill="none" stroke="#000000" d="M 1506 856 L 1545 856 Q 1555 856 1555 866 L 1555 886 Q 1555 896 1545 896 L 1506 896 Q 1496 896 1496 886 L 1496 866 Q 1496 856 1506 856 Z" stroke-miterlimit="10"/></g><g transform="translate(-54,-14) scale(1,1)"><g><path fill="none" stroke="none"/><text fill="#000000" stroke="none" font-family="Arial" font-size="13px" font-style="normal" font-weight="bold" text-decoration="none" x="1514.2138671875" y="875.5">Нет</text></g></g><g transform="translate(-54,-14) scale(1,1)"><path fill="none" stroke="#000000" d="M 1401 873 L 1495 875" stroke-miterlimit="10"/></g><g transform="translate(-54,-14) scale(1,1)"><path fill="none" stroke="#000000" d="M 1484.7500807083493 878.9923870697424 L 1495 875 L 1484.9291685921226 870.5752565323953" stroke-miterlimit="10"/></g><g transform="translate(-54,-14) scale(1,1)"><path fill="#C0C0C0" stroke="none" d="M 1641 863 L 1766.93798828125 863 Q 1776.93798828125 863 1776.93798828125 873 L 1776.93798828125 893 Q 1776.93798828125 903 1766.93798828125 903 L 1641 903 Q 1631 903 1631 893 L 1631 873 Q 1631 863 1641 863 Z" opacity="0.2"/></g><g transform="translate(-54,-14) scale(1,1)"><path fill="#ffffff" stroke="none" d="M 1634 856 L 1759.93798828125 856 Q 1769.93798828125 856 1769.93798828125 866 L 1769.93798828125 886 Q 1769.93798828125 896 1759.93798828125 896 L 1634 896 Q 1624 896 1624 886 L 1624 866 Q 1624 856 1634 856 Z"/></g><g transform="translate(-54,-14) scale(1,1)"><path fill="none" stroke="#000000" d="M 1634 856 L 1759.93798828125 856 Q 1769.93798828125 856 1769.93798828125 866 L 1769.93798828125 886 Q 1769.93798828125 896 1759.93798828125 896 L 1634 896 Q 1624 896 1624 886 L 1624 866 Q 1624 856 1634 856 Z" stroke-miterlimit="10"/></g><g transform="translate(-54,-14) scale(1,1)"><g><path fill="none" stroke="none"/><text fill="#000000" stroke="none" font-family="Arial" font-size="13px" font-style="normal" font-weight="bold" text-decoration="none" x="1635.228515625" y="875.5">Вывести сообщение</text></g></g><g transform="translate(-54,-14) scale(1,1)"><path fill="none" stroke="#000000" d="M 1556 876 L 1623 876" stroke-miterlimit="10"/></g><g transform="translate(-54,-14) scale(1,1)"><path fill="none" stroke="#000000" d="M 1612.837325142376 880.209517756016 L 1623 876 L 1612.837325142376 871.790482243984" stroke-miterlimit="10"/></g><g transform="translate(-54,-14) scale(1,1)"><path fill="none" stroke="#000000" d="M 1696 855 L 1696 752 L 1425 755" stroke-miterlimit="10"/></g><g transform="translate(-54,-14) scale(1,1)"><path fill="none" stroke="#000000" d="M 1435.1154552379332 750.6782451099849 L 1425 755 L 1435.2086491828873 759.0967648041758" stroke-miterlimit="10"/></g><g transform="translate(-54,-14) scale(1,1)"><path fill="#C0C0C0" stroke="none" d="M 129 87 L 221.7333984375 87 Q 231.7333984375 87 231.7333984375 97 L 231.7333984375 117 Q 231.7333984375 127 221.7333984375 127 L 129 127 Q 119 127 119 117 L 119 97 Q 119 87 129 87 Z" opacity="0.2"/></g><g transform="translate(-54,-14) scale(1,1)"><path fill="#ffffff" stroke="none" d="M 122 80 L 214.7333984375 80 Q 224.7333984375 80 224.7333984375 90 L 224.7333984375 110 Q 224.7333984375 120 214.7333984375 120 L 122 120 Q 112 120 112 110 L 112 90 Q 112 80 122 80 Z"/></g><g transform="translate(-54,-14) scale(1,1)"><path fill="none" stroke="#000000" d="M 122 80 L 214.7333984375 80 Q 224.7333984375 80 224.7333984375 90 L 224.7333984375 110 Q 224.7333984375 120 214.7333984375 120 L 122 120 Q 112 120 112 110 L 112 90 Q 112 80 122 80 Z" stroke-miterlimit="10"/></g><g transform="translate(-54,-14) scale(1,1)"><g><path fill="none" stroke="none"/><text fill="#000000" stroke="none" font-family="Arial" font-size="13px" font-style="normal" font-weight="bold" text-decoration="none" x="120.184814453125" y="99.5">Просмотр меню</text></g></g><g transform="translate(-54,-14) scale(1,1)"><path fill="#C0C0C0" stroke="none" d="M 137 191 L 209.814453125 191 Q 219.814453125 191 219.814453125 201 L 219.814453125 221 Q 219.814453125 231 209.814453125 231 L 137 231 Q 127 231 127 221 L 127 201 Q 127 191 137 191 Z" opacity="0.2"/></g><g transform="translate(-54,-14) scale(1,1)"><path fill="#ffffff" stroke="none" d="M 130 184 L 202.814453125 184 Q 212.814453125 184 212.814453125 194 L 212.814453125 214 Q 212.814453125 224 202.814453125 224 L 130 224 Q 120 224 120 214 L 120 194 Q 120 184 130 184 Z"/></g><g transform="translate(-54,-14) scale(1,1)"><path fill="none" stroke="#000000" d="M 130 184 L 202.814453125 184 Q 212.814453125 184 212.814453125 194 L 212.814453125 214 Q 212.814453125 224 202.814453125 224 L 130 224 Q 120 224 120 214 L 120 194 Q 120 184 130 184 Z" stroke-miterlimit="10"/></g><g transform="translate(-54,-14) scale(1,1)"><g><path fill="none" stroke="none"/><text fill="#000000" stroke="none" font-family="Arial" font-size="13px" font-style="normal" font-weight="bold" text-decoration="none" x="128.0927734375" y="203.5">Выбор меню</text></g></g><g transform="translate(-54,-14) scale(1,1)"><path fill="none" stroke="#000000" d="M 168 121 L 166 183" stroke-miterlimit="10"/></g><g transform="translate(-54,-14) scale(1,1)"><path fill="none" stroke="#000000" d="M 162.12032849992457 172.70688827168857 L 166 183 L 170.53498707612027 172.97832887092068" stroke-miterlimit="10"/></g><g transform="translate(-54,-14) scale(1,1)"><path fill="none" stroke="#000000" d="M 164 225 L 163 247" stroke-miterlimit="10"/></g><g transform="translate(-54,-14) scale(1,1)"><path fill="none" stroke="#000000" d="M 159.25628748624487 236.6566631779511 L 163 247 L 167.6666391016781 237.0389518877435" stroke-miterlimit="10"/></g><g transform="translate(-54,-14) scale(1,1)"><path fill="#C0C0C0" stroke="none" d="M 417 167 L 529.728515625 167 Q 539.728515625 167 539.728515625 177 L 539.728515625 197 Q 539.728515625 207 529.728515625 207 L 417 207 Q 407 207 407 197 L 407 177 Q 407 167 417 167 Z" opacity="0.2"/></g><g transform="translate(-54,-14) scale(1,1)"><path fill="#ffffff" stroke="none" d="M 410 160 L 522.728515625 160 Q 532.728515625 160 532.728515625 170 L 532.728515625 190 Q 532.728515625 200 522.728515625 200 L 410 200 Q 400 200 400 190 L 400 170 Q 400 160 410 160 Z"/></g><g transform="translate(-54,-14) scale(1,1)"><path fill="none" stroke="#000000" d="M 410 160 L 522.728515625 160 Q 532.728515625 160 532.728515625 170 L 532.728515625 190 Q 532.728515625 200 522.728515625 200 L 410 200 Q 400 200 400 190 L 400 170 Q 400 160 410 160 Z" stroke-miterlimit="10"/></g><g transform="translate(-54,-14) scale(1,1)"><g><path fill="none" stroke="none"/><text fill="#000000" stroke="none" font-family="Arial" font-size="13px" font-style="normal" font-weight="bold" text-decoration="none" x="409.784423828125" y="179.5">Просмотр корзины</text></g></g><g transform="translate(-54,-14) scale(1,1)"><path fill="none" stroke="#000000" d="M 393 112 L 444 159" stroke-miterlimit="10"/></g><g transform="translate(-54,-14) scale(1,1)"><path fill="none" stroke="#000000" d="M 433.6741058396106 155.2084423005266 L 444 159 L 439.37952637793177 149.01745405681638" stroke-miterlimit="10"/></g><g transform="translate(-54,-14) scale(1,1)"><path fill="#C0C0C0" stroke="none" d="M 631 183.5 L 659.5 159 L 687 183.5 L 659.5 207 L 631 183.5" opacity="0.2"/></g><g transform="translate(-54,-14) scale(1,1)"><path fill="#ffffff" stroke="none" d="M 624 176 L 652 152 L 680 176 L 652 200 L 624 176"/></g><g transform="translate(-54,-14) scale(1,1)"><path fill="none" stroke="#000000" d="M 624 176 L 652 152 L 680 176 L 652 200 L 624 176 L 624 176" stroke-miterlimit="10"/></g><g transform="translate(-54,-14) scale(1,1)"><path fill="none" stroke="#000000" d="M 534 179 L 623 177" stroke-miterlimit="10"/></g><g transform="translate(-54,-14) scale(1,1)"><path fill="none" stroke="#000000" d="M 612.9344622078114 181.4367723576969 L 623 177 L 612.7453181501455 173.0198617915625" stroke-miterlimit="10"/></g><g transform="translate(-54,-14) scale(1,1)"><g><path fill="none" stroke="none"/><text fill="#000000" stroke="none" font-family="Arial" font-size="13px" font-style="normal" font-weight="normal" text-decoration="none" x="527" y="206">Корзина пустая?</text></g></g><g transform="translate(-54,-14) scale(1,1)"><path fill="#C0C0C0" stroke="none" d="M 817 167 L 981.7158203125 167 Q 991.7158203125 167 991.7158203125 177 L 991.7158203125 197 Q 991.7158203125 207 981.7158203125 207 L 817 207 Q 807 207 807 197 L 807 177 Q 807 167 817 167 Z" opacity="0.2"/></g><g transform="translate(-54,-14) scale(1,1)"><path fill="#ffffff" stroke="none" d="M 810 160 L 974.7158203125 160 Q 984.7158203125 160 984.7158203125 170 L 984.7158203125 190 Q 984.7158203125 200 974.7158203125 200 L 810 200 Q 800 200 800 190 L 800 170 Q 800 160 810 160 Z"/></g><g transform="translate(-54,-14) scale(1,1)"><path fill="none" stroke="#000000" d="M 810 160 L 974.7158203125 160 Q 984.7158203125 160 984.7158203125 170 L 984.7158203125 190 Q 984.7158203125 200 974.7158203125 200 L 810 200 Q 800 200 800 190 L 800 170 Q 800 160 810 160 Z" stroke-miterlimit="10"/></g><g transform="translate(-54,-14) scale(1,1)"><g><path fill="none" stroke="none"/><text fill="#000000" stroke="none" font-family="Arial" font-size="13px" font-style="normal" font-weight="bold" text-decoration="none" x="813.250244140625" y="179.5">Вывод продуктов корзины</text></g></g><g transform="translate(-54,-14) scale(1,1)"><path fill="none" stroke="#000000" d="M 681 176 L 799 178" stroke-miterlimit="10"/></g><g transform="translate(-54,-14) scale(1,1)"><path fill="none" stroke="#000000" d="M 788.7674470502988 182.0366892537772 L 799 178 L 788.910122075527 173.61886276530458" stroke-miterlimit="10"/></g><g transform="translate(-54,-14) scale(1,1)"><g><path fill="none" stroke="none"/><text fill="#000000" stroke="none" font-family="Arial" font-size="13px" font-style="normal" font-weight="normal" text-decoration="none" x="729" y="169">Нет</text></g></g><g transform="translate(-54,-14) scale(1,1)"><path fill="#C0C0C0" stroke="none" d="M 529 95 L 797.0048828125 95 Q 807.0048828125 95 807.0048828125 105 L 807.0048828125 125 Q 807.0048828125 135 797.0048828125 135 L 529 135 Q 519 135 519 125 L 519 105 Q 519 95 529 95 Z" opacity="0.2"/></g><g transform="translate(-54,-14) scale(1,1)"><path fill="#ffffff" stroke="none" d="M 522 88 L 790.0048828125 88 Q 800.0048828125 88 800.0048828125 98 L 800.0048828125 118 Q 800.0048828125 128 790.0048828125 128 L 522 128 Q 512 128 512 118 L 512 98 Q 512 88 522 88 Z"/></g><g transform="translate(-54,-14) scale(1,1)"><path fill="none" stroke="#000000" d="M 522 88 L 790.0048828125 88 Q 800.0048828125 88 800.0048828125 98 L 800.0048828125 118 Q 800.0048828125 128 790.0048828125 128 L 522 128 Q 512 128 512 118 L 512 98 Q 512 88 522 88 Z" stroke-miterlimit="10"/></g><g transform="translate(-54,-14) scale(1,1)"><g><path fill="none" stroke="none"/><text fill="#000000" stroke="none" font-family="Arial" font-size="13px" font-style="normal" font-weight="bold" text-decoration="none" x="533.108642578125" y="107.5">Вывод сообщения "Ваша корзина пуста"</text></g></g><g transform="translate(-54,-14) scale(1,1)"><path fill="none" stroke="#000000" d="M 653 151 L 655 129" stroke-miterlimit="10"/></g><g transform="translate(-54,-14) scale(1,1)"><path fill="none" stroke="#000000" d="M 658.272144785699 139.50205068076818 L 655 129 L 649.887684514256 138.7398270197279" stroke-miterlimit="10"/></g><g transform="translate(-54,-14) scale(1,1)"><g><path fill="none" stroke="none"/><text fill="#000000" stroke="none" font-family="Arial" font-size="13px" font-style="normal" font-weight="normal" text-decoration="none" x="625" y="149">Да</text></g></g><g transform="translate(-54,-14) scale(1,1)"><path fill="#C0C0C0" stroke="none" d="M 769 303 L 1029.5400390625 303 Q 1039.5400390625 303 1039.5400390625 313 L 1039.5400390625 333 Q 1039.5400390625 343 1029.5400390625 343 L 769 343 Q 759 343 759 333 L 759 313 Q 759 303 769 303 Z" opacity="0.2"/></g><g transform="translate(-54,-14) scale(1,1)"><path fill="#ffffff" stroke="none" d="M 762 296 L 1022.5400390625 296 Q 1032.5400390625 296 1032.5400390625 306 L 1032.5400390625 326 Q 1032.5400390625 336 1022.5400390625 336 L 762 336 Q 752 336 752 326 L 752 306 Q 752 296 762 296 Z"/></g><g transform="translate(-54,-14) scale(1,1)"><path fill="none" stroke="#000000" d="M 762 296 L 1022.5400390625 296 Q 1032.5400390625 296 1032.5400390625 306 L 1032.5400390625 326 Q 1032.5400390625 336 1022.5400390625 336 L 762 336 Q 752 336 752 326 L 752 306 Q 752 296 762 296 Z" stroke-miterlimit="10"/></g><g transform="translate(-54,-14) scale(1,1)"><g><path fill="none" stroke="none"/><text fill="#000000" stroke="none" font-family="Arial" font-size="13px" font-style="normal" font-weight="bold" text-decoration="none" x="766.976806640625" y="315.5">Изменить количество продукта в корзине</text></g></g><g transform="translate(-54,-14) scale(1,1)"><path fill="none" stroke="#000000" d="M 892 201 L 892 295" stroke-miterlimit="10"/></g><g transform="translate(-54,-14) scale(1,1)"><path fill="none" stroke="#000000" d="M 887.790482243984 284.83732514237585 L 892 295 L 896.209517756016 284.83732514237585" stroke-miterlimit="10"/></g><g transform="translate(-54,-14) scale(1,1)"><path fill="#C0C0C0" stroke="none" d="M 871 431.5 L 899.5 407 L 927 431.5 L 899.5 455 L 871 431.5" opacity="0.2"/></g><g transform="translate(-54,-14) scale(1,1)"><path fill="#ffffff" stroke="none" d="M 864 424 L 892 400 L 920 424 L 892 448 L 864 424"/></g><g transform="translate(-54,-14) scale(1,1)"><path fill="none" stroke="#000000" d="M 864 424 L 892 400 L 920 424 L 892 448 L 864 424 L 864 424" stroke-miterlimit="10"/></g><g transform="translate(-54,-14) scale(1,1)"><path fill="none" stroke="#000000" d="M 892 337 L 892 399" stroke-miterlimit="10"/></g><g transform="translate(-54,-14) scale(1,1)"><path fill="none" stroke="#000000" d="M 887.790482243984 388.83732514237585 L 892 399 L 896.209517756016 388.83732514237585" stroke-miterlimit="10"/></g><g transform="translate(-54,-14) scale(1,1)"><g><path fill="none" stroke="none"/><text fill="#000000" stroke="none" font-family="Arial" font-size="13px" font-style="normal" font-weight="normal" text-decoration="none" x="821" y="372">Изменить или удалить</text></g></g><g transform="translate(-54,-14) scale(1,1)"><path fill="#C0C0C0" stroke="none" d="M 753 431 L 804.8544921875 431 Q 814.8544921875 431 814.8544921875 441 L 814.8544921875 461 Q 814.8544921875 471 804.8544921875 471 L 753 471 Q 743 471 743 461 L 743 441 Q 743 431 753 431 Z" opacity="0.2"/></g><g transform="translate(-54,-14) scale(1,1)"><path fill="#ffffff" stroke="none" d="M 746 424 L 797.8544921875 424 Q 807.8544921875 424 807.8544921875 434 L 807.8544921875 454 Q 807.8544921875 464 797.8544921875 464 L 746 464 Q 736 464 736 454 L 736 434 Q 736 424 746 424 Z"/></g><g transform="translate(-54,-14) scale(1,1)"><path fill="none" stroke="#000000" d="M 746 424 L 797.8544921875 424 Q 807.8544921875 424 807.8544921875 434 L 807.8544921875 454 Q 807.8544921875 464 797.8544921875 464 L 746 464 Q 736 464 736 454 L 736 434 Q 736 424 746 424 Z" stroke-miterlimit="10"/></g><g transform="translate(-54,-14) scale(1,1)"><g><path fill="none" stroke="none"/><text fill="#000000" stroke="none" font-family="Arial" font-size="13px" font-style="normal" font-weight="bold" text-decoration="none" x="742.607421875" y="443.5">Изменить</text></g></g><g transform="translate(-54,-14) scale(1,1)"><path fill="#C0C0C0" stroke="none" d="M 1025 431 L 1068.17724609375 431 Q 1078.17724609375 431 1078.17724609375 441 L 1078.17724609375 461 Q 1078.17724609375 471 1068.17724609375 471 L 1025 471 Q 1015 471 1015 461 L 1015 441 Q 1015 431 1025 431 Z" opacity="0.2"/></g><g transform="translate(-54,-14) scale(1,1)"><path fill="#ffffff" stroke="none" d="M 1018 424 L 1061.17724609375 424 Q 1071.17724609375 424 1071.17724609375 434 L 1071.17724609375 454 Q 1071.17724609375 464 1061.17724609375 464 L 1018 464 Q 1008 464 1008 454 L 1008 434 Q 1008 424 1018 424 Z"/></g><g transform="translate(-54,-14) scale(1,1)"><path fill="none" stroke="#000000" d="M 1018 424 L 1061.17724609375 424 Q 1071.17724609375 424 1071.17724609375 434 L 1071.17724609375 454 Q 1071.17724609375 464 1061.17724609375 464 L 1018 464 Q 1008 464 1008 454 L 1008 434 Q 1008 424 1018 424 Z" stroke-miterlimit="10"/></g><g transform="translate(-54,-14) scale(1,1)"><g><path fill="none" stroke="none"/><text fill="#000000" stroke="none" font-family="Arial" font-size="13px" font-style="normal" font-weight="bold" text-decoration="none" x="1014.2646484375" y="443.5">Удалить</text></g></g><g transform="translate(-54,-14) scale(1,1)"><path fill="none" stroke="#000000" d="M 863 429 L 809 438" stroke-miterlimit="10"/></g><g transform="translate(-54,-14) scale(1,1)"><path fill="none" stroke="#000000" d="M 818.3323602733092 432.1770238082953 L 809 438 L 819.7164411855751 440.4815092818907" stroke-miterlimit="10"/></g><g transform="translate(-54,-14) scale(1,1)"><path fill="none" stroke="#000000" d="M 921 428 L 1007 440" stroke-miterlimit="10"/></g><g transform="translate(-54,-14) scale(1,1)"><path fill="none" stroke="#000000" d="M 996.353098420859 442.76468565375615 L 1007 440 L 997.5165757211436 434.42643166838377" stroke-miterlimit="10"/></g><g transform="translate(-54,-14) scale(1,1)"><path fill="none" stroke="#000000" d="M 654 87 L 653 65" stroke-miterlimit="10"/></g><g transform="translate(-54,-14) scale(1,1)"><path fill="none" stroke="#000000" d="M 657.6666391016781 74.9610481122565 L 653 65 L 649.2562874862449 75.34333682204893" stroke-miterlimit="10"/></g><g transform="translate(-54,-14) scale(1,1)"><path fill="#C0C0C0" stroke="none" d="M 577 31 L 739.9638671875 31 Q 749.9638671875 31 749.9638671875 41 L 749.9638671875 61 Q 749.9638671875 71 739.9638671875 71 L 577 71 Q 567 71 567 61 L 567 41 Q 567 31 577 31 Z" opacity="0.2"/></g><g transform="translate(-54,-14) scale(1,1)"><path fill="#ffffff" stroke="none" d="M 570 24 L 732.9638671875 24 Q 742.9638671875 24 742.9638671875 34 L 742.9638671875 54 Q 742.9638671875 64 732.9638671875 64 L 570 64 Q 560 64 560 54 L 560 34 Q 560 24 570 24 Z"/></g><g transform="translate(-54,-14) scale(1,1)"><path fill="none" stroke="#000000" d="M 570 24 L 732.9638671875 24 Q 742.9638671875 24 742.9638671875 34 L 742.9638671875 54 Q 742.9638671875 64 732.9638671875 64 L 570 64 Q 560 64 560 54 L 560 34 Q 560 24 570 24 Z" stroke-miterlimit="10"/></g><g transform="translate(-54,-14) scale(1,1)"><g><path fill="none" stroke="none"/><text fill="#000000" stroke="none" font-family="Arial" font-size="13px" font-style="normal" font-weight="bold" text-decoration="none" x="571.35546875" y="43.5">вернуться в главное меню</text></g></g><g transform="translate(-54,-14) scale(1,1)"><path fill="none" stroke="#000000" d="M 559 46 L 380 49" stroke-miterlimit="10"/></g><g transform="translate(-54,-14) scale(1,1)"><path fill="none" stroke="#000000" d="M 390.0907071902883 44.620773081939745 L 380 49 L 390.2317885313358 53.038626431105655" stroke-miterlimit="10"/></g><g transform="translate(-54,-14) scale(1,1)"><path fill="#C0C0C0" stroke="none" d="M 729 519 L 837.81201171875 519 Q 847.81201171875 519 847.81201171875 529 L 847.81201171875 549 Q 847.81201171875 559 837.81201171875 559 L 729 559 Q 719 559 719 549 L 719 529 Q 719 519 729 519 Z" opacity="0.2"/></g><g transform="translate(-54,-14) scale(1,1)"><path fill="#ffffff" stroke="none" d="M 722 512 L 830.81201171875 512 Q 840.81201171875 512 840.81201171875 522 L 840.81201171875 542 Q 840.81201171875 552 830.81201171875 552 L 722 552 Q 712 552 712 542 L 712 522 Q 712 512 722 512 Z"/></g><g transform="translate(-54,-14) scale(1,1)"><path fill="none" stroke="#000000" d="M 722 512 L 830.81201171875 512 Q 840.81201171875 512 840.81201171875 522 L 840.81201171875 542 Q 840.81201171875 552 830.81201171875 552 L 722 552 Q 712 552 712 542 L 712 522 Q 712 512 722 512 Z" stroke-miterlimit="10"/></g><g transform="translate(-54,-14) scale(1,1)"><g><path fill="none" stroke="none"/><text fill="#000000" stroke="none" font-family="Arial" font-size="13px" font-style="normal" font-weight="bold" text-decoration="none" x="721.644775390625" y="531.5">Обновить корзину</text></g></g><g transform="translate(-54,-14) scale(1,1)"><path fill="none" stroke="#000000" d="M 772 465 L 775 511" stroke-miterlimit="10"/></g><g transform="translate(-54,-14) scale(1,1)"><path fill="none" stroke="#000000" d="M 770.1380278627038 501.1328207203803 L 775 511 L 778.5392159115803 500.58491715197533" stroke-miterlimit="10"/></g><g transform="translate(-54,-14) scale(1,1)"><path fill="none" stroke="#000000" d="M 1039 465 L 1040 536 L 842 533" stroke-miterlimit="10"/></g><g transform="translate(-54,-14) scale(1,1)"><path fill="none" stroke="#000000" d="M 852.2252817961895 528.9449275976234 L 842 533 L 852.0977352915519 537.3629969037061" stroke-miterlimit="10"/></g><g transform="translate(-54,-14) scale(1,1)"><path fill="none" stroke="#000000" d="M 758 511 L 484 201" stroke-miterlimit="10"/></g><g transform="translate(-54,-14) scale(1,1)"><path fill="none" stroke="#000000" d="M 493.8844216286483 205.8268218391722 L 484 201 L 487.5762631076662 211.40242001578218" stroke-miterlimit="10"/></g><g transform="translate(-54,-14) scale(1,1)"><path fill="none" stroke="#000000" d="M 986 181 L 1319 184" stroke-miterlimit="10"/></g><g transform="translate(-54,-14) scale(1,1)"><path fill="none" stroke="#000000" d="M 1308.7998154855184 188.11779502531763 L 1319 184 L 1308.8756595745178 179.6991011463944" stroke-miterlimit="10"/></g><g transform="translate(-54,-14) scale(1,1)"><g><path fill="none" stroke="none"/><text fill="#000000" stroke="none" font-family="Arial" font-size="13px" font-style="normal" font-weight="normal" text-decoration="none" x="1064" y="212">Перейти к оформлению заказа?</text></g></g><g transform="translate(-54,-14) scale(1,1)"><path fill="#C0C0C0" stroke="none" d="M 367 103.5 L 383.5 87 L 399 103.5 L 383.5 119 L 367 103.5" opacity="0.2"/></g><g transform="translate(-54,-14) scale(1,1)"><path fill="#ffffff" stroke="none" d="M 360 96 L 376 80 L 392 96 L 376 112 L 360 96"/></g><g transform="translate(-54,-14) scale(1,1)"><path fill="none" stroke="#000000" d="M 360 96 L 376 80 L 392 96 L 376 112 L 360 96 L 360 96" stroke-miterlimit="10"/></g><g transform="translate(-54,-14) scale(1,1)"><path fill="none" stroke="#000000" d="M 371 60 L 373 79" stroke-miterlimit="10"/></g><g transform="translate(-54,-14) scale(1,1)"><path fill="none" stroke="#000000" d="M 367.74973420987527 69.33383689703892 L 373 79 L 376.12251093493006 68.4524919786121" stroke-miterlimit="10"/></g><g transform="translate(-54,-14) scale(1,1)"><path fill="#C0C0C0" stroke="none" d="M 319 511.5 L 359.5 479 L 399 511.5 L 359.5 543 L 319 511.5" opacity="0.2"/></g><g transform="translate(-54,-14) scale(1,1)"><path fill="#ffffff" stroke="none" d="M 312 504 L 352 472 L 392 504 L 352 536 L 312 504"/></g><g transform="translate(-54,-14) scale(1,1)"><path fill="none" stroke="#000000" d="M 312 504 L 352 472 L 392 504 L 352 536 L 312 504 L 312 504" stroke-miterlimit="10"/></g><g transform="translate(-54,-14) scale(1,1)"><path fill="none" stroke="#000000" d="M 349 369 L 351 471" stroke-miterlimit="10"/></g><g transform="translate(-54,-14) scale(1,1)"><path fill="none" stroke="#000000" d="M 346.59206138268905 460.92180188992006 L 351 471 L 355.00947893842437 460.75675448686644" stroke-miterlimit="10"/></g><g transform="translate(-54,-14) scale(1,1)"><g><path fill="none" stroke="none"/><text fill="#000000" stroke="none" font-family="Arial" font-size="13px" font-style="normal" font-weight="normal" text-decoration="none" x="227" y="448">Открыть корзину или продолжить покупки?</text></g></g><g transform="translate(-54,-14) scale(1,1)"><path fill="none" stroke="#000000" d="M 393 504 L 472 504 L 466 201" stroke-miterlimit="10"/></g><g transform="translate(-54,-14) scale(1,1)"><path fill="none" stroke="#000000" d="M 470.40989432664804 211.07734250821105 L 466 201 L 461.99250895879345 211.2440234065844" stroke-miterlimit="10"/></g><g transform="translate(-54,-14) scale(1,1)"><g><path fill="none" stroke="none"/><text fill="#000000" stroke="none" font-family="Arial" font-size="13px" font-style="normal" font-weight="normal" text-decoration="none" x="423" y="533">Открыть корзину</text></g></g><g transform="translate(-54,-14) scale(1,1)"><path fill="none" stroke="#000000" d="M 1350 151 L 1344 40 L 744 43" stroke-miterlimit="10"/></g><g transform="translate(-54,-14) scale(1,1)"><path fill="none" stroke="#000000" d="M 754.14150050088 38.739722122836525 L 744 43 L 754.1835951522604 47.15865239889777" stroke-miterlimit="10"/></g><g transform="translate(-54,-14) scale(1,1)"><g><path fill="none" stroke="none"/><text fill="#000000" stroke="none" font-family="Arial" font-size="13px" font-style="normal" font-weight="normal" text-decoration="none" x="1234" y="69">Нет</text></g></g></g></svg>