<svg version="1.1" xmlns="http://www.w3.org/2000/svg" xmlns:xlink="http://www.w3.org/1999/xlink" width="1228.21875" height="692"><defs/><g><g transform="translate(-54,2) scale(1,1)"><rect fill="#C0C0C0" stroke="none" x="111" y="151" width="176" height="175" opacity="0.2"/></g><g transform="translate(-54,2) scale(1,1)"><rect fill="#ffffff" stroke="none" x="104" y="144" width="176" height="175"/></g><g transform="translate(-54,2) scale(1,1)"><path fill="none" stroke="#000000" d="M 104 144 L 280 144 L 280 319 L 104 319 L 104 144 Z Z" stroke-miterlimit="10"/></g><g transform="translate(-54,2) scale(1,1)"><path fill="none" stroke="#000000" d="M 104 169 L 280 169" stroke-miterlimit="10"/></g><g transform="translate(-54,2) scale(1,1)"><path fill="none" stroke="#000000" d="M 104 282 L 280 282" stroke-miterlimit="10"/></g><g transform="translate(-54,2) scale(1,1)"><g><path fill="none" stroke="none"/><text fill="#000000" stroke="none" font-family="Arial" font-size="13px" font-style="normal" font-weight="bold" text-decoration="none" x="163.09912109375" y="163.5">MenuItem</text></g></g><g transform="translate(-54,2) scale(1,1)"><g><path fill="none" stroke="none"/><text fill="#000000" stroke="none" font-family="Arial" font-size="13px" font-style="normal" font-weight="normal" text-decoration="none" x="109" y="186.5">-id: int</text></g></g><g transform="translate(-54,2) scale(1,1)"><g><path fill="none" stroke="none"/><text fill="#000000" stroke="none" font-family="Arial" font-size="13px" font-style="normal" font-weight="normal" text-decoration="none" x="109" y="201.5">+name: string</text></g></g><g transform="translate(-54,2) scale(1,1)"><g><path fill="none" stroke="none"/><text fill="#000000" stroke="none" font-family="Arial" font-size="13px" font-style="normal" font-weight="normal" text-decoration="none" x="109" y="216.5">+description: string</text></g></g><g transform="translate(-54,2) scale(1,1)"><g><path fill="none" stroke="none"/><text fill="#000000" stroke="none" font-family="Arial" font-size="13px" font-style="normal" font-weight="normal" text-decoration="none" x="109" y="231.5">+imageUrl: string</text></g></g><g transform="translate(-54,2) scale(1,1)"><g><path fill="none" stroke="none"/><text fill="#000000" stroke="none" font-family="Arial" font-size="13px" font-style="normal" font-weight="normal" text-decoration="none" x="109" y="246.5">+price: int</text></g></g><g transform="translate(-54,2) scale(1,1)"><g><path fill="none" stroke="none"/><text fill="#000000" stroke="none" font-family="Arial" font-size="13px" font-style="normal" font-weight="normal" text-decoration="none" x="109" y="261.5">+quantity: int</text></g></g><g transform="translate(-54,2) scale(1,1)"><g><path fill="none" stroke="none"/><text fill="#000000" stroke="none" font-family="Arial" font-size="13px" font-style="normal" font-weight="normal" text-decoration="none" x="109" y="276.5">+category: string</text></g></g><g transform="translate(-54,2) scale(1,1)"><rect fill="#C0C0C0" stroke="none" x="111" y="375" width="192" height="176" opacity="0.2"/></g><g transform="translate(-54,2) scale(1,1)"><rect fill="#ffffff" stroke="none" x="104" y="368" width="192" height="176"/></g><g transform="translate(-54,2) scale(1,1)"><path fill="none" stroke="#000000" d="M 104 368 L 296 368 L 296 544 L 104 544 L 104 368 Z Z" stroke-miterlimit="10"/></g><g transform="translate(-54,2) scale(1,1)"><path fill="none" stroke="#000000" d="M 104 393 L 296 393" stroke-miterlimit="10"/></g><g transform="translate(-54,2) scale(1,1)"><path fill="none" stroke="#000000" d="M 104 446 L 296 446" stroke-miterlimit="10"/></g><g transform="translate(-54,2) scale(1,1)"><g><path fill="none" stroke="none"/><text fill="#000000" stroke="none" font-family="Arial" font-size="13px" font-style="normal" font-weight="bold" text-decoration="none" x="170.74365234375" y="387.5">OrderItem</text></g></g><g transform="translate(-54,2) scale(1,1)"><g><path fill="none" stroke="none"/><text fill="#000000" stroke="none" font-family="Arial" font-size="13px" font-style="normal" font-weight="normal" text-decoration="none" x="109" y="410.5">-id: int</text></g></g><g transform="translate(-54,2) scale(1,1)"><g><path fill="none" stroke="none"/><text fill="#000000" stroke="none" font-family="Arial" font-size="13px" font-style="normal" font-weight="normal" text-decoration="none" x="109" y="425.5">-quantity: int</text></g></g><g transform="translate(-54,2) scale(1,1)"><g><path fill="none" stroke="none"/><text fill="#000000" stroke="none" font-family="Arial" font-size="13px" font-style="normal" font-weight="normal" text-decoration="none" x="109" y="440.5">-menuItem: MenuItem</text></g></g><g transform="translate(-54,2) scale(1,1)"><g><path fill="none" stroke="none"/><text fill="#000000" stroke="none" font-family="Arial" font-size="13px" font-style="normal" font-weight="normal" text-decoration="none" x="109" y="463.5">-CalculateTotal(): int</text></g></g><g transform="translate(-54,2) scale(1,1)"><rect fill="#C0C0C0" stroke="none" x="407" y="375" width="192" height="168" opacity="0.2"/></g><g transform="translate(-54,2) scale(1,1)"><rect fill="#ffffff" stroke="none" x="400" y="368" width="192" height="168"/></g><g transform="translate(-54,2) scale(1,1)"><path fill="none" stroke="#000000" d="M 400 368 L 592 368 L 592 536 L 400 536 L 400 368 Z Z" stroke-miterlimit="10"/></g><g transform="translate(-54,2) scale(1,1)"><path fill="none" stroke="#000000" d="M 400 393 L 592 393" stroke-miterlimit="10"/></g><g transform="translate(-54,2) scale(1,1)"><path fill="none" stroke="#000000" d="M 400 461 L 592 461" stroke-miterlimit="10"/></g><g transform="translate(-54,2) scale(1,1)"><g><path fill="none" stroke="none"/><text fill="#000000" stroke="none" font-family="Arial" font-size="13px" font-style="normal" font-weight="bold" text-decoration="none" x="479.385009765625" y="387.5">Order</text></g></g><g transform="translate(-54,2) scale(1,1)"><g><path fill="none" stroke="none"/><text fill="#000000" stroke="none" font-family="Arial" font-size="13px" font-style="normal" font-weight="normal" text-decoration="none" x="405" y="410.5">-id: int</text></g></g><g transform="translate(-54,2) scale(1,1)"><g><path fill="none" stroke="none"/><text fill="#000000" stroke="none" font-family="Arial" font-size="13px" font-style="normal" font-weight="normal" text-decoration="none" x="405" y="425.5">-name: string</text></g></g><g transform="translate(-54,2) scale(1,1)"><g><path fill="none" stroke="none"/><text fill="#000000" stroke="none" font-family="Arial" font-size="13px" font-style="normal" font-weight="normal" text-decoration="none" x="405" y="440.5">-phone: string</text></g></g><g transform="translate(-54,2) scale(1,1)"><g><path fill="none" stroke="none"/><text fill="#000000" stroke="none" font-family="Arial" font-size="13px" font-style="normal" font-weight="normal" text-decoration="none" x="405" y="455.5">+orderItems: List&lt;OrderItem&gt;</text></g></g><g transform="translate(-54,2) scale(1,1)"><g><path fill="none" stroke="none"/><text fill="#000000" stroke="none" font-family="Arial" font-size="13px" font-style="normal" font-weight="normal" text-decoration="none" x="405" y="478.5">+CalculateTotal(): int</text></g></g><g transform="translate(-54,2) scale(1,1)"><rect fill="#C0C0C0" stroke="none" x="671" y="367" width="200" height="184" opacity="0.2"/></g><g transform="translate(-54,2) scale(1,1)"><rect fill="#ffffff" stroke="none" x="664" y="360" width="200" height="184"/></g><g transform="translate(-54,2) scale(1,1)"><path fill="none" stroke="#000000" d="M 664 360 L 864 360 L 864 544 L 664 544 L 664 360 Z Z" stroke-miterlimit="10"/></g><g transform="translate(-54,2) scale(1,1)"><path fill="none" stroke="#000000" d="M 664 385 L 864 385" stroke-miterlimit="10"/></g><g transform="translate(-54,2) scale(1,1)"><path fill="none" stroke="#000000" d="M 664 395 L 864 395" stroke-miterlimit="10"/></g><g transform="translate(-54,2) scale(1,1)"><g><path fill="none" stroke="none"/><text fill="#000000" stroke="none" font-family="Arial" font-size="13px" font-style="normal" font-weight="bold" text-decoration="none" x="725.7109375" y="379.5">OrderService</text></g></g><g transform="translate(-54,2) scale(1,1)"><g><path fill="none" stroke="none"/><text fill="#000000" stroke="none" font-family="Arial" font-size="13px" font-style="normal" font-weight="normal" text-decoration="none" x="669" y="412.5">+validateOrder()</text></g></g><g transform="translate(-54,2) scale(1,1)"><g><path fill="none" stroke="none"/><text fill="#000000" stroke="none" font-family="Arial" font-size="13px" font-style="normal" font-weight="normal" text-decoration="none" x="669" y="427.5">+saveOrder_to_db()</text></g></g><g transform="translate(-54,2) scale(1,1)"><g><path fill="none" stroke="none"/><text fill="#000000" stroke="none" font-family="Arial" font-size="13px" font-style="normal" font-weight="normal" text-decoration="none" x="669" y="442.5">+create()</text></g></g><g transform="translate(-54,2) scale(1,1)"><g><path fill="none" stroke="none"/><text fill="#000000" stroke="none" font-family="Arial" font-size="13px" font-style="normal" font-weight="normal" text-decoration="none" x="669" y="457.5">+processPayment()</text></g></g><g transform="translate(-54,2) scale(1,1)"><rect fill="#C0C0C0" stroke="none" x="415" y="583" width="176" height="104" opacity="0.2"/></g><g transform="translate(-54,2) scale(1,1)"><rect fill="#ffffff" stroke="none" x="408" y="576" width="176" height="104"/></g><g transform="translate(-54,2) scale(1,1)"><path fill="none" stroke="#000000" d="M 408 576 L 584 576 L 584 680 L 408 680 L 408 576 Z Z" stroke-miterlimit="10"/></g><g transform="translate(-54,2) scale(1,1)"><path fill="none" stroke="#000000" d="M 408 601 L 584 601" stroke-miterlimit="10"/></g><g transform="translate(-54,2) scale(1,1)"><path fill="none" stroke="#000000" d="M 408 611 L 584 611" stroke-miterlimit="10"/></g><g transform="translate(-54,2) scale(1,1)"><g><path fill="none" stroke="none"/><text fill="#000000" stroke="none" font-family="Arial" font-size="13px" font-style="normal" font-weight="bold" text-decoration="none" x="451.207763671875" y="595.5">OrderController</text></g></g><g transform="translate(-54,2) scale(1,1)"><g><path fill="none" stroke="none"/><text fill="#000000" stroke="none" font-family="Arial" font-size="13px" font-style="normal" font-weight="normal" text-decoration="none" x="413" y="628.5">+createOrder()</text></g></g><g transform="translate(-54,2) scale(1,1)"><path fill="none" stroke="#000000" d="M 195 320 L 197 367" stroke-miterlimit="10"/></g><g transform="translate(-54,2) scale(1,1)"><g><path fill="none" stroke="none"/><text fill="#000000" stroke="none" font-family="Arial" font-size="13px" font-style="normal" font-weight="normal" text-decoration="none" x="179" y="341">1</text></g></g><g transform="translate(-54,2) scale(1,1)"><g><path fill="none" stroke="none"/><text fill="#000000" stroke="none" font-family="Arial" font-size="13px" font-style="normal" font-weight="normal" text-decoration="none" x="181" y="357">*</text></g></g><g transform="translate(-54,2) scale(1,1)"><path fill="none" stroke="#000000" d="M 297 455 L 399 453" stroke-miterlimit="10"/></g><g transform="translate(-54,2) scale(1,1)"><path fill="#000000" stroke="none" d="M 388.92180188992006 457.4079386173109 L 399 453 L 388.75675448686644 448.99052106157563 L 377.00422792355204 453.4312896485578"/></g><g transform="translate(-54,2) scale(1,1)"><path fill="none" stroke="#000000" d="M 388.92180188992006 457.4079386173109 L 399 453 L 388.75675448686644 448.99052106157563 L 377.00422792355204 453.4312896485578 L 388.92180188992006 457.4079386173109" stroke-miterlimit="10"/></g><g transform="translate(-54,2) scale(1,1)"><g><path fill="none" stroke="none"/><text fill="#000000" stroke="none" font-family="Arial" font-size="13px" font-style="normal" font-weight="normal" text-decoration="none" x="316" y="474">*</text></g></g><g transform="translate(-54,2) scale(1,1)"><g><path fill="none" stroke="none"/><text fill="#000000" stroke="none" font-family="Arial" font-size="13px" font-style="normal" font-weight="normal" text-decoration="none" x="374" y="472">1</text></g></g><g transform="translate(-54,2) scale(1,1)"><path fill="none" stroke="#000000" d="M 585 627 L 768 624 L 766 545" stroke-miterlimit="10" stroke-dasharray="3"/></g><g transform="translate(-54,2) scale(1,1)"><path fill="none" stroke="#000000" d="M 770.465369914035 555.0528837420329 L 766 545 L 762.0490310822491 555.2659556111921" stroke-miterlimit="10"/></g><g transform="translate(-54,2) scale(1,1)"><path fill="none" stroke="#000000" d="M 663 452 L 593 452" stroke-miterlimit="10" stroke-dasharray="3"/></g><g transform="translate(-54,2) scale(1,1)"><path fill="none" stroke="#000000" d="M 603.1626748576241 447.790482243984 L 593 452 L 603.1626748576241 456.209517756016" stroke-miterlimit="10"/></g><g transform="translate(-54,2) scale(1,1)"><rect fill="#C0C0C0" stroke="none" x="463" y="159" width="144" height="152" opacity="0.2"/></g><g transform="translate(-54,2) scale(1,1)"><rect fill="#ffffff" stroke="none" x="456" y="152" width="144" height="152"/></g><g transform="translate(-54,2) scale(1,1)"><path fill="none" stroke="#000000" d="M 456 152 L 600 152 L 600 304 L 456 304 L 456 152 Z Z" stroke-miterlimit="10"/></g><g transform="translate(-54,2) scale(1,1)"><path fill="none" stroke="#000000" d="M 456 177 L 600 177" stroke-miterlimit="10"/></g><g transform="translate(-54,2) scale(1,1)"><path fill="none" stroke="#000000" d="M 456 230 L 600 230" stroke-miterlimit="10"/></g><g transform="translate(-54,2) scale(1,1)"><g><path fill="none" stroke="none"/><text fill="#000000" stroke="none" font-family="Arial" font-size="13px" font-style="normal" font-weight="bold" text-decoration="none" x="503.0791015625" y="171.5">CartItem</text></g></g><g transform="translate(-54,2) scale(1,1)"><g><path fill="none" stroke="none"/><text fill="#000000" stroke="none" font-family="Arial" font-size="13px" font-style="normal" font-weight="normal" text-decoration="none" x="461" y="194.5">-id: int</text></g></g><g transform="translate(-54,2) scale(1,1)"><g><path fill="none" stroke="none"/><text fill="#000000" stroke="none" font-family="Arial" font-size="13px" font-style="normal" font-weight="normal" text-decoration="none" x="461" y="209.5">+quantity</text></g></g><g transform="translate(-54,2) scale(1,1)"><g><path fill="none" stroke="none"/><text fill="#000000" stroke="none" font-family="Arial" font-size="13px" font-style="normal" font-weight="normal" text-decoration="none" x="461" y="224.5">+menuitem: MenuItem</text></g></g><g transform="translate(-54,2) scale(1,1)"><rect fill="#C0C0C0" stroke="none" x="727" y="167" width="163.01953125" height="128" opacity="0.2"/></g><g transform="translate(-54,2) scale(1,1)"><rect fill="#ffffff" stroke="none" x="720" y="160" width="163.01953125" height="128"/></g><g transform="translate(-54,2) scale(1,1)"><path fill="none" stroke="#000000" d="M 720 160 L 883.01953125 160 L 883.01953125 288 L 720 288 L 720 160 Z Z" stroke-miterlimit="10"/></g><g transform="translate(-54,2) scale(1,1)"><path fill="none" stroke="#000000" d="M 720 185 L 883.01953125 185" stroke-miterlimit="10"/></g><g transform="translate(-54,2) scale(1,1)"><path fill="none" stroke="#000000" d="M 720 238 L 883.01953125 238" stroke-miterlimit="10"/></g><g transform="translate(-54,2) scale(1,1)"><g><path fill="none" stroke="none"/><text fill="#000000" stroke="none" font-family="Arial" font-size="13px" font-style="normal" font-weight="bold" text-decoration="none" x="789.230224609375" y="179.5">Cart</text></g></g><g transform="translate(-54,2) scale(1,1)"><g><path fill="none" stroke="none"/><text fill="#000000" stroke="none" font-family="Arial" font-size="13px" font-style="normal" font-weight="normal" text-decoration="none" x="725" y="202.5">-id: int</text></g></g><g transform="translate(-54,2) scale(1,1)"><g><path fill="none" stroke="none"/><text fill="#000000" stroke="none" font-family="Arial" font-size="13px" font-style="normal" font-weight="normal" text-decoration="none" x="725" y="217.5">-user_id</text></g></g><g transform="translate(-54,2) scale(1,1)"><g><path fill="none" stroke="none"/><text fill="#000000" stroke="none" font-family="Arial" font-size="13px" font-style="normal" font-weight="normal" text-decoration="none" x="725" y="232.5">+cartItems: List&lt;CartItem&gt;</text></g></g><g transform="translate(-54,2) scale(1,1)"><rect fill="#C0C0C0" stroke="none" x="983" y="167" width="296.21875" height="120" opacity="0.2"/></g><g transform="translate(-54,2) scale(1,1)"><rect fill="#ffffff" stroke="none" x="976" y="160" width="296.21875" height="120"/></g><g transform="translate(-54,2) scale(1,1)"><path fill="none" stroke="#000000" d="M 976 160 L 1272.21875 160 L 1272.21875 280 L 976 280 L 976 160 Z Z" stroke-miterlimit="10"/></g><g transform="translate(-54,2) scale(1,1)"><path fill="none" stroke="#000000" d="M 976 185 L 1272.21875 185" stroke-miterlimit="10"/></g><g transform="translate(-54,2) scale(1,1)"><path fill="none" stroke="#000000" d="M 976 195 L 1272.21875 195" stroke-miterlimit="10"/></g><g transform="translate(-54,2) scale(1,1)"><g><path fill="none" stroke="none"/><text fill="#000000" stroke="none" font-family="Arial" font-size="13px" font-style="normal" font-weight="bold" text-decoration="none" x="1090.15576171875" y="179.5">CartService</text></g></g><g transform="translate(-54,2) scale(1,1)"><g><path fill="none" stroke="none"/><text fill="#000000" stroke="none" font-family="Arial" font-size="13px" font-style="normal" font-weight="normal" text-decoration="none" x="981" y="212.5">-addItem()</text></g></g><g transform="translate(-54,2) scale(1,1)"><g><path fill="none" stroke="none"/><text fill="#000000" stroke="none" font-family="Arial" font-size="13px" font-style="normal" font-weight="normal" text-decoration="none" x="981" y="227.5">-removeItem()</text></g></g><g transform="translate(-54,2) scale(1,1)"><g><path fill="none" stroke="none"/><text fill="#000000" stroke="none" font-family="Arial" font-size="13px" font-style="normal" font-weight="normal" text-decoration="none" x="981" y="242.5">-changequantity()</text></g></g><g transform="translate(-54,2) scale(1,1)"><g><path fill="none" stroke="none"/><text fill="#000000" stroke="none" font-family="Arial" font-size="13px" font-style="normal" font-weight="normal" text-decoration="none" x="981" y="257.5">-clearCart()</text></g></g><g transform="translate(-54,2) scale(1,1)"><rect fill="#C0C0C0" stroke="none" x="999" y="359" width="272" height="136" opacity="0.2"/></g><g transform="translate(-54,2) scale(1,1)"><rect fill="#ffffff" stroke="none" x="992" y="352" width="272" height="136"/></g><g transform="translate(-54,2) scale(1,1)"><path fill="none" stroke="#000000" d="M 992 352 L 1264 352 L 1264 488 L 992 488 L 992 352 Z Z" stroke-miterlimit="10"/></g><g transform="translate(-54,2) scale(1,1)"><path fill="none" stroke="#000000" d="M 992 377 L 1264 377" stroke-miterlimit="10"/></g><g transform="translate(-54,2) scale(1,1)"><path fill="none" stroke="#000000" d="M 992 387 L 1264 387" stroke-miterlimit="10"/></g><g transform="translate(-54,2) scale(1,1)"><g><path fill="none" stroke="none"/><text fill="#000000" stroke="none" font-family="Arial" font-size="13px" font-style="normal" font-weight="bold" text-decoration="none" x="1087.543212890625" y="371.5">CartController</text></g></g><g transform="translate(-54,2) scale(1,1)"><g><path fill="none" stroke="none"/><text fill="#000000" stroke="none" font-family="Arial" font-size="13px" font-style="normal" font-weight="normal" text-decoration="none" x="997" y="404.5">+createCart()</text></g></g><g transform="translate(-54,2) scale(1,1)"><g><path fill="none" stroke="none"/><text fill="#000000" stroke="none" font-family="Arial" font-size="13px" font-style="normal" font-weight="normal" text-decoration="none" x="997" y="419.5">+addItemToCart()</text></g></g><g transform="translate(-54,2) scale(1,1)"><path fill="none" stroke="#000000" d="M 1127 351 L 1125 281" stroke-miterlimit="10" stroke-dasharray="3"/></g><g transform="translate(-54,2) scale(1,1)"><path fill="none" stroke="#000000" d="M 1129.498044332871 291.03830648961906 L 1125 281 L 1121.0824430594123 291.2787522402893" stroke-miterlimit="10"/></g><g transform="translate(-54,2) scale(1,1)"><path fill="none" stroke="#000000" d="M 975 222 L 884 223" stroke-miterlimit="10" stroke-dasharray="3"/></g><g transform="translate(-54,2) scale(1,1)"><path fill="none" stroke="#000000" d="M 894.1158056551199 218.67906538491434 L 884 223 L 894.2083169432913 227.0975926085097" stroke-miterlimit="10"/></g><g transform="translate(-54,2) scale(1,1)"><path fill="none" stroke="#000000" d="M 601 227 L 719 225" stroke-miterlimit="10"/></g><g transform="translate(-54,2) scale(1,1)"><path fill="#000000" stroke="none" d="M 708.910122075527 229.38113723469542 L 719 225 L 708.7674470502988 220.9633107462228 L 697.0031593308125 225.37282780795235"/></g><g transform="translate(-54,2) scale(1,1)"><path fill="none" stroke="#000000" d="M 708.910122075527 229.38113723469542 L 719 225 L 708.7674470502988 220.9633107462228 L 697.0031593308125 225.37282780795235 L 708.910122075527 229.38113723469542" stroke-miterlimit="10"/></g><g transform="translate(-54,2) scale(1,1)"><g><path fill="none" stroke="none"/><text fill="#000000" stroke="none" font-family="Arial" font-size="13px" font-style="normal" font-weight="normal" text-decoration="none" x="620" y="246">*</text></g></g><g transform="translate(-54,2) scale(1,1)"><g><path fill="none" stroke="none"/><text fill="#000000" stroke="none" font-family="Arial" font-size="13px" font-style="normal" font-weight="normal" text-decoration="none" x="694" y="244">1</text></g></g><g transform="translate(-54,2) scale(1,1)"><path fill="none" stroke="#000000" d="M 281 230 L 455 229" stroke-miterlimit="10"/></g><g transform="translate(-54,2) scale(1,1)"><g><path fill="none" stroke="none"/><text fill="#000000" stroke="none" font-family="Arial" font-size="13px" font-style="normal" font-weight="normal" text-decoration="none" x="299" y="249">1</text></g></g><g transform="translate(-54,2) scale(1,1)"><g><path fill="none" stroke="none"/><text fill="#000000" stroke="none" font-family="Arial" font-size="13px" font-style="normal" font-weight="normal" text-decoration="none" x="431" y="248">*</text></g></g><g transform="translate(-54,2) scale(1,1)"><rect fill="#C0C0C0" stroke="none" x="735" y="15" width="144" height="96" opacity="0.2"/></g><g transform="translate(-54,2) scale(1,1)"><rect fill="#ffffff" stroke="none" x="728" y="8" width="144" height="96"/></g><g transform="translate(-54,2) scale(1,1)"><path fill="none" stroke="#000000" d="M 728 8 L 872 8 L 872 104 L 728 104 L 728 8 Z Z" stroke-miterlimit="10"/></g><g transform="translate(-54,2) scale(1,1)"><path fill="none" stroke="#000000" d="M 728 33 L 872 33" stroke-miterlimit="10"/></g><g transform="translate(-54,2) scale(1,1)"><path fill="none" stroke="#000000" d="M 728 71 L 872 71" stroke-miterlimit="10"/></g><g transform="translate(-54,2) scale(1,1)"><g><path fill="none" stroke="none"/><text fill="#000000" stroke="none" font-family="Arial" font-size="13px" font-style="normal" font-weight="bold" text-decoration="none" x="786.2763671875" y="27.5">User</text></g></g><g transform="translate(-54,2) scale(1,1)"><g><path fill="none" stroke="none"/><text fill="#000000" stroke="none" font-family="Arial" font-size="13px" font-style="normal" font-weight="normal" text-decoration="none" x="733" y="50.5">-id</text></g></g><g transform="translate(-54,2) scale(1,1)"><g><path fill="none" stroke="none"/><text fill="#000000" stroke="none" font-family="Arial" font-size="13px" font-style="normal" font-weight="normal" text-decoration="none" x="733" y="65.5">-session_id</text></g></g><g transform="translate(-54,2) scale(1,1)"><path fill="none" stroke="#000000" d="M 800 105 L 801 159" stroke-miterlimit="10"/></g><g transform="translate(-54,2) scale(1,1)"><g><path fill="none" stroke="none"/><text fill="#000000" stroke="none" font-family="Arial" font-size="13px" font-style="normal" font-weight="normal" text-decoration="none" x="784" y="125">1</text></g></g><g transform="translate(-54,2) scale(1,1)"><g><path fill="none" stroke="none"/><text fill="#000000" stroke="none" font-family="Arial" font-size="13px" font-style="normal" font-weight="normal" text-decoration="none" x="784" y="157">1</text></g></g><g transform="translate(-54,2) scale(1,1)"><rect fill="#C0C0C0" stroke="none" x="359" y="31" width="334.5078125" height="96" opacity="0.2"/></g><g transform="translate(-54,2) scale(1,1)"><rect fill="#ffffff" stroke="none" x="352" y="24" width="334.5078125" height="96"/></g><g transform="translate(-54,2) scale(1,1)"><path fill="none" stroke="#000000" d="M 352 24 L 686.5078125 24 L 686.5078125 120 L 352 120 L 352 24 Z Z" stroke-miterlimit="10"/></g><g transform="translate(-54,2) scale(1,1)"><path fill="none" stroke="#000000" d="M 352 49 L 686.5078125 49" stroke-miterlimit="10"/></g><g transform="translate(-54,2) scale(1,1)"><path fill="none" stroke="#000000" d="M 352 59 L 686.5078125 59" stroke-miterlimit="10"/></g><g transform="translate(-54,2) scale(1,1)"><g><path fill="none" stroke="none"/><text fill="#000000" stroke="none" font-family="Arial" font-size="13px" font-style="normal" font-weight="bold" text-decoration="none" x="474.817138671875" y="43.5">MenuController</text></g></g><g transform="translate(-54,2) scale(1,1)"><g><path fill="none" stroke="none"/><text fill="#000000" stroke="none" font-family="Arial" font-size="13px" font-style="normal" font-weight="normal" text-decoration="none" x="357" y="76.5">+getMenu(): List&lt;MenuItem&gt;</text></g></g><g transform="translate(-54,2) scale(1,1)"><g><path fill="none" stroke="none"/><text fill="#000000" stroke="none" font-family="Arial" font-size="13px" font-style="normal" font-weight="normal" text-decoration="none" x="357" y="91.5">+getItemsByCategory(category: String): List&lt;MenuItem&gt;</text></g></g><g transform="translate(-54,2) scale(1,1)"><g><path fill="none" stroke="none"/><text fill="#000000" stroke="none" font-family="Arial" font-size="13px" font-style="normal" font-weight="normal" text-decoration="none" x="357" y="106.5">+getItemDetails(item_id: int): MenuItem</text></g></g><g transform="translate(-54,2) scale(1,1)"><rect fill="#C0C0C0" stroke="none" x="71" y="31" width="242.96826171875" height="87" opacity="0.2"/></g><g transform="translate(-54,2) scale(1,1)"><rect fill="#ffffff" stroke="none" x="64" y="24" width="242.96826171875" height="87"/></g><g transform="translate(-54,2) scale(1,1)"><path fill="none" stroke="#000000" d="M 64 24 L 306.96826171875 24 L 306.96826171875 111 L 64 111 L 64 24 Z Z" stroke-miterlimit="10"/></g><g transform="translate(-54,2) scale(1,1)"><path fill="none" stroke="#000000" d="M 64 49 L 306.96826171875 49" stroke-miterlimit="10"/></g><g transform="translate(-54,2) scale(1,1)"><path fill="none" stroke="#000000" d="M 64 59 L 306.96826171875 59" stroke-miterlimit="10"/></g><g transform="translate(-54,2) scale(1,1)"><g><path fill="none" stroke="none"/><text fill="#000000" stroke="none" font-family="Arial" font-size="13px" font-style="normal" font-weight="bold" text-decoration="none" x="147.550537109375" y="43.5">MenuService</text></g></g><g transform="translate(-54,2) scale(1,1)"><g><path fill="none" stroke="none"/><text fill="#000000" stroke="none" font-family="Arial" font-size="13px" font-style="normal" font-weight="normal" text-decoration="none" x="69" y="76.5">+getAllAvailableItems(): List&lt;MenuItem&gt;</text></g></g><g transform="translate(-54,2) scale(1,1)"><g><path fill="none" stroke="none"/><text fill="#000000" stroke="none" font-family="Arial" font-size="13px" font-style="normal" font-weight="normal" text-decoration="none" x="69" y="91.5">+getItem()</text></g></g><g transform="translate(-54,2) scale(1,1)"><path fill="none" stroke="#000000" d="M 351 69 L 308 69" stroke-miterlimit="10" stroke-dasharray="3"/></g><g transform="translate(-54,2) scale(1,1)"><path fill="none" stroke="#000000" d="M 318.16267485762415 64.79048224398402 L 308 69 L 318.16267485762415 73.20951775601598" stroke-miterlimit="10"/></g><g transform="translate(-54,2) scale(1,1)"><path fill="none" stroke="#000000" d="M 187 112 L 188 143" stroke-miterlimit="10" stroke-dasharray="3"/></g><g transform="translate(-54,2) scale(1,1)"><path fill="none" stroke="#000000" d="M 183.46501292387973 132.97832887092068 L 188 143 L 191.87967150007543 132.70688827168857" stroke-miterlimit="10"/></g></g></svg>