<svg version="1.1" xmlns="http://www.w3.org/2000/svg" xmlns:xlink="http://www.w3.org/1999/xlink" width="660" height="412"><defs/><g><g transform="translate(-662,-70) scale(1,1)"><path fill="#C0C0C0" stroke="none" d="M 679 97 L 948 97 L 948 270 L 679 270" opacity="0.2"/></g><g transform="translate(-662,-70) scale(1,1)"><path fill="#C0C0C0" stroke="none" d="M 679 97 L 689 87 L 958 87 L 948 97" opacity="0.2"/></g><g transform="translate(-662,-70) scale(1,1)"><path fill="#C0C0C0" stroke="none" d="M 958 87 L 948 97 L 948 270 L 958 260" opacity="0.2"/></g><g transform="translate(-662,-70) scale(1,1)"><path fill="#ffffff" stroke="none" d="M 672 90 L 941 90 L 941 263 L 672 263"/></g><g transform="translate(-662,-70) scale(1,1)"><path fill="#ffffff" stroke="none" d="M 672 90 L 682 80 L 951 80 L 941 90"/></g><g transform="translate(-662,-70) scale(1,1)"><path fill="#ffffff" stroke="none" d="M 951 80 L 941 90 L 941 263 L 951 253"/></g><g transform="translate(-662,-70) scale(1,1)"><path fill="none" stroke="#000000" d="M 672 90 L 941 90 L 941 263 L 672 263 L 672 90" stroke-miterlimit="10"/></g><g transform="translate(-662,-70) scale(1,1)"><path fill="none" stroke="#000000" d="M 672 90 L 682 80 L 951 80 L 941 90 L 672 90" stroke-miterlimit="10"/></g><g transform="translate(-662,-70) scale(1,1)"><path fill="none" stroke="#000000" d="M 951 80 L 941 90 L 941 263 L 951 253 L 951 80" stroke-miterlimit="10"/></g><g transform="translate(-662,-70) scale(1,1)"><g><path fill="none" stroke="none"/><text fill="#000000" stroke="none" font-family="Arial" font-size="13px" font-style="normal" font-weight="bold" text-decoration="none" x="772.681396484375" y="109.5">User device</text></g></g><g transform="translate(-662,-70) scale(1,1)"><path fill="#C0C0C0" stroke="none" d="M 1031 121 L 1308 121 L 1308 254 L 1031 254" opacity="0.2"/></g><g transform="translate(-662,-70) scale(1,1)"><path fill="#C0C0C0" stroke="none" d="M 1031 121 L 1041 111 L 1318 111 L 1308 121" opacity="0.2"/></g><g transform="translate(-662,-70) scale(1,1)"><path fill="#C0C0C0" stroke="none" d="M 1318 111 L 1308 121 L 1308 254 L 1318 244" opacity="0.2"/></g><g transform="translate(-662,-70) scale(1,1)"><path fill="#ffffff" stroke="none" d="M 1024 114 L 1301 114 L 1301 247 L 1024 247"/></g><g transform="translate(-662,-70) scale(1,1)"><path fill="#ffffff" stroke="none" d="M 1024 114 L 1034 104 L 1311 104 L 1301 114"/></g><g transform="translate(-662,-70) scale(1,1)"><path fill="#ffffff" stroke="none" d="M 1311 104 L 1301 114 L 1301 247 L 1311 237"/></g><g transform="translate(-662,-70) scale(1,1)"><path fill="none" stroke="#000000" d="M 1024 114 L 1301 114 L 1301 247 L 1024 247 L 1024 114" stroke-miterlimit="10"/></g><g transform="translate(-662,-70) scale(1,1)"><path fill="none" stroke="#000000" d="M 1024 114 L 1034 104 L 1311 104 L 1301 114 L 1024 114" stroke-miterlimit="10"/></g><g transform="translate(-662,-70) scale(1,1)"><path fill="none" stroke="#000000" d="M 1311 104 L 1301 114 L 1301 247 L 1311 237 L 1311 104" stroke-miterlimit="10"/></g><g transform="translate(-662,-70) scale(1,1)"><g><path fill="none" stroke="none"/><text fill="#000000" stroke="none" font-family="Arial" font-size="13px" font-style="normal" font-weight="bold" text-decoration="none" x="1110.2509765625" y="133.5">Application Server</text></g></g><g transform="translate(-662,-70) scale(1,1)"><path fill="#C0C0C0" stroke="none" d="M 1071 313 L 1292 313 L 1292 478 L 1071 478" opacity="0.2"/></g><g transform="translate(-662,-70) scale(1,1)"><path fill="#C0C0C0" stroke="none" d="M 1071 313 L 1081 303 L 1302 303 L 1292 313" opacity="0.2"/></g><g transform="translate(-662,-70) scale(1,1)"><path fill="#C0C0C0" stroke="none" d="M 1302 303 L 1292 313 L 1292 478 L 1302 468" opacity="0.2"/></g><g transform="translate(-662,-70) scale(1,1)"><path fill="#ffffff" stroke="none" d="M 1064 306 L 1285 306 L 1285 471 L 1064 471"/></g><g transform="translate(-662,-70) scale(1,1)"><path fill="#ffffff" stroke="none" d="M 1064 306 L 1074 296 L 1295 296 L 1285 306"/></g><g transform="translate(-662,-70) scale(1,1)"><path fill="#ffffff" stroke="none" d="M 1295 296 L 1285 306 L 1285 471 L 1295 461"/></g><g transform="translate(-662,-70) scale(1,1)"><path fill="none" stroke="#000000" d="M 1064 306 L 1285 306 L 1285 471 L 1064 471 L 1064 306" stroke-miterlimit="10"/></g><g transform="translate(-662,-70) scale(1,1)"><path fill="none" stroke="#000000" d="M 1064 306 L 1074 296 L 1295 296 L 1285 306 L 1064 306" stroke-miterlimit="10"/></g><g transform="translate(-662,-70) scale(1,1)"><path fill="none" stroke="#000000" d="M 1295 296 L 1285 306 L 1285 471 L 1295 461 L 1295 296" stroke-miterlimit="10"/></g><g transform="translate(-662,-70) scale(1,1)"><g><path fill="none" stroke="none"/><text fill="#000000" stroke="none" font-family="Arial" font-size="13px" font-style="normal" font-weight="bold" text-decoration="none" x="1147.175048828125" y="325.5">Database</text></g></g><g transform="translate(-662,-70) scale(1,1)"><path fill="#C0C0C0" stroke="none" d="M 1194.2681640625 167 L 1221.7081640625001 167 L 1233.4681640625001 178.76000000000002 L 1233.4681640625001 216 L 1194.2681640625 216" opacity="0.2"/></g><g transform="translate(-662,-70) scale(1,1)"><path fill="#ffffff" stroke="none" d="M 1187.2681640625 160 L 1214.7081640625 160 L 1226.4681640625 171.75999999999993 L 1226.4681640625 209 L 1187.2681640625 209"/></g><g transform="translate(-662,-70) scale(1,1)"><path fill="none" stroke="#000000" d="M 1187.2681640625 160 L 1214.7081640625 160 L 1226.4681640625 171.75999999999993 L 1226.4681640625 209 L 1187.2681640625 209 L 1187.2681640625 160" stroke-miterlimit="10"/></g><g transform="translate(-662,-70) scale(1,1)"><path fill="none" stroke="#000000" d="M 1214.7081640625 160 L 1214.7081640625 171.75999999999993 L 1226.4681640625 171.75999999999993 L 1214.7081640625 160" stroke-miterlimit="10"/></g><g transform="translate(-662,-70) scale(1,1)"><g><path fill="none" stroke="none"/><text fill="#000000" stroke="none" font-family="Arial" font-size="13px" font-style="normal" font-weight="bold" text-decoration="none" x="1184.838623046875" y="228.5">script.js</text></g></g><g transform="translate(-662,-70) scale(1,1)"><rect fill="#C0C0C0" stroke="none" x="1065" y="175" width="98.44091796875" height="44" opacity="0.2"/></g><g transform="translate(-662,-70) scale(1,1)"><rect fill="#ffffff" stroke="none" x="1058" y="168" width="98.44091796875" height="44"/></g><g transform="translate(-662,-70) scale(1,1)"><path fill="none" stroke="#000000" d="M 1058 168 L 1156.44091796875 168 L 1156.44091796875 212 L 1058 212 L 1058 168 Z Z" stroke-miterlimit="10"/></g><g transform="translate(-662,-70) scale(1,1)"><rect fill="#ffffff" stroke="none" x="1048" y="175" width="20" height="10"/></g><g transform="translate(-662,-70) scale(1,1)"><path fill="none" stroke="#000000" d="M 1048 175 L 1068 175 L 1068 185 L 1048 185 L 1048 175 Z Z" stroke-miterlimit="10"/></g><g transform="translate(-662,-70) scale(1,1)"><rect fill="#ffffff" stroke="none" x="1048" y="195" width="20" height="10"/></g><g transform="translate(-662,-70) scale(1,1)"><path fill="none" stroke="#000000" d="M 1048 195 L 1068 195 L 1068 205 L 1048 205 L 1048 195 Z Z" stroke-miterlimit="10"/></g><g transform="translate(-662,-70) scale(1,1)"><g><path fill="none" stroke="none"/><text fill="#000000" stroke="none" font-family="Arial" font-size="13px" font-style="normal" font-weight="bold" text-decoration="none" x="1084.043212890625" y="187.5">Controller</text></g></g><g transform="translate(-662,-70) scale(1,1)"><path fill="#C0C0C0" stroke="none" d="M 711 145 L 892 145 L 892 254 L 711 254" opacity="0.2"/></g><g transform="translate(-662,-70) scale(1,1)"><path fill="#C0C0C0" stroke="none" d="M 711 145 L 721 135 L 902 135 L 892 145" opacity="0.2"/></g><g transform="translate(-662,-70) scale(1,1)"><path fill="#C0C0C0" stroke="none" d="M 902 135 L 892 145 L 892 254 L 902 244" opacity="0.2"/></g><g transform="translate(-662,-70) scale(1,1)"><path fill="#ffffff" stroke="none" d="M 704 138 L 885 138 L 885 247 L 704 247"/></g><g transform="translate(-662,-70) scale(1,1)"><path fill="#ffffff" stroke="none" d="M 704 138 L 714 128 L 895 128 L 885 138"/></g><g transform="translate(-662,-70) scale(1,1)"><path fill="#ffffff" stroke="none" d="M 895 128 L 885 138 L 885 247 L 895 237"/></g><g transform="translate(-662,-70) scale(1,1)"><path fill="none" stroke="#000000" d="M 704 138 L 885 138 L 885 247 L 704 247 L 704 138" stroke-miterlimit="10"/></g><g transform="translate(-662,-70) scale(1,1)"><path fill="none" stroke="#000000" d="M 704 138 L 714 128 L 895 128 L 885 138 L 704 138" stroke-miterlimit="10"/></g><g transform="translate(-662,-70) scale(1,1)"><path fill="none" stroke="#000000" d="M 895 128 L 885 138 L 885 247 L 895 237 L 895 128" stroke-miterlimit="10"/></g><g transform="translate(-662,-70) scale(1,1)"><g><path fill="none" stroke="none"/><text fill="#000000" stroke="none" font-family="Arial" font-size="13px" font-style="normal" font-weight="bold" text-decoration="none" x="719.84375" y="157.5">«executionEnvironment» :</text><text fill="#000000" stroke="none" font-family="Arial" font-size="13px" font-style="normal" font-weight="bold" text-decoration="none" x="755.990478515625" y="170.5">Web Browser</text></g></g><g transform="translate(-662,-70) scale(1,1)"><path fill="none" stroke="#000000" d="M 953 174 L 1023 174" stroke-miterlimit="10" stroke-dasharray="3"/></g><g transform="translate(-662,-70) scale(1,1)"><path fill="none" stroke="#000000" d="M 1172 249 L 1175 295" stroke-miterlimit="10" stroke-dasharray="3"/></g><g transform="translate(-662,-70) scale(1,1)"><g><path fill="none" stroke="none"/><text fill="#000000" stroke="none" font-family="Arial" font-size="13px" font-style="normal" font-weight="normal" text-decoration="none" x="973" y="170">HTTP</text></g></g><g transform="translate(-662,-70) scale(1,1)"><g><path fill="none" stroke="none"/><text fill="#000000" stroke="none" font-family="Arial" font-size="13px" font-style="normal" font-weight="normal" text-decoration="none" x="1189" y="282">SQL</text></g></g><g transform="translate(-662,-70) scale(1,1)"><path fill="#C0C0C0" stroke="none" d="M 784.403173828125 183 L 811.843173828125 183 L 823.603173828125 194.76000000000002 L 823.603173828125 232 L 784.403173828125 232" opacity="0.2"/></g><g transform="translate(-662,-70) scale(1,1)"><path fill="#ffffff" stroke="none" d="M 777.403173828125 176 L 804.843173828125 176 L 816.603173828125 187.76000000000002 L 816.603173828125 225 L 777.403173828125 225"/></g><g transform="translate(-662,-70) scale(1,1)"><path fill="none" stroke="#000000" d="M 777.403173828125 176 L 804.843173828125 176 L 816.603173828125 187.76000000000002 L 816.603173828125 225 L 777.403173828125 225 L 777.403173828125 176" stroke-miterlimit="10"/></g><g transform="translate(-662,-70) scale(1,1)"><path fill="none" stroke="#000000" d="M 804.843173828125 176 L 804.843173828125 187.76000000000002 L 816.603173828125 187.76000000000002 L 804.843173828125 176" stroke-miterlimit="10"/></g><g transform="translate(-662,-70) scale(1,1)"><g><path fill="none" stroke="none"/><text fill="#000000" stroke="none" font-family="Arial" font-size="13px" font-style="normal" font-weight="bold" text-decoration="none" x="767.378662109375" y="244.5">index.html</text></g></g><g transform="translate(-662,-70) scale(1,1)"><path fill="#C0C0C0" stroke="none" d="M 1079 353 L 1268 353 L 1268 462 L 1079 462" opacity="0.2"/></g><g transform="translate(-662,-70) scale(1,1)"><path fill="#C0C0C0" stroke="none" d="M 1079 353 L 1089 343 L 1278 343 L 1268 353" opacity="0.2"/></g><g transform="translate(-662,-70) scale(1,1)"><path fill="#C0C0C0" stroke="none" d="M 1278 343 L 1268 353 L 1268 462 L 1278 452" opacity="0.2"/></g><g transform="translate(-662,-70) scale(1,1)"><path fill="#ffffff" stroke="none" d="M 1072 346 L 1261 346 L 1261 455 L 1072 455"/></g><g transform="translate(-662,-70) scale(1,1)"><path fill="#ffffff" stroke="none" d="M 1072 346 L 1082 336 L 1271 336 L 1261 346"/></g><g transform="translate(-662,-70) scale(1,1)"><path fill="#ffffff" stroke="none" d="M 1271 336 L 1261 346 L 1261 455 L 1271 445"/></g><g transform="translate(-662,-70) scale(1,1)"><path fill="none" stroke="#000000" d="M 1072 346 L 1261 346 L 1261 455 L 1072 455 L 1072 346" stroke-miterlimit="10"/></g><g transform="translate(-662,-70) scale(1,1)"><path fill="none" stroke="#000000" d="M 1072 346 L 1082 336 L 1271 336 L 1261 346 L 1072 346" stroke-miterlimit="10"/></g><g transform="translate(-662,-70) scale(1,1)"><path fill="none" stroke="#000000" d="M 1271 336 L 1261 346 L 1261 455 L 1271 445 L 1271 336" stroke-miterlimit="10"/></g><g transform="translate(-662,-70) scale(1,1)"><g><path fill="none" stroke="none"/><text fill="#000000" stroke="none" font-family="Arial" font-size="13px" font-style="normal" font-weight="bold" text-decoration="none" x="1091.84375" y="365.5">«executionEnvironment» :</text><text fill="#000000" stroke="none" font-family="Arial" font-size="13px" font-style="normal" font-weight="bold" text-decoration="none" x="1153.99365234375" y="378.5">SQL</text></g></g><g transform="translate(-662,-70) scale(1,1)"><path fill="#C0C0C0" stroke="none" d="M 1161.54453125 391 L 1188.9845312500001 391 L 1200.7445312500001 402.76 L 1200.7445312500001 440 L 1161.54453125 440" opacity="0.2"/></g><g transform="translate(-662,-70) scale(1,1)"><path fill="#ffffff" stroke="none" d="M 1154.54453125 384 L 1181.98453125 384 L 1193.74453125 395.75999999999993 L 1193.74453125 433 L 1154.54453125 433"/></g><g transform="translate(-662,-70) scale(1,1)"><path fill="none" stroke="#000000" d="M 1154.54453125 384 L 1181.98453125 384 L 1193.74453125 395.75999999999993 L 1193.74453125 433 L 1154.54453125 433 L 1154.54453125 384" stroke-miterlimit="10"/></g><g transform="translate(-662,-70) scale(1,1)"><path fill="none" stroke="#000000" d="M 1181.98453125 384 L 1181.98453125 395.75999999999993 L 1193.74453125 395.75999999999993 L 1181.98453125 384" stroke-miterlimit="10"/></g><g transform="translate(-662,-70) scale(1,1)"><g><path fill="none" stroke="none"/><text fill="#000000" stroke="none" font-family="Arial" font-size="13px" font-style="normal" font-weight="bold" text-decoration="none" x="1149.569580078125" y="452.5">Cafe_db</text></g></g></g></svg>