<svg version="1.1" xmlns="http://www.w3.org/2000/svg" xmlns:xlink="http://www.w3.org/1999/xlink" width="924" height="460"><defs/><g><g transform="translate(-174,-70) scale(1,1)"><rect fill="#C0C0C0" stroke="none" x="191" y="423" width="200" height="104" opacity="0.2"/></g><g transform="translate(-174,-70) scale(1,1)"><rect fill="#ffffff" stroke="none" x="184" y="416" width="200" height="104"/></g><g transform="translate(-174,-70) scale(1,1)"><path fill="none" stroke="#000000" d="M 184 416 L 384 416 L 384 520 L 184 520 L 184 416 Z Z" stroke-miterlimit="10"/></g><g transform="translate(-174,-70) scale(1,1)"><rect fill="#ffffff" stroke="none" x="184" y="416" width="200" height="104"/></g><g transform="translate(-174,-70) scale(1,1)"><path fill="none" stroke="#000000" d="M 184 416 L 384 416 L 384 520 L 184 520 L 184 416 Z Z" stroke-miterlimit="10"/></g><g transform="translate(-174,-70) scale(1,1)"><path fill="none" stroke="#000000" d="M 184 441 L 384 441" stroke-miterlimit="10"/></g><g transform="translate(-174,-70) scale(1,1)"><g><path fill="none" stroke="none"/><text fill="#000000" stroke="none" font-family="Arial" font-size="13px" font-style="normal" font-weight="bold" text-decoration="none" x="244.984130859375" y="435.5">order1: Order</text><path fill="none" stroke="#000000" d="M 325.90087890625 435.5 L 242.09912109375 435.5" stroke-miterlimit="10"/></g></g><g transform="translate(-174,-70) scale(1,1)"><g><path fill="none" stroke="none"/><text fill="#000000" stroke="none" font-family="Arial" font-size="13px" font-style="normal" font-weight="normal" text-decoration="none" x="189" y="458.5">-id = 1</text></g></g><g transform="translate(-174,-70) scale(1,1)"><g><path fill="none" stroke="none"/><text fill="#000000" stroke="none" font-family="Arial" font-size="13px" font-style="normal" font-weight="normal" text-decoration="none" x="189" y="473.5">-name = "Kate"</text></g></g><g transform="translate(-174,-70) scale(1,1)"><g><path fill="none" stroke="none"/><text fill="#000000" stroke="none" font-family="Arial" font-size="13px" font-style="normal" font-weight="normal" text-decoration="none" x="189" y="488.5">-phone = "987654321"</text></g></g><g transform="translate(-174,-70) scale(1,1)"><rect fill="#C0C0C0" stroke="none" x="463" y="87" width="184" height="112" opacity="0.2"/></g><g transform="translate(-174,-70) scale(1,1)"><rect fill="#ffffff" stroke="none" x="456" y="80" width="184" height="112"/></g><g transform="translate(-174,-70) scale(1,1)"><path fill="none" stroke="#000000" d="M 456 80 L 640 80 L 640 192 L 456 192 L 456 80 Z Z" stroke-miterlimit="10"/></g><g transform="translate(-174,-70) scale(1,1)"><rect fill="#ffffff" stroke="none" x="456" y="80" width="184" height="112"/></g><g transform="translate(-174,-70) scale(1,1)"><path fill="none" stroke="#000000" d="M 456 80 L 640 80 L 640 192 L 456 192 L 456 80 Z Z" stroke-miterlimit="10"/></g><g transform="translate(-174,-70) scale(1,1)"><path fill="none" stroke="#000000" d="M 456 105 L 640 105" stroke-miterlimit="10"/></g><g transform="translate(-174,-70) scale(1,1)"><g><path fill="none" stroke="none"/><text fill="#000000" stroke="none" font-family="Arial" font-size="13px" font-style="normal" font-weight="bold" text-decoration="none" x="492.7373046875" y="99.5">cartitem1: CartItem</text><path fill="none" stroke="#000000" d="M 607.24267578125 99.5 L 488.75732421875 99.5" stroke-miterlimit="10"/></g></g><g transform="translate(-174,-70) scale(1,1)"><g><path fill="none" stroke="none"/><text fill="#000000" stroke="none" font-family="Arial" font-size="13px" font-style="normal" font-weight="normal" text-decoration="none" x="461" y="122.5">+id = 1</text></g></g><g transform="translate(-174,-70) scale(1,1)"><g><path fill="none" stroke="none"/><text fill="#000000" stroke="none" font-family="Arial" font-size="13px" font-style="normal" font-weight="normal" text-decoration="none" x="461" y="137.5">+quantity = 2</text></g></g><g transform="translate(-174,-70) scale(1,1)"><rect fill="#C0C0C0" stroke="none" x="703" y="103" width="168" height="88" opacity="0.2"/></g><g transform="translate(-174,-70) scale(1,1)"><rect fill="#ffffff" stroke="none" x="696" y="96" width="168" height="88"/></g><g transform="translate(-174,-70) scale(1,1)"><path fill="none" stroke="#000000" d="M 696 96 L 864 96 L 864 184 L 696 184 L 696 96 Z Z" stroke-miterlimit="10"/></g><g transform="translate(-174,-70) scale(1,1)"><rect fill="#ffffff" stroke="none" x="696" y="96" width="168" height="88"/></g><g transform="translate(-174,-70) scale(1,1)"><path fill="none" stroke="#000000" d="M 696 96 L 864 96 L 864 184 L 696 184 L 696 96 Z Z" stroke-miterlimit="10"/></g><g transform="translate(-174,-70) scale(1,1)"><path fill="none" stroke="#000000" d="M 696 121 L 864 121" stroke-miterlimit="10"/></g><g transform="translate(-174,-70) scale(1,1)"><g><path fill="none" stroke="none"/><text fill="#000000" stroke="none" font-family="Arial" font-size="13px" font-style="normal" font-weight="bold" text-decoration="none" x="749.658203125" y="115.5">cart1: Cart</text><path fill="none" stroke="#000000" d="M 812.5126953125 115.5 L 747.4873046875 115.5" stroke-miterlimit="10"/></g></g><g transform="translate(-174,-70) scale(1,1)"><g><path fill="none" stroke="none"/><text fill="#000000" stroke="none" font-family="Arial" font-size="13px" font-style="normal" font-weight="normal" text-decoration="none" x="701" y="138.5">+id = 1</text></g></g><g transform="translate(-174,-70) scale(1,1)"><g><path fill="none" stroke="none"/><text fill="#000000" stroke="none" font-family="Arial" font-size="13px" font-style="normal" font-weight="normal" text-decoration="none" x="701" y="153.5">+user_id = 1</text></g></g><g transform="translate(-174,-70) scale(1,1)"><path fill="none" stroke="#000000" d="M 641 138 L 695 139" stroke-miterlimit="10"/></g><g transform="translate(-174,-70) scale(1,1)"><path fill="none" stroke="#000000" d="M 684.7611265960943 143.0206307240026 L 695 139 L 684.9170079347986 134.60303843397693" stroke-miterlimit="10"/></g><g transform="translate(-174,-70) scale(1,1)"><rect fill="#C0C0C0" stroke="none" x="199" y="87" width="195.2783203125" height="137" opacity="0.2"/></g><g transform="translate(-174,-70) scale(1,1)"><rect fill="#ffffff" stroke="none" x="192" y="80" width="195.2783203125" height="137"/></g><g transform="translate(-174,-70) scale(1,1)"><path fill="none" stroke="#000000" d="M 192 80 L 387.2783203125 80 L 387.2783203125 217 L 192 217 L 192 80 Z Z" stroke-miterlimit="10"/></g><g transform="translate(-174,-70) scale(1,1)"><rect fill="#ffffff" stroke="none" x="192" y="80" width="195.2783203125" height="137"/></g><g transform="translate(-174,-70) scale(1,1)"><path fill="none" stroke="#000000" d="M 192 80 L 387.2783203125 80 L 387.2783203125 217 L 192 217 L 192 80 Z Z" stroke-miterlimit="10"/></g><g transform="translate(-174,-70) scale(1,1)"><path fill="none" stroke="#000000" d="M 192 105 L 387.2783203125 105" stroke-miterlimit="10"/></g><g transform="translate(-174,-70) scale(1,1)"><g><path fill="none" stroke="none"/><text fill="#000000" stroke="none" font-family="Arial" font-size="13px" font-style="normal" font-weight="bold" text-decoration="none" x="224.972412109375" y="99.5">menuitem1: MenuItem</text><path fill="none" stroke="#000000" d="M 358.260498046875 99.5 L 221.017822265625 99.5" stroke-miterlimit="10"/></g></g><g transform="translate(-174,-70) scale(1,1)"><g><path fill="none" stroke="none"/><text fill="#000000" stroke="none" font-family="Arial" font-size="13px" font-style="normal" font-weight="normal" text-decoration="none" x="197" y="122.5">-id = 1</text></g></g><g transform="translate(-174,-70) scale(1,1)"><g><path fill="none" stroke="none"/><text fill="#000000" stroke="none" font-family="Arial" font-size="13px" font-style="normal" font-weight="normal" text-decoration="none" x="197" y="137.5">-name = "Waffles"</text></g></g><g transform="translate(-174,-70) scale(1,1)"><g><path fill="none" stroke="none"/><text fill="#000000" stroke="none" font-family="Arial" font-size="13px" font-style="normal" font-weight="normal" text-decoration="none" x="197" y="152.5">-description = "Banana Waffles"</text></g></g><g transform="translate(-174,-70) scale(1,1)"><g><path fill="none" stroke="none"/><text fill="#000000" stroke="none" font-family="Arial" font-size="13px" font-style="normal" font-weight="normal" text-decoration="none" x="197" y="167.5">-imageUrl = "banana.jpg"</text></g></g><g transform="translate(-174,-70) scale(1,1)"><g><path fill="none" stroke="none"/><text fill="#000000" stroke="none" font-family="Arial" font-size="13px" font-style="normal" font-weight="normal" text-decoration="none" x="197" y="182.5">-price = 50</text></g></g><g transform="translate(-174,-70) scale(1,1)"><g><path fill="none" stroke="none"/><text fill="#000000" stroke="none" font-family="Arial" font-size="13px" font-style="normal" font-weight="normal" text-decoration="none" x="197" y="197.5">-quantity = 10</text></g></g><g transform="translate(-174,-70) scale(1,1)"><g><path fill="none" stroke="none"/><text fill="#000000" stroke="none" font-family="Arial" font-size="13px" font-style="normal" font-weight="normal" text-decoration="none" x="197" y="212.5">+category = "dessert"</text></g></g><g transform="translate(-174,-70) scale(1,1)"><rect fill="#C0C0C0" stroke="none" x="191" y="279" width="200" height="72" opacity="0.2"/></g><g transform="translate(-174,-70) scale(1,1)"><rect fill="#ffffff" stroke="none" x="184" y="272" width="200" height="72"/></g><g transform="translate(-174,-70) scale(1,1)"><path fill="none" stroke="#000000" d="M 184 272 L 384 272 L 384 344 L 184 344 L 184 272 Z Z" stroke-miterlimit="10"/></g><g transform="translate(-174,-70) scale(1,1)"><rect fill="#ffffff" stroke="none" x="184" y="272" width="200" height="72"/></g><g transform="translate(-174,-70) scale(1,1)"><path fill="none" stroke="#000000" d="M 184 272 L 384 272 L 384 344 L 184 344 L 184 272 Z Z" stroke-miterlimit="10"/></g><g transform="translate(-174,-70) scale(1,1)"><path fill="none" stroke="#000000" d="M 184 297 L 384 297" stroke-miterlimit="10"/></g><g transform="translate(-174,-70) scale(1,1)"><g><path fill="none" stroke="none"/><text fill="#000000" stroke="none" font-family="Arial" font-size="13px" font-style="normal" font-weight="bold" text-decoration="none" x="220.063232421875" y="291.5">orderitem1: OrderItem</text><path fill="none" stroke="#000000" d="M 352.630859375 291.5 L 215.369140625 291.5" stroke-miterlimit="10"/></g></g><g transform="translate(-174,-70) scale(1,1)"><g><path fill="none" stroke="none"/><text fill="#000000" stroke="none" font-family="Arial" font-size="13px" font-style="normal" font-weight="normal" text-decoration="none" x="189" y="314.5">-id = 1</text></g></g><g transform="translate(-174,-70) scale(1,1)"><g><path fill="none" stroke="none"/><text fill="#000000" stroke="none" font-family="Arial" font-size="13px" font-style="normal" font-weight="normal" text-decoration="none" x="189" y="329.5">-quantity = 2</text></g></g><g transform="translate(-174,-70) scale(1,1)"><path fill="none" stroke="#000000" d="M 388 143 L 455 140" stroke-miterlimit="10"/></g><g transform="translate(-174,-70) scale(1,1)"><path fill="none" stroke="#000000" d="M 445.03579463251054 144.65989392524062 L 455 140 L 444.65920022136515 136.24928540966047" stroke-miterlimit="10"/></g><g transform="translate(-174,-70) scale(1,1)"><path fill="none" stroke="#000000" d="M 287 218 L 285 271" stroke-miterlimit="10"/></g><g transform="translate(-174,-70) scale(1,1)"><path fill="none" stroke="#000000" d="M 281.17670061829153 260.6858164725545 L 285 271 L 289.5897481953469 261.0032899660283" stroke-miterlimit="10"/></g><g transform="translate(-174,-70) scale(1,1)"><path fill="none" stroke="#000000" d="M 284 345 L 284 415" stroke-miterlimit="10"/></g><g transform="translate(-174,-70) scale(1,1)"><path fill="none" stroke="#000000" d="M 279.790482243984 404.83732514237585 L 284 415 L 288.209517756016 404.83732514237585" stroke-miterlimit="10"/></g><g transform="translate(-174,-70) scale(1,1)"><rect fill="#C0C0C0" stroke="none" x="951" y="95" width="144" height="96" opacity="0.2"/></g><g transform="translate(-174,-70) scale(1,1)"><rect fill="#ffffff" stroke="none" x="944" y="88" width="144" height="96"/></g><g transform="translate(-174,-70) scale(1,1)"><path fill="none" stroke="#000000" d="M 944 88 L 1088 88 L 1088 184 L 944 184 L 944 88 Z Z" stroke-miterlimit="10"/></g><g transform="translate(-174,-70) scale(1,1)"><rect fill="#ffffff" stroke="none" x="944" y="88" width="144" height="96"/></g><g transform="translate(-174,-70) scale(1,1)"><path fill="none" stroke="#000000" d="M 944 88 L 1088 88 L 1088 184 L 944 184 L 944 88 Z Z" stroke-miterlimit="10"/></g><g transform="translate(-174,-70) scale(1,1)"><path fill="none" stroke="#000000" d="M 944 113 L 1088 113" stroke-miterlimit="10"/></g><g transform="translate(-174,-70) scale(1,1)"><g><path fill="none" stroke="none"/><text fill="#000000" stroke="none" font-family="Arial" font-size="13px" font-style="normal" font-weight="bold" text-decoration="none" x="982.405029296875" y="107.5">user1: User</text><path fill="none" stroke="#000000" d="M 1051.76904296875 107.5 L 980.23095703125 107.5" stroke-miterlimit="10"/></g></g><g transform="translate(-174,-70) scale(1,1)"><g><path fill="none" stroke="none"/><text fill="#000000" stroke="none" font-family="Arial" font-size="13px" font-style="normal" font-weight="normal" text-decoration="none" x="949" y="130.5">+id = 1</text></g></g><g transform="translate(-174,-70) scale(1,1)"><g><path fill="none" stroke="none"/><text fill="#000000" stroke="none" font-family="Arial" font-size="13px" font-style="normal" font-weight="normal" text-decoration="none" x="949" y="145.5">+session_id = 32957</text></g></g><g transform="translate(-174,-70) scale(1,1)"><path fill="none" stroke="#000000" d="M 865 139 L 943 137" stroke-miterlimit="10"/></g><g transform="translate(-174,-70) scale(1,1)"><path fill="none" stroke="#000000" d="M 932.9485651713802 141.46863042620535 L 943 137 L 932.732763395042 133.05236114901462" stroke-miterlimit="10"/></g></g></svg>