<svg version="1.1" xmlns="http://www.w3.org/2000/svg" xmlns:xlink="http://www.w3.org/1999/xlink" width="303" height="383"><defs/><g><g transform="translate(-278,-94) scale(1,1)"><rect fill="#C0C0C0" stroke="none" x="295" y="383" width="48" height="15" opacity="0.2"/></g><g transform="translate(-278,-94) scale(1,1)"><rect fill="#C0C0C0" stroke="none" x="295" y="397" width="120" height="66" opacity="0.2"/></g><g transform="translate(-278,-94) scale(1,1)"><rect fill="#ffffff" stroke="none" x="288" y="391" width="120" height="65"/></g><g transform="translate(-278,-94) scale(1,1)"><path fill="none" stroke="#000000" d="M 288 391 L 408 391 L 408 456 L 288 456 L 288 391 Z Z" stroke-miterlimit="10"/></g><g transform="translate(-278,-94) scale(1,1)"><rect fill="#ffffff" stroke="none" x="288" y="376" width="48" height="15"/></g><g transform="translate(-278,-94) scale(1,1)"><path fill="none" stroke="#000000" d="M 288 376 L 336 376 L 336 391 L 288 391 L 288 376 Z Z" stroke-miterlimit="10"/></g><g transform="translate(-278,-94) scale(1,1)"><rect fill="#ffffff" stroke="none" x="288" y="390" width="120" height="66"/></g><g transform="translate(-278,-94) scale(1,1)"><path fill="none" stroke="#000000" d="M 288 390 L 408 390 L 408 456 L 288 456 L 288 390 Z Z" stroke-miterlimit="10"/></g><g transform="translate(-278,-94) scale(1,1)"><g><path fill="none" stroke="none"/><text fill="#000000" stroke="none" font-family="Arial" font-size="13px" font-style="normal" font-weight="bold" text-decoration="none" x="330.29638671875" y="410.5">model</text></g></g><g transform="translate(-278,-94) scale(1,1)"><rect fill="#C0C0C0" stroke="none" x="295" y="247" width="44.80000000000001" height="15" opacity="0.2"/></g><g transform="translate(-278,-94) scale(1,1)"><rect fill="#C0C0C0" stroke="none" x="295" y="261" width="112" height="66" opacity="0.2"/></g><g transform="translate(-278,-94) scale(1,1)"><rect fill="#ffffff" stroke="none" x="288" y="255" width="112" height="65"/></g><g transform="translate(-278,-94) scale(1,1)"><path fill="none" stroke="#000000" d="M 288 255 L 400 255 L 400 320 L 288 320 L 288 255 Z Z" stroke-miterlimit="10"/></g><g transform="translate(-278,-94) scale(1,1)"><rect fill="#ffffff" stroke="none" x="288" y="240" width="44.80000000000001" height="15"/></g><g transform="translate(-278,-94) scale(1,1)"><path fill="none" stroke="#000000" d="M 288 240 L 332.8 240 L 332.8 255 L 288 255 L 288 240 Z Z" stroke-miterlimit="10"/></g><g transform="translate(-278,-94) scale(1,1)"><rect fill="#ffffff" stroke="none" x="288" y="254" width="112" height="66"/></g><g transform="translate(-278,-94) scale(1,1)"><path fill="none" stroke="#000000" d="M 288 254 L 400 254 L 400 320 L 288 320 L 288 254 Z Z" stroke-miterlimit="10"/></g><g transform="translate(-278,-94) scale(1,1)"><g><path fill="none" stroke="none"/><text fill="#000000" stroke="none" font-family="Arial" font-size="13px" font-style="normal" font-weight="bold" text-decoration="none" x="323.411376953125" y="274.5">service</text></g></g><g transform="translate(-278,-94) scale(1,1)"><path fill="none" stroke="#000000" d="M 347 375 L 345 321" stroke-miterlimit="10" stroke-dasharray="3"/></g><g transform="translate(-278,-94) scale(1,1)"><path fill="none" stroke="#000000" d="M 349.58277100829406 330.9999104938764 L 345 321 L 341.1695039351113 331.3115129780684" stroke-miterlimit="10"/></g><g transform="translate(-278,-94) scale(1,1)"><rect fill="#C0C0C0" stroke="none" x="295" y="111" width="42.60507812499998" height="15" opacity="0.2"/></g><g transform="translate(-278,-94) scale(1,1)"><rect fill="#C0C0C0" stroke="none" x="295" y="125" width="106.5126953125" height="58" opacity="0.2"/></g><g transform="translate(-278,-94) scale(1,1)"><rect fill="#ffffff" stroke="none" x="288" y="119" width="106.5126953125" height="57"/></g><g transform="translate(-278,-94) scale(1,1)"><path fill="none" stroke="#000000" d="M 288 119 L 394.5126953125 119 L 394.5126953125 176 L 288 176 L 288 119 Z Z" stroke-miterlimit="10"/></g><g transform="translate(-278,-94) scale(1,1)"><rect fill="#ffffff" stroke="none" x="288" y="104" width="42.60507812499998" height="15"/></g><g transform="translate(-278,-94) scale(1,1)"><path fill="none" stroke="#000000" d="M 288 104 L 330.605078125 104 L 330.605078125 119 L 288 119 L 288 104 Z Z" stroke-miterlimit="10"/></g><g transform="translate(-278,-94) scale(1,1)"><rect fill="#ffffff" stroke="none" x="288" y="118" width="106.5126953125" height="58"/></g><g transform="translate(-278,-94) scale(1,1)"><path fill="none" stroke="#000000" d="M 288 118 L 394.5126953125 118 L 394.5126953125 176 L 288 176 L 288 118 Z Z" stroke-miterlimit="10"/></g><g transform="translate(-278,-94) scale(1,1)"><g><path fill="none" stroke="none"/><text fill="#000000" stroke="none" font-family="Arial" font-size="13px" font-style="normal" font-weight="bold" text-decoration="none" x="314.523193359375" y="138.5">controller</text></g></g><g transform="translate(-278,-94) scale(1,1)"><path fill="none" stroke="#000000" d="M 343 239 L 342 177" stroke-miterlimit="10" stroke-dasharray="3"/></g><g transform="translate(-278,-94) scale(1,1)"><path fill="none" stroke="#000000" d="M 346.37286311288267 187.09346660944544 L 342 177 L 337.95492247510094 187.2292398455387" stroke-miterlimit="10"/></g><g transform="translate(-278,-94) scale(1,1)"><path fill="#ffffff" stroke="none" d="M 456 120 L 555.76171875 120 L 565.76171875 130 L 565.76171875 173 L 456 173 L 456 120"/></g><g transform="translate(-278,-94) scale(1,1)"><path fill="none" stroke="#000000" d="M 456 120 L 555.76171875 120 L 565.76171875 130 L 565.76171875 173 L 456 173 L 456 120 L 456 120" stroke-miterlimit="10"/></g><g transform="translate(-278,-94) scale(1,1)"><path fill="none" stroke="#000000" d="M 555.76171875 120 L 555.76171875 130 L 565.76171875 130 L 555.76171875 120" stroke-miterlimit="10"/></g><g transform="translate(-278,-94) scale(1,1)"><g><path fill="none" stroke="none"/><text fill="#000000" stroke="none" font-family="Arial" font-size="13px" font-style="normal" font-weight="normal" text-decoration="none" x="461" y="138">MenuControlller</text></g></g><g transform="translate(-278,-94) scale(1,1)"><g><path fill="none" stroke="none"/><text fill="#000000" stroke="none" font-family="Arial" font-size="13px" font-style="normal" font-weight="normal" text-decoration="none" x="461" y="153">OrderController</text></g></g><g transform="translate(-278,-94) scale(1,1)"><g><path fill="none" stroke="none"/><text fill="#000000" stroke="none" font-family="Arial" font-size="13px" font-style="normal" font-weight="normal" text-decoration="none" x="461" y="168">CartController</text></g></g><g transform="translate(-278,-94) scale(1,1)"><path fill="none" stroke="#000000" d="M 396 142 L 455 145" stroke-miterlimit="10" stroke-dasharray="3"/></g><g transform="translate(-278,-94) scale(1,1)"><path fill="#ffffff" stroke="none" d="M 464 256 L 552 256 L 562 266 L 562 309 L 464 309 L 464 256"/></g><g transform="translate(-278,-94) scale(1,1)"><path fill="none" stroke="#000000" d="M 464 256 L 552 256 L 562 266 L 562 309 L 464 309 L 464 256 L 464 256" stroke-miterlimit="10"/></g><g transform="translate(-278,-94) scale(1,1)"><path fill="none" stroke="#000000" d="M 552 256 L 552 266 L 562 266 L 552 256" stroke-miterlimit="10"/></g><g transform="translate(-278,-94) scale(1,1)"><g><path fill="none" stroke="none"/><text fill="#000000" stroke="none" font-family="Arial" font-size="13px" font-style="normal" font-weight="normal" text-decoration="none" x="469" y="274">MenuService</text></g></g><g transform="translate(-278,-94) scale(1,1)"><g><path fill="none" stroke="none"/><text fill="#000000" stroke="none" font-family="Arial" font-size="13px" font-style="normal" font-weight="normal" text-decoration="none" x="469" y="289">OrderService</text></g></g><g transform="translate(-278,-94) scale(1,1)"><g><path fill="none" stroke="none"/><text fill="#000000" stroke="none" font-family="Arial" font-size="13px" font-style="normal" font-weight="normal" text-decoration="none" x="469" y="304">CartService</text></g></g><g transform="translate(-278,-94) scale(1,1)"><path fill="none" stroke="#000000" d="M 401 281 L 463 282" stroke-miterlimit="10" stroke-dasharray="3"/></g><g transform="translate(-278,-94) scale(1,1)"><path fill="#ffffff" stroke="none" d="M 472 368 L 560 368 L 570 378 L 570 466 L 472 466 L 472 368"/></g><g transform="translate(-278,-94) scale(1,1)"><path fill="none" stroke="#000000" d="M 472 368 L 560 368 L 570 378 L 570 466 L 472 466 L 472 368 L 472 368" stroke-miterlimit="10"/></g><g transform="translate(-278,-94) scale(1,1)"><path fill="none" stroke="#000000" d="M 560 368 L 560 378 L 570 378 L 560 368" stroke-miterlimit="10"/></g><g transform="translate(-278,-94) scale(1,1)"><g><path fill="none" stroke="none"/><text fill="#000000" stroke="none" font-family="Arial" font-size="13px" font-style="normal" font-weight="normal" text-decoration="none" x="477" y="386">MenuItem</text></g></g><g transform="translate(-278,-94) scale(1,1)"><g><path fill="none" stroke="none"/><text fill="#000000" stroke="none" font-family="Arial" font-size="13px" font-style="normal" font-weight="normal" text-decoration="none" x="477" y="401">Order</text></g></g><g transform="translate(-278,-94) scale(1,1)"><g><path fill="none" stroke="none"/><text fill="#000000" stroke="none" font-family="Arial" font-size="13px" font-style="normal" font-weight="normal" text-decoration="none" x="477" y="416">OrderItem</text></g></g><g transform="translate(-278,-94) scale(1,1)"><g><path fill="none" stroke="none"/><text fill="#000000" stroke="none" font-family="Arial" font-size="13px" font-style="normal" font-weight="normal" text-decoration="none" x="477" y="431">Cart</text></g></g><g transform="translate(-278,-94) scale(1,1)"><g><path fill="none" stroke="none"/><text fill="#000000" stroke="none" font-family="Arial" font-size="13px" font-style="normal" font-weight="normal" text-decoration="none" x="477" y="446">CartItem</text></g></g><g transform="translate(-278,-94) scale(1,1)"><g><path fill="none" stroke="none"/><text fill="#000000" stroke="none" font-family="Arial" font-size="13px" font-style="normal" font-weight="normal" text-decoration="none" x="477" y="461">User</text></g></g><g transform="translate(-278,-94) scale(1,1)"><path fill="none" stroke="#000000" d="M 409 416 L 471 417" stroke-miterlimit="10" stroke-dasharray="3"/></g></g></svg>