<svg version="1.1" xmlns="http://www.w3.org/2000/svg" xmlns:xlink="http://www.w3.org/1999/xlink" width="1196" height="732"><defs/><g><g transform="translate(-150,-6) scale(1,1)"><path fill="none" stroke="#000000" d="M 160 16 L 1336 16 L 1336 728 L 160 728 L 160 16" stroke-miterlimit="10"/></g><g transform="translate(-150,-6) scale(1,1)"><path fill="#ffffff" stroke="none" d="M 160 16 L 160 38 L 350.88427734375 38 L 361.88427734375 27 L 361.88427734375 16 L 160 16"/></g><g transform="translate(-150,-6) scale(1,1)"><path fill="none" stroke="#000000" d="M 160 16 L 160 38 L 350.88427734375 38 L 361.88427734375 27 L 361.88427734375 16 L 160 16 L 160 16" stroke-miterlimit="10"/></g><g transform="translate(-150,-6) scale(1,1)"><g><path fill="none" stroke="none"/><text fill="#000000" stroke="none" font-family="Arial" font-size="13px" font-style="normal" font-weight="normal" text-decoration="none" x="230.97900390625" y="33.5">SequenceDiagram1</text></g></g><g transform="translate(-150,-6) scale(1,1)"><g><path fill="none" stroke="none"/><text fill="#000000" stroke="none" font-family="Arial" font-size="13px" font-style="normal" font-weight="bold" text-decoration="none" x="165" y="33.5">interaction</text></g></g><g transform="translate(-150,-6) scale(1,1)"><rect fill="#C0C0C0" stroke="none" x="375" y="47" width="125.83740234375" height="39" opacity="0.2"/></g><g transform="translate(-150,-6) scale(1,1)"><rect fill="#ffffff" stroke="none" x="368" y="40" width="125.83740234375" height="39"/></g><g transform="translate(-150,-6) scale(1,1)"><path fill="none" stroke="#000000" d="M 368 40 L 493.83740234375 40 L 493.83740234375 79 L 368 79 L 368 40 Z Z" stroke-miterlimit="10"/></g><g transform="translate(-150,-6) scale(1,1)"><g><path fill="none" stroke="none"/><text fill="#000000" stroke="none" font-family="Arial" font-size="13px" font-style="normal" font-weight="bold" text-decoration="none" x="401.459228515625" y="59.5">Страница</text></g></g><g transform="translate(-150,-6) scale(1,1)"><path fill="none" stroke="#000000" d="M 431.5 80 L 431.5 704" stroke-miterlimit="10" stroke-dasharray="3"/></g><g transform="translate(-150,-6) scale(1,1)"><rect fill="#C0C0C0" stroke="none" x="1255" y="47" width="71.736328125" height="39" opacity="0.2"/></g><g transform="translate(-150,-6) scale(1,1)"><rect fill="#ffffff" stroke="none" x="1248" y="40" width="71.736328125" height="39"/></g><g transform="translate(-150,-6) scale(1,1)"><path fill="none" stroke="#000000" d="M 1248 40 L 1319.736328125 40 L 1319.736328125 79 L 1248 79 L 1248 40 Z Z" stroke-miterlimit="10"/></g><g transform="translate(-150,-6) scale(1,1)"><g><path fill="none" stroke="none"/><text fill="#000000" stroke="none" font-family="Arial" font-size="13px" font-style="normal" font-weight="bold" text-decoration="none" x="1275.200439453125" y="59.5">БД</text></g></g><g transform="translate(-150,-6) scale(1,1)"><path fill="none" stroke="#000000" d="M 1284.5 80 L 1284.5 696" stroke-miterlimit="10" stroke-dasharray="3"/></g><g transform="translate(-150,-6) scale(1,1)"><path fill="#ffffff" stroke="none" d="M 266.9124618252841 47.3 C 266.9124618252841 43.82060576 269.7908635474659 41 273.341552734375 41 C 276.8922419212841 41 279.770643643466 43.82060576 279.770643643466 47.3 C 279.770643643466 50.779394239999995 276.8922419212841 53.6 273.341552734375 53.6 C 269.7908635474659 53.6 266.9124618252841 50.779394239999995 266.9124618252841 47.3 Z"/></g><g transform="translate(-150,-6) scale(1,1)"><path fill="none" stroke="#000000" d="M 266.9124618252841 47.3 C 266.9124618252841 43.82060576 269.7908635474659 41 273.341552734375 41 C 276.8922419212841 41 279.770643643466 43.82060576 279.770643643466 47.3 C 279.770643643466 50.779394239999995 276.8922419212841 53.6 273.341552734375 53.6 C 269.7908635474659 53.6 266.9124618252841 50.779394239999995 266.9124618252841 47.3 Z" stroke-miterlimit="10"/></g><g transform="translate(-150,-6) scale(1,1)"><path fill="none" stroke="#000000" d="M 273.341552734375 53.6 L 273.341552734375 66.4" stroke-miterlimit="10"/></g><g transform="translate(-150,-6) scale(1,1)"><path fill="none" stroke="#000000" d="M 266.53428000710227 58.4 L 280.1488254616478 58.4" stroke-miterlimit="10"/></g><g transform="translate(-150,-6) scale(1,1)"><path fill="none" stroke="#000000" d="M 273.341552734375 66.4 L 263.88700727982956 79" stroke-miterlimit="10"/></g><g transform="translate(-150,-6) scale(1,1)"><path fill="none" stroke="#000000" d="M 273.341552734375 66.4 L 282.7960981889205 79" stroke-miterlimit="10"/></g><g transform="translate(-150,-6) scale(1,1)"><g><path fill="none" stroke="none"/><text fill="#000000" stroke="none" font-family="Arial" font-size="13px" font-style="normal" font-weight="bold" text-decoration="none" x="202.615966796875" y="99.5">Lifeline1: Пользователь</text></g></g><g transform="translate(-150,-6) scale(1,1)"><path fill="none" stroke="#000000" d="M 274.5 105 L 274.5 696" stroke-miterlimit="10" stroke-dasharray="3"/></g><g transform="translate(-150,-6) scale(1,1)"><rect fill="#C0C0C0" stroke="none" x="511" y="47" width="115.052734375" height="39" opacity="0.2"/></g><g transform="translate(-150,-6) scale(1,1)"><rect fill="#ffffff" stroke="none" x="504" y="40" width="115.052734375" height="39"/></g><g transform="translate(-150,-6) scale(1,1)"><path fill="none" stroke="#000000" d="M 504 40 L 619.052734375 40 L 619.052734375 79 L 504 79 L 504 40 Z Z" stroke-miterlimit="10"/></g><g transform="translate(-150,-6) scale(1,1)"><g><path fill="none" stroke="none"/><text fill="#000000" stroke="none" font-family="Arial" font-size="13px" font-style="normal" font-weight="bold" text-decoration="none" x="517.089599609375" y="59.5">MenuController</text></g></g><g transform="translate(-150,-6) scale(1,1)"><path fill="none" stroke="#000000" d="M 562.5 80 L 562.5 704" stroke-miterlimit="10" stroke-dasharray="3"/></g><g transform="translate(-150,-6) scale(1,1)"><rect fill="#C0C0C0" stroke="none" x="639" y="47" width="99.20263671875" height="39" opacity="0.2"/></g><g transform="translate(-150,-6) scale(1,1)"><rect fill="#ffffff" stroke="none" x="632" y="40" width="99.20263671875" height="39"/></g><g transform="translate(-150,-6) scale(1,1)"><path fill="none" stroke="#000000" d="M 632 40 L 731.20263671875 40 L 731.20263671875 79 L 632 79 L 632 40 Z Z" stroke-miterlimit="10"/></g><g transform="translate(-150,-6) scale(1,1)"><g><path fill="none" stroke="none"/><text fill="#000000" stroke="none" font-family="Arial" font-size="13px" font-style="normal" font-weight="bold" text-decoration="none" x="643.667724609375" y="59.5">MenuService</text></g></g><g transform="translate(-150,-6) scale(1,1)"><path fill="none" stroke="#000000" d="M 682.5 80 L 682.5 696" stroke-miterlimit="10" stroke-dasharray="3"/></g><g transform="translate(-150,-6) scale(1,1)"><rect fill="#C0C0C0" stroke="none" x="999" y="47" width="116.5126953125" height="39" opacity="0.2"/></g><g transform="translate(-150,-6) scale(1,1)"><rect fill="#ffffff" stroke="none" x="992" y="40" width="116.5126953125" height="39"/></g><g transform="translate(-150,-6) scale(1,1)"><path fill="none" stroke="#000000" d="M 992 40 L 1108.5126953125 40 L 1108.5126953125 79 L 992 79 L 992 40 Z Z" stroke-miterlimit="10"/></g><g transform="translate(-150,-6) scale(1,1)"><g><path fill="none" stroke="none"/><text fill="#000000" stroke="none" font-family="Arial" font-size="13px" font-style="normal" font-weight="bold" text-decoration="none" x="1005.464111328125" y="59.5">OrderController</text></g></g><g transform="translate(-150,-6) scale(1,1)"><path fill="none" stroke="#000000" d="M 1051.5 80 L 1051.5 696" stroke-miterlimit="10" stroke-dasharray="3"/></g><g transform="translate(-150,-6) scale(1,1)"><rect fill="#C0C0C0" stroke="none" x="1135" y="47" width="100.66259765625" height="39" opacity="0.2"/></g><g transform="translate(-150,-6) scale(1,1)"><rect fill="#ffffff" stroke="none" x="1128" y="40" width="100.66259765625" height="39"/></g><g transform="translate(-150,-6) scale(1,1)"><path fill="none" stroke="#000000" d="M 1128 40 L 1228.66259765625 40 L 1228.66259765625 79 L 1128 79 L 1128 40 Z Z" stroke-miterlimit="10"/></g><g transform="translate(-150,-6) scale(1,1)"><g><path fill="none" stroke="none"/><text fill="#000000" stroke="none" font-family="Arial" font-size="13px" font-style="normal" font-weight="bold" text-decoration="none" x="1140.042236328125" y="59.5">OrderService</text></g></g><g transform="translate(-150,-6) scale(1,1)"><path fill="none" stroke="#000000" d="M 1179.5 80 L 1179.5 696" stroke-miterlimit="10" stroke-dasharray="3"/></g><g transform="translate(-150,-6) scale(1,1)"><rect fill="#C0C0C0" stroke="none" x="751" y="47" width="107.1181640625" height="39" opacity="0.2"/></g><g transform="translate(-150,-6) scale(1,1)"><rect fill="#ffffff" stroke="none" x="744" y="40" width="107.1181640625" height="39"/></g><g transform="translate(-150,-6) scale(1,1)"><path fill="none" stroke="#000000" d="M 744 40 L 851.1181640625 40 L 851.1181640625 79 L 744 79 L 744 40 Z Z" stroke-miterlimit="10"/></g><g transform="translate(-150,-6) scale(1,1)"><g><path fill="none" stroke="none"/><text fill="#000000" stroke="none" font-family="Arial" font-size="13px" font-style="normal" font-weight="bold" text-decoration="none" x="757.102294921875" y="59.5">CartController</text></g></g><g transform="translate(-150,-6) scale(1,1)"><path fill="none" stroke="#000000" d="M 798.5 80 L 798.5 688" stroke-miterlimit="10" stroke-dasharray="3"/></g><g transform="translate(-150,-6) scale(1,1)"><rect fill="#C0C0C0" stroke="none" x="887" y="47" width="91.26806640625" height="39" opacity="0.2"/></g><g transform="translate(-150,-6) scale(1,1)"><rect fill="#ffffff" stroke="none" x="880" y="40" width="91.26806640625" height="39"/></g><g transform="translate(-150,-6) scale(1,1)"><path fill="none" stroke="#000000" d="M 880 40 L 971.26806640625 40 L 971.26806640625 79 L 880 79 L 880 40 Z Z" stroke-miterlimit="10"/></g><g transform="translate(-150,-6) scale(1,1)"><g><path fill="none" stroke="none"/><text fill="#000000" stroke="none" font-family="Arial" font-size="13px" font-style="normal" font-weight="bold" text-decoration="none" x="891.680419921875" y="59.5">CartService</text></g></g><g transform="translate(-150,-6) scale(1,1)"><path fill="none" stroke="#000000" d="M 926.5 80 L 926.5 696" stroke-miterlimit="10" stroke-dasharray="3"/></g><g transform="translate(-150,-6) scale(1,1)"><path fill="none" stroke="#000000" d="M 274 130 L 424 130" stroke-miterlimit="10"/></g><g transform="translate(-150,-6) scale(1,1)"><path fill="#000000" stroke="none" d="M 413.83732514237585 134.209517756016 L 424 130 L 413.83732514237585 125.79048224398402"/></g><g transform="translate(-150,-6) scale(1,1)"><path fill="none" stroke="#000000" d="M 413.83732514237585 134.209517756016 L 424 130 L 413.83732514237585 125.79048224398402 L 413.83732514237585 134.209517756016" stroke-miterlimit="10"/></g><g transform="translate(-150,-6) scale(1,1)"><g><path fill="none" stroke="none"/><text fill="#000000" stroke="none" font-family="Arial" font-size="13px" font-style="normal" font-weight="normal" text-decoration="none" x="292" y="127">1 : Просмотр меню</text></g></g><g transform="translate(-150,-6) scale(1,1)"><rect fill="#ffffff" stroke="none" x="424" y="130" width="13" height="70"/></g><g transform="translate(-150,-6) scale(1,1)"><path fill="none" stroke="#000000" d="M 424 130 L 437 130 L 437 200 L 424 200 L 424 130 Z Z" stroke-miterlimit="10"/></g><g transform="translate(-150,-6) scale(1,1)"><path fill="none" stroke="#000000" d="M 437 144 L 555 144" stroke-miterlimit="10"/></g><g transform="translate(-150,-6) scale(1,1)"><path fill="#000000" stroke="none" d="M 544.8373251423759 148.209517756016 L 555 144 L 544.8373251423758 139.790482243984"/></g><g transform="translate(-150,-6) scale(1,1)"><path fill="none" stroke="#000000" d="M 544.8373251423759 148.209517756016 L 555 144 L 544.8373251423758 139.790482243984 L 544.8373251423759 148.209517756016" stroke-miterlimit="10"/></g><g transform="translate(-150,-6) scale(1,1)"><g><path fill="none" stroke="none"/><text fill="#000000" stroke="none" font-family="Arial" font-size="13px" font-style="normal" font-weight="normal" text-decoration="none" x="442" y="141">2 : вызов getMenu</text></g></g><g transform="translate(-150,-6) scale(1,1)"><rect fill="#ffffff" stroke="none" x="555" y="144" width="13" height="28"/></g><g transform="translate(-150,-6) scale(1,1)"><path fill="none" stroke="#000000" d="M 555 144 L 568 144 L 568 172 L 555 172 L 555 144 Z Z" stroke-miterlimit="10"/></g><g transform="translate(-150,-6) scale(1,1)"><path fill="none" stroke="#000000" d="M 568 160 L 675 160" stroke-miterlimit="10"/></g><g transform="translate(-150,-6) scale(1,1)"><path fill="#000000" stroke="none" d="M 664.8373251423759 164.209517756016 L 675 160 L 664.8373251423758 155.790482243984"/></g><g transform="translate(-150,-6) scale(1,1)"><path fill="none" stroke="#000000" d="M 664.8373251423759 164.209517756016 L 675 160 L 664.8373251423758 155.790482243984 L 664.8373251423759 164.209517756016" stroke-miterlimit="10"/></g><g transform="translate(-150,-6) scale(1,1)"><g><path fill="none" stroke="none"/><text fill="#000000" stroke="none" font-family="Arial" font-size="13px" font-style="normal" font-weight="normal" text-decoration="none" x="554" y="157">3 : getAllAvailableItems</text></g></g><g transform="translate(-150,-6) scale(1,1)"><rect fill="#ffffff" stroke="none" x="675" y="160" width="13" height="28"/></g><g transform="translate(-150,-6) scale(1,1)"><path fill="none" stroke="#000000" d="M 675 160 L 688 160 L 688 188 L 675 188 L 675 160 Z Z" stroke-miterlimit="10"/></g><g transform="translate(-150,-6) scale(1,1)"><path fill="none" stroke="#000000" d="M 688 178 L 1277 178" stroke-miterlimit="10"/></g><g transform="translate(-150,-6) scale(1,1)"><path fill="#000000" stroke="none" d="M 1266.837325142376 182.209517756016 L 1277 178 L 1266.837325142376 173.790482243984"/></g><g transform="translate(-150,-6) scale(1,1)"><path fill="none" stroke="#000000" d="M 1266.837325142376 182.209517756016 L 1277 178 L 1266.837325142376 173.790482243984 L 1266.837325142376 182.209517756016" stroke-miterlimit="10"/></g><g transform="translate(-150,-6) scale(1,1)"><g><path fill="none" stroke="none"/><text fill="#000000" stroke="none" font-family="Arial" font-size="13px" font-style="normal" font-weight="normal" text-decoration="none" x="940" y="175">4 : запрос меню</text></g></g><g transform="translate(-150,-6) scale(1,1)"><rect fill="#ffffff" stroke="none" x="1277" y="178" width="13" height="28"/></g><g transform="translate(-150,-6) scale(1,1)"><path fill="none" stroke="#000000" d="M 1277 178 L 1290 178 L 1290 206 L 1277 206 L 1277 178 Z Z" stroke-miterlimit="10"/></g><g transform="translate(-150,-6) scale(1,1)"><path fill="none" stroke="#000000" d="M 1277 200 L 431 200" stroke-miterlimit="10" stroke-dasharray="3"/></g><g transform="translate(-150,-6) scale(1,1)"><path fill="none" stroke="#000000" d="M 441.16267485762415 195.790482243984 L 431 200 L 441.16267485762415 204.209517756016" stroke-miterlimit="10"/></g><g transform="translate(-150,-6) scale(1,1)"><g><path fill="none" stroke="none"/><text fill="#000000" stroke="none" font-family="Arial" font-size="13px" font-style="normal" font-weight="normal" text-decoration="none" x="796" y="217">5 : вернуть ListItem</text></g></g><g transform="translate(-150,-6) scale(1,1)"><path fill="none" stroke="#000000" d="M 274 224 L 424 224" stroke-miterlimit="10"/></g><g transform="translate(-150,-6) scale(1,1)"><path fill="#000000" stroke="none" d="M 413.83732514237585 228.209517756016 L 424 224 L 413.83732514237585 219.790482243984"/></g><g transform="translate(-150,-6) scale(1,1)"><path fill="none" stroke="#000000" d="M 413.83732514237585 228.209517756016 L 424 224 L 413.83732514237585 219.790482243984 L 413.83732514237585 228.209517756016" stroke-miterlimit="10"/></g><g transform="translate(-150,-6) scale(1,1)"><g><path fill="none" stroke="none"/><text fill="#000000" stroke="none" font-family="Arial" font-size="13px" font-style="normal" font-weight="normal" text-decoration="none" x="290" y="221">6 : просмотр блюда</text></g></g><g transform="translate(-150,-6) scale(1,1)"><rect fill="#ffffff" stroke="none" x="424" y="224" width="13" height="88"/></g><g transform="translate(-150,-6) scale(1,1)"><path fill="none" stroke="#000000" d="M 424 224 L 437 224 L 437 312 L 424 312 L 424 224 Z Z" stroke-miterlimit="10"/></g><g transform="translate(-150,-6) scale(1,1)"><path fill="none" stroke="#000000" d="M 437 232 L 555 232" stroke-miterlimit="10"/></g><g transform="translate(-150,-6) scale(1,1)"><path fill="#000000" stroke="none" d="M 544.8373251423759 236.209517756016 L 555 232 L 544.8373251423758 227.790482243984"/></g><g transform="translate(-150,-6) scale(1,1)"><path fill="none" stroke="#000000" d="M 544.8373251423759 236.209517756016 L 555 232 L 544.8373251423758 227.790482243984 L 544.8373251423759 236.209517756016" stroke-miterlimit="10"/></g><g transform="translate(-150,-6) scale(1,1)"><g><path fill="none" stroke="none"/><text fill="#000000" stroke="none" font-family="Arial" font-size="13px" font-style="normal" font-weight="normal" text-decoration="none" x="446" y="229">7 : вызов getItem</text></g></g><g transform="translate(-150,-6) scale(1,1)"><rect fill="#ffffff" stroke="none" x="555" y="232" width="13" height="28"/></g><g transform="translate(-150,-6) scale(1,1)"><path fill="none" stroke="#000000" d="M 555 232 L 568 232 L 568 260 L 555 260 L 555 232 Z Z" stroke-miterlimit="10"/></g><g transform="translate(-150,-6) scale(1,1)"><path fill="none" stroke="#000000" d="M 568 248 L 675 248" stroke-miterlimit="10"/></g><g transform="translate(-150,-6) scale(1,1)"><path fill="#000000" stroke="none" d="M 664.8373251423759 252.209517756016 L 675 248 L 664.8373251423758 243.790482243984"/></g><g transform="translate(-150,-6) scale(1,1)"><path fill="none" stroke="#000000" d="M 664.8373251423759 252.209517756016 L 675 248 L 664.8373251423758 243.790482243984 L 664.8373251423759 252.209517756016" stroke-miterlimit="10"/></g><g transform="translate(-150,-6) scale(1,1)"><g><path fill="none" stroke="none"/><text fill="#000000" stroke="none" font-family="Arial" font-size="13px" font-style="normal" font-weight="normal" text-decoration="none" x="551" y="245">8 : вызов getItemDetails</text></g></g><g transform="translate(-150,-6) scale(1,1)"><rect fill="#ffffff" stroke="none" x="675" y="248" width="13" height="28"/></g><g transform="translate(-150,-6) scale(1,1)"><path fill="none" stroke="#000000" d="M 675 248 L 688 248 L 688 276 L 675 276 L 675 248 Z Z" stroke-miterlimit="10"/></g><g transform="translate(-150,-6) scale(1,1)"><path fill="none" stroke="#000000" d="M 688 272 L 1277 272" stroke-miterlimit="10"/></g><g transform="translate(-150,-6) scale(1,1)"><path fill="#000000" stroke="none" d="M 1266.837325142376 276.209517756016 L 1277 272 L 1266.837325142376 267.790482243984"/></g><g transform="translate(-150,-6) scale(1,1)"><path fill="none" stroke="#000000" d="M 1266.837325142376 276.209517756016 L 1277 272 L 1266.837325142376 267.790482243984 L 1266.837325142376 276.209517756016" stroke-miterlimit="10"/></g><g transform="translate(-150,-6) scale(1,1)"><g><path fill="none" stroke="none"/><text fill="#000000" stroke="none" font-family="Arial" font-size="13px" font-style="normal" font-weight="normal" text-decoration="none" x="892" y="269">9 : запрос деталей опр блюда</text></g></g><g transform="translate(-150,-6) scale(1,1)"><rect fill="#ffffff" stroke="none" x="1277" y="272" width="13" height="40"/></g><g transform="translate(-150,-6) scale(1,1)"><path fill="none" stroke="#000000" d="M 1277 272 L 1290 272 L 1290 312 L 1277 312 L 1277 272 Z Z" stroke-miterlimit="10"/></g><g transform="translate(-150,-6) scale(1,1)"><path fill="none" stroke="#000000" d="M 1277 304 L 437 304" stroke-miterlimit="10" stroke-dasharray="3"/></g><g transform="translate(-150,-6) scale(1,1)"><path fill="none" stroke="#000000" d="M 447.16267485762415 299.790482243984 L 437 304 L 447.16267485762415 308.209517756016" stroke-miterlimit="10"/></g><g transform="translate(-150,-6) scale(1,1)"><g><path fill="none" stroke="none"/><text fill="#000000" stroke="none" font-family="Arial" font-size="13px" font-style="normal" font-weight="normal" text-decoration="none" x="806" y="321">10 : вернуть item</text></g></g><g transform="translate(-150,-6) scale(1,1)"><path fill="none" stroke="#000000" d="M 274 352 L 424 352" stroke-miterlimit="10"/></g><g transform="translate(-150,-6) scale(1,1)"><path fill="#000000" stroke="none" d="M 413.83732514237585 356.209517756016 L 424 352 L 413.83732514237585 347.790482243984"/></g><g transform="translate(-150,-6) scale(1,1)"><path fill="none" stroke="#000000" d="M 413.83732514237585 356.209517756016 L 424 352 L 413.83732514237585 347.790482243984 L 413.83732514237585 356.209517756016" stroke-miterlimit="10"/></g><g transform="translate(-150,-6) scale(1,1)"><g><path fill="none" stroke="none"/><text fill="#000000" stroke="none" font-family="Arial" font-size="13px" font-style="normal" font-weight="normal" text-decoration="none" x="278" y="349">11 : добавить в корзину</text></g></g><g transform="translate(-150,-6) scale(1,1)"><rect fill="#ffffff" stroke="none" x="424" y="352" width="13" height="28"/></g><g transform="translate(-150,-6) scale(1,1)"><path fill="none" stroke="#000000" d="M 424 352 L 437 352 L 437 380 L 424 380 L 424 352 Z Z" stroke-miterlimit="10"/></g><g transform="translate(-150,-6) scale(1,1)"><path fill="none" stroke="#000000" d="M 437 376 L 791 376" stroke-miterlimit="10"/></g><g transform="translate(-150,-6) scale(1,1)"><path fill="#000000" stroke="none" d="M 780.8373251423759 380.209517756016 L 791 376 L 780.8373251423758 371.790482243984"/></g><g transform="translate(-150,-6) scale(1,1)"><path fill="none" stroke="#000000" d="M 780.8373251423759 380.209517756016 L 791 376 L 780.8373251423758 371.790482243984 L 780.8373251423759 380.209517756016" stroke-miterlimit="10"/></g><g transform="translate(-150,-6) scale(1,1)"><g><path fill="none" stroke="none"/><text fill="#000000" stroke="none" font-family="Arial" font-size="13px" font-style="normal" font-weight="normal" text-decoration="none" x="558" y="373">12 : вызов addItem</text></g></g><g transform="translate(-150,-6) scale(1,1)"><rect fill="#ffffff" stroke="none" x="791" y="376" width="13" height="28"/></g><g transform="translate(-150,-6) scale(1,1)"><path fill="none" stroke="#000000" d="M 791 376 L 804 376 L 804 404 L 791 404 L 791 376 Z Z" stroke-miterlimit="10"/></g><g transform="translate(-150,-6) scale(1,1)"><path fill="none" stroke="#000000" d="M 804 384 L 919 384" stroke-miterlimit="10"/></g><g transform="translate(-150,-6) scale(1,1)"><path fill="#000000" stroke="none" d="M 908.8373251423759 388.209517756016 L 919 384 L 908.8373251423758 379.790482243984"/></g><g transform="translate(-150,-6) scale(1,1)"><path fill="none" stroke="#000000" d="M 908.8373251423759 388.209517756016 L 919 384 L 908.8373251423758 379.790482243984 L 908.8373251423759 388.209517756016" stroke-miterlimit="10"/></g><g transform="translate(-150,-6) scale(1,1)"><g><path fill="none" stroke="none"/><text fill="#000000" stroke="none" font-family="Arial" font-size="13px" font-style="normal" font-weight="normal" text-decoration="none" x="806" y="381">13 : addItemToCart</text></g></g><g transform="translate(-150,-6) scale(1,1)"><rect fill="#ffffff" stroke="none" x="919" y="384" width="13" height="72"/></g><g transform="translate(-150,-6) scale(1,1)"><path fill="none" stroke="#000000" d="M 919 384 L 932 384 L 932 456 L 919 456 L 919 384 Z Z" stroke-miterlimit="10"/></g><g transform="translate(-150,-6) scale(1,1)"><path fill="none" stroke="#000000" d="M 919 445 L 431 445" stroke-miterlimit="10" stroke-dasharray="3"/></g><g transform="translate(-150,-6) scale(1,1)"><path fill="none" stroke="#000000" d="M 441.16267485762415 440.790482243984 L 431 445 L 441.16267485762415 449.209517756016" stroke-miterlimit="10"/></g><g transform="translate(-150,-6) scale(1,1)"><g><path fill="none" stroke="none"/><text fill="#000000" stroke="none" font-family="Arial" font-size="13px" font-style="normal" font-weight="normal" text-decoration="none" x="609" y="462">14 : обновить корзину</text></g></g><g transform="translate(-150,-6) scale(1,1)"><path fill="none" stroke="#000000" d="M 274 512 L 424 512" stroke-miterlimit="10"/></g><g transform="translate(-150,-6) scale(1,1)"><path fill="#000000" stroke="none" d="M 413.83732514237585 516.209517756016 L 424 512 L 413.83732514237585 507.790482243984"/></g><g transform="translate(-150,-6) scale(1,1)"><path fill="none" stroke="#000000" d="M 413.83732514237585 516.209517756016 L 424 512 L 413.83732514237585 507.790482243984 L 413.83732514237585 516.209517756016" stroke-miterlimit="10"/></g><g transform="translate(-150,-6) scale(1,1)"><g><path fill="none" stroke="none"/><text fill="#000000" stroke="none" font-family="Arial" font-size="13px" font-style="normal" font-weight="normal" text-decoration="none" x="277" y="509">15 : нажать "Оформить"</text></g></g><g transform="translate(-150,-6) scale(1,1)"><rect fill="#ffffff" stroke="none" x="424" y="512" width="13" height="28"/></g><g transform="translate(-150,-6) scale(1,1)"><path fill="none" stroke="#000000" d="M 424 512 L 437 512 L 437 540 L 424 540 L 424 512 Z Z" stroke-miterlimit="10"/></g><g transform="translate(-150,-6) scale(1,1)"><path fill="none" stroke="#000000" d="M 437 536 L 1044 536" stroke-miterlimit="10"/></g><g transform="translate(-150,-6) scale(1,1)"><path fill="#000000" stroke="none" d="M 1033.837325142376 540.209517756016 L 1044 536 L 1033.837325142376 531.790482243984"/></g><g transform="translate(-150,-6) scale(1,1)"><path fill="none" stroke="#000000" d="M 1033.837325142376 540.209517756016 L 1044 536 L 1033.837325142376 531.790482243984 L 1033.837325142376 540.209517756016" stroke-miterlimit="10"/></g><g transform="translate(-150,-6) scale(1,1)"><g><path fill="none" stroke="none"/><text fill="#000000" stroke="none" font-family="Arial" font-size="13px" font-style="normal" font-weight="normal" text-decoration="none" x="693" y="533">16 : createOrder</text></g></g><g transform="translate(-150,-6) scale(1,1)"><rect fill="#ffffff" stroke="none" x="1044" y="536" width="13" height="28"/></g><g transform="translate(-150,-6) scale(1,1)"><path fill="none" stroke="#000000" d="M 1044 536 L 1057 536 L 1057 564 L 1044 564 L 1044 536 Z Z" stroke-miterlimit="10"/></g><g transform="translate(-150,-6) scale(1,1)"><path fill="none" stroke="#000000" d="M 1057 553 L 1172 553" stroke-miterlimit="10"/></g><g transform="translate(-150,-6) scale(1,1)"><path fill="#000000" stroke="none" d="M 1161.837325142376 557.209517756016 L 1172 553 L 1161.837325142376 548.790482243984"/></g><g transform="translate(-150,-6) scale(1,1)"><path fill="none" stroke="#000000" d="M 1161.837325142376 557.209517756016 L 1172 553 L 1161.837325142376 548.790482243984 L 1161.837325142376 557.209517756016" stroke-miterlimit="10"/></g><g transform="translate(-150,-6) scale(1,1)"><g><path fill="none" stroke="none"/><text fill="#000000" stroke="none" font-family="Arial" font-size="13px" font-style="normal" font-weight="normal" text-decoration="none" x="1084" y="550">17 : create</text></g></g><g transform="translate(-150,-6) scale(1,1)"><rect fill="#ffffff" stroke="none" x="1172" y="553" width="13" height="28"/></g><g transform="translate(-150,-6) scale(1,1)"><path fill="none" stroke="#000000" d="M 1172 553 L 1185 553 L 1185 581 L 1172 581 L 1172 553 Z Z" stroke-miterlimit="10"/></g><g transform="translate(-150,-6) scale(1,1)"><path fill="none" stroke="#000000" d="M 1185 576 L 1277 576" stroke-miterlimit="10"/></g><g transform="translate(-150,-6) scale(1,1)"><path fill="#000000" stroke="none" d="M 1266.837325142376 580.209517756016 L 1277 576 L 1266.837325142376 571.790482243984"/></g><g transform="translate(-150,-6) scale(1,1)"><path fill="none" stroke="#000000" d="M 1266.837325142376 580.209517756016 L 1277 576 L 1266.837325142376 571.790482243984 L 1266.837325142376 580.209517756016" stroke-miterlimit="10"/></g><g transform="translate(-150,-6) scale(1,1)"><g><path fill="none" stroke="none"/><text fill="#000000" stroke="none" font-family="Arial" font-size="13px" font-style="normal" font-weight="normal" text-decoration="none" x="1169" y="573">18 : saveOrder_to_db</text></g></g><g transform="translate(-150,-6) scale(1,1)"><rect fill="#ffffff" stroke="none" x="1277" y="576" width="13" height="28"/></g><g transform="translate(-150,-6) scale(1,1)"><path fill="none" stroke="#000000" d="M 1277 576 L 1290 576 L 1290 604 L 1277 604 L 1277 576 Z Z" stroke-miterlimit="10"/></g><g transform="translate(-150,-6) scale(1,1)"><path fill="none" stroke="#000000" d="M 431 617 L 274 617" stroke-miterlimit="10" stroke-dasharray="3"/></g><g transform="translate(-150,-6) scale(1,1)"><path fill="none" stroke="#000000" d="M 284.16267485762415 612.790482243984 L 274 617 L 284.16267485762415 621.209517756016" stroke-miterlimit="10"/></g><g transform="translate(-150,-6) scale(1,1)"><g><path fill="none" stroke="none"/><text fill="#000000" stroke="none" font-family="Arial" font-size="13px" font-style="normal" font-weight="normal" text-decoration="none" x="222" y="634">19 : сообщение "Заказ в процессе готовки"</text></g></g></g></svg>