<svg version="1.1" xmlns="http://www.w3.org/2000/svg" xmlns:xlink="http://www.w3.org/1999/xlink" width="1280.1005859375" height="892"><defs/><g><g transform="translate(-86,10) scale(1,1)"><path fill="none" stroke="#000000" d="M 240 0 L 1256 0 L 1256 872 L 240 872 L 240 0" stroke-miterlimit="10"/></g><g transform="translate(-86,10) scale(1,1)"><path fill="#ffffff" stroke="none" d="M 240 0 L 240 22 L 256 22 L 267 11 L 267 0 L 240 0"/></g><g transform="translate(-86,10) scale(1,1)"><path fill="none" stroke="#000000" d="M 240 0 L 240 22 L 256 22 L 267 11 L 267 0 L 240 0 L 240 0" stroke-miterlimit="10"/></g><g transform="translate(-86,10) scale(1,1)"><g><path fill="none" stroke="none"/><text fill="#000000" stroke="none" font-family="Arial" font-size="13px" font-style="normal" font-weight="normal" text-decoration="none" x="251" y="17.5"></text></g></g><g transform="translate(-86,10) scale(1,1)"><g><path fill="none" stroke="none"/><text fill="#000000" stroke="none" font-family="Arial" font-size="13px" font-style="normal" font-weight="bold" text-decoration="none" x="245" y="17.5"></text></g></g><g transform="translate(-86,10) scale(1,1)"><path fill="#ffffff" stroke="none" d="M 138.32365696022728 337.68 C 138.32365696022728 332.886167936 142.20949928517274 329 147.0029296875 329 C 151.79636008982726 329 155.68220241477272 332.886167936 155.68220241477272 337.68 C 155.68220241477272 342.473832064 151.79636008982726 346.36 147.0029296875 346.36 C 142.20949928517274 346.36 138.32365696022728 342.473832064 138.32365696022728 337.68 Z"/></g><g transform="translate(-86,10) scale(1,1)"><path fill="none" stroke="#000000" d="M 138.32365696022728 337.68 C 138.32365696022728 332.886167936 142.20949928517274 329 147.0029296875 329 C 151.79636008982726 329 155.68220241477272 332.886167936 155.68220241477272 337.68 C 155.68220241477272 342.473832064 151.79636008982726 346.36 147.0029296875 346.36 C 142.20949928517274 346.36 138.32365696022728 342.473832064 138.32365696022728 337.68 Z" stroke-miterlimit="10"/></g><g transform="translate(-86,10) scale(1,1)"><path fill="none" stroke="#000000" d="M 147.0029296875 346.36 L 147.0029296875 363.64" stroke-miterlimit="10"/></g><g transform="translate(-86,10) scale(1,1)"><path fill="none" stroke="#000000" d="M 137.81311150568183 352.84 L 156.19274786931817 352.84" stroke-miterlimit="10"/></g><g transform="translate(-86,10) scale(1,1)"><path fill="none" stroke="#000000" d="M 147.0029296875 363.64 L 134.23929332386365 381" stroke-miterlimit="10"/></g><g transform="translate(-86,10) scale(1,1)"><path fill="none" stroke="#000000" d="M 147.0029296875 363.64 L 159.76656605113635 381" stroke-miterlimit="10"/></g><g transform="translate(-86,10) scale(1,1)"><g><path fill="none" stroke="none"/><text fill="#000000" stroke="none" font-family="Arial" font-size="13px" font-style="normal" font-weight="bold" text-decoration="none" x="104.102294921875" y="401.5">Пользователь</text></g></g><g transform="translate(-86,10) scale(1,1)"><path fill="#C0C0C0" stroke="none" d="M 551 40 C 551 30.6111584 586.5933583999999 23 630.5 23 C 674.4066416000001 23 710 30.6111584 710 40 C 710 49.3888416 674.4066416000001 57 630.5 57 C 586.5933583999999 57 551 49.3888416 551 40 Z" opacity="0.2"/></g><g transform="translate(-86,10) scale(1,1)"><path fill="#ffffff" stroke="none" d="M 544 33 C 544 23.6111584 579.5933583999999 16 623.5 16 C 667.4066416000001 16 703 23.6111584 703 33 C 703 42.3888416 667.4066416000001 50 623.5 50 C 579.5933583999999 50 544 42.3888416 544 33 Z"/></g><g transform="translate(-86,10) scale(1,1)"><path fill="none" stroke="#000000" d="M 544 33 C 544 23.6111584 579.5933583999999 16 623.5 16 C 667.4066416000001 16 703 23.6111584 703 33 C 703 42.3888416 667.4066416000001 50 623.5 50 C 579.5933583999999 50 544 42.3888416 544 33 Z" stroke-miterlimit="10"/></g><g transform="translate(-86,10) scale(1,1)"><g><path fill="none" stroke="none"/><text fill="#000000" stroke="none" font-family="Arial" font-size="13px" font-style="normal" font-weight="bold" text-decoration="none" x="575.318115234375" y="40">Просмотр меню</text></g></g><g transform="translate(-86,10) scale(1,1)"><path fill="none" stroke="#000000" d="M 597 51 L 199 331" stroke-miterlimit="10"/></g><g transform="translate(-86,10) scale(1,1)"><path fill="#C0C0C0" stroke="none" d="M 599 368 C 599 358.6111584 641.0852288 351 693 351 C 744.9147712 351 787 358.6111584 787 368 C 787 377.3888416 744.9147712 385 693 385 C 641.0852288 385 599 377.3888416 599 368 Z" opacity="0.2"/></g><g transform="translate(-86,10) scale(1,1)"><path fill="#ffffff" stroke="none" d="M 592 361 C 592 351.6111584 634.0852288 344 686 344 C 737.9147712 344 780 351.6111584 780 361 C 780 370.3888416 737.9147712 378 686 378 C 634.0852288 378 592 370.3888416 592 361 Z"/></g><g transform="translate(-86,10) scale(1,1)"><path fill="none" stroke="#000000" d="M 592 361 C 592 351.6111584 634.0852288 344 686 344 C 737.9147712 344 780 351.6111584 780 361 C 780 370.3888416 737.9147712 378 686 378 C 634.0852288 378 592 370.3888416 592 361 Z" stroke-miterlimit="10"/></g><g transform="translate(-86,10) scale(1,1)"><g><path fill="none" stroke="none"/><text fill="#000000" stroke="none" font-family="Arial" font-size="13px" font-style="normal" font-weight="bold" text-decoration="none" x="629.420166015625" y="368">Просмотр корзины</text></g></g><g transform="translate(-86,10) scale(1,1)"><path fill="none" stroke="#000000" d="M 591 362 L 199 366" stroke-miterlimit="10"/></g><g transform="translate(-86,10) scale(1,1)"><path fill="#C0C0C0" stroke="none" d="M 591 264 C 591 254.6111584 634.8760896 247 689 247 C 743.1239104 247 787 254.6111584 787 264 C 787 273.3888416 743.1239104 281 689 281 C 634.8760896 281 591 273.3888416 591 264 Z" opacity="0.2"/></g><g transform="translate(-86,10) scale(1,1)"><path fill="#ffffff" stroke="none" d="M 584 257 C 584 247.6111584 627.8760896 240 682 240 C 736.1239104 240 780 247.6111584 780 257 C 780 266.3888416 736.1239104 274 682 274 C 627.8760896 274 584 266.3888416 584 257 Z"/></g><g transform="translate(-86,10) scale(1,1)"><path fill="none" stroke="#000000" d="M 584 257 C 584 247.6111584 627.8760896 240 682 240 C 736.1239104 240 780 247.6111584 780 257 C 780 266.3888416 736.1239104 274 682 274 C 627.8760896 274 584 266.3888416 584 257 Z" stroke-miterlimit="10"/></g><g transform="translate(-86,10) scale(1,1)"><g><path fill="none" stroke="none"/><text fill="#000000" stroke="none" font-family="Arial" font-size="13px" font-style="normal" font-weight="bold" text-decoration="none" x="622.608154296875" y="264">Добавить в корзину</text></g></g><g transform="translate(-86,10) scale(1,1)"><path fill="none" stroke="#000000" d="M 594 275 L 199 356" stroke-miterlimit="10"/></g><g transform="translate(-86,10) scale(1,1)"><path fill="#C0C0C0" stroke="none" d="M 327 472 C 327 462.6111584 371.0999472 455 425.5 455 C 479.9000528 455 524 462.6111584 524 472 C 524 481.3888416 479.9000528 489 425.5 489 C 371.0999472 489 327 481.3888416 327 472 Z" opacity="0.2"/></g><g transform="translate(-86,10) scale(1,1)"><path fill="#ffffff" stroke="none" d="M 320 465 C 320 455.6111584 364.0999472 448 418.5 448 C 472.9000528 448 517 455.6111584 517 465 C 517 474.3888416 472.9000528 482 418.5 482 C 364.0999472 482 320 474.3888416 320 465 Z"/></g><g transform="translate(-86,10) scale(1,1)"><path fill="none" stroke="#000000" d="M 320 465 C 320 455.6111584 364.0999472 448 418.5 448 C 472.9000528 448 517 455.6111584 517 465 C 517 474.3888416 472.9000528 482 418.5 482 C 364.0999472 482 320 474.3888416 320 465 Z" stroke-miterlimit="10"/></g><g transform="translate(-86,10) scale(1,1)"><g><path fill="none" stroke="none"/><text fill="#000000" stroke="none" font-family="Arial" font-size="13px" font-style="normal" font-weight="bold" text-decoration="none" x="357.971923828125" y="472">Изменение корзины</text></g></g><g transform="translate(-86,10) scale(1,1)"><path fill="none" stroke="#000000" d="M 368 447 L 199 386" stroke-miterlimit="10"/></g><g transform="translate(-86,10) scale(1,1)"><path fill="#C0C0C0" stroke="none" d="M 567 496 C 567 486.6111584 628.7846976 479 705 479 C 781.2153024 479 843 486.6111584 843 496 C 843 505.3888416 781.2153024 513 705 513 C 628.7846976 513 567 505.3888416 567 496 Z" opacity="0.2"/></g><g transform="translate(-86,10) scale(1,1)"><path fill="#ffffff" stroke="none" d="M 560 489 C 560 479.6111584 621.7846976 472 698 472 C 774.2153024 472 836 479.6111584 836 489 C 836 498.3888416 774.2153024 506 698 506 C 621.7846976 506 560 498.3888416 560 489 Z"/></g><g transform="translate(-86,10) scale(1,1)"><path fill="none" stroke="#000000" d="M 560 489 C 560 479.6111584 621.7846976 472 698 472 C 774.2153024 472 836 479.6111584 836 489 C 836 498.3888416 774.2153024 506 698 506 C 621.7846976 506 560 498.3888416 560 489 Z" stroke-miterlimit="10"/></g><g transform="translate(-86,10) scale(1,1)"><g><path fill="none" stroke="none"/><text fill="#000000" stroke="none" font-family="Arial" font-size="13px" font-style="normal" font-weight="bold" text-decoration="none" x="611.446533203125" y="496">Удаление блюда из корзины</text></g></g><g transform="translate(-86,10) scale(1,1)"><path fill="none" stroke="#000000" d="M 559 477 L 518 474" stroke-miterlimit="10" stroke-dasharray="3"/></g><g transform="translate(-86,10) scale(1,1)"><path fill="none" stroke="#000000" d="M 528.4427706026339 470.5433336665559 L 518 474 L 527.8283861121755 478.93992170282036" stroke-miterlimit="10"/></g><g transform="translate(-86,10) scale(1,1)"><g><path fill="none" stroke="none"/><text fill="#000000" stroke="none" font-family="Arial" font-size="13px" font-style="normal" font-weight="normal" text-decoration="none" x="519" y="471">«extend»</text></g></g><g transform="translate(-86,10) scale(1,1)"><path fill="#C0C0C0" stroke="none" d="M 583 576 C 583 566.6111584 632.9202448 559 694.5 559 C 756.0797552 559 806 566.6111584 806 576 C 806 585.3888416 756.0797552 593 694.5 593 C 632.9202448 593 583 585.3888416 583 576 Z" opacity="0.2"/></g><g transform="translate(-86,10) scale(1,1)"><path fill="#ffffff" stroke="none" d="M 576 569 C 576 559.6111584 625.9202448 552 687.5 552 C 749.0797552 552 799 559.6111584 799 569 C 799 578.3888416 749.0797552 586 687.5 586 C 625.9202448 586 576 578.3888416 576 569 Z"/></g><g transform="translate(-86,10) scale(1,1)"><path fill="none" stroke="#000000" d="M 576 569 C 576 559.6111584 625.9202448 552 687.5 552 C 749.0797552 552 799 559.6111584 799 569 C 799 578.3888416 749.0797552 586 687.5 586 C 625.9202448 586 576 578.3888416 576 569 Z" stroke-miterlimit="10"/></g><g transform="translate(-86,10) scale(1,1)"><g><path fill="none" stroke="none"/><text fill="#000000" stroke="none" font-family="Arial" font-size="13px" font-style="normal" font-weight="bold" text-decoration="none" x="617.7392578125" y="576">Изменение количества</text></g></g><g transform="translate(-86,10) scale(1,1)"><path fill="none" stroke="#000000" d="M 640 551 L 465 483" stroke-miterlimit="10" stroke-dasharray="3"/></g><g transform="translate(-86,10) scale(1,1)"><path fill="none" stroke="#000000" d="M 475.9973178445003 482.7571003766246 L 465 483 L 472.9480339935464 490.6045220518736" stroke-miterlimit="10"/></g><g transform="translate(-86,10) scale(1,1)"><g><path fill="none" stroke="none"/><text fill="#000000" stroke="none" font-family="Arial" font-size="13px" font-style="normal" font-weight="normal" text-decoration="none" x="503" y="530">«extend»</text></g></g><g transform="translate(-86,10) scale(1,1)"><path fill="#C0C0C0" stroke="none" d="M 255 600 C 255 590.6111584 299.0999472 583 353.5 583 C 407.9000528 583 452 590.6111584 452 600 C 452 609.3888416 407.9000528 617 353.5 617 C 299.0999472 617 255 609.3888416 255 600 Z" opacity="0.2"/></g><g transform="translate(-86,10) scale(1,1)"><path fill="#ffffff" stroke="none" d="M 248 593 C 248 583.6111584 292.0999472 576 346.5 576 C 400.9000528 576 445 583.6111584 445 593 C 445 602.3888416 400.9000528 610 346.5 610 C 292.0999472 610 248 602.3888416 248 593 Z"/></g><g transform="translate(-86,10) scale(1,1)"><path fill="none" stroke="#000000" d="M 248 593 C 248 583.6111584 292.0999472 576 346.5 576 C 400.9000528 576 445 583.6111584 445 593 C 445 602.3888416 400.9000528 610 346.5 610 C 292.0999472 610 248 602.3888416 248 593 Z" stroke-miterlimit="10"/></g><g transform="translate(-86,10) scale(1,1)"><g><path fill="none" stroke="none"/><text fill="#000000" stroke="none" font-family="Arial" font-size="13px" font-style="normal" font-weight="bold" text-decoration="none" x="284.69921875" y="600">Оформление заказа</text></g></g><g transform="translate(-86,10) scale(1,1)"><path fill="none" stroke="#000000" d="M 183 408 L 330 575" stroke-miterlimit="10"/></g><g transform="translate(-86,10) scale(1,1)"><path fill="#C0C0C0" stroke="none" d="M 447 672 C 447 662.6111584 478.7877792 655 518 655 C 557.2122208 655 589 662.6111584 589 672 C 589 681.3888416 557.2122208 689 518 689 C 478.7877792 689 447 681.3888416 447 672 Z" opacity="0.2"/></g><g transform="translate(-86,10) scale(1,1)"><path fill="#ffffff" stroke="none" d="M 440 665 C 440 655.6111584 471.7877792 648 511 648 C 550.2122208 648 582 655.6111584 582 665 C 582 674.3888416 550.2122208 682 511 682 C 471.7877792 682 440 674.3888416 440 665 Z"/></g><g transform="translate(-86,10) scale(1,1)"><path fill="none" stroke="#000000" d="M 440 665 C 440 655.6111584 471.7877792 648 511 648 C 550.2122208 648 582 655.6111584 582 665 C 582 674.3888416 550.2122208 682 511 682 C 471.7877792 682 440 674.3888416 440 665 Z" stroke-miterlimit="10"/></g><g transform="translate(-86,10) scale(1,1)"><g><path fill="none" stroke="none"/><text fill="#000000" stroke="none" font-family="Arial" font-size="13px" font-style="normal" font-weight="bold" text-decoration="none" x="466.969482421875" y="672">Оплата заказа</text></g></g><g transform="translate(-86,10) scale(1,1)"><path fill="none" stroke="#000000" d="M 387 611 L 470 647" stroke-miterlimit="10" stroke-dasharray="3"/></g><g transform="translate(-86,10) scale(1,1)"><path fill="none" stroke="#000000" d="M 459.001505849345 646.8179933572418 L 470 647 L 462.3515883345466 639.0941920719159" stroke-miterlimit="10"/></g><g transform="translate(-86,10) scale(1,1)"><g><path fill="none" stroke="none"/><text fill="#000000" stroke="none" font-family="Arial" font-size="13px" font-style="normal" font-weight="normal" text-decoration="none" x="444" y="626">«include»</text></g></g><g transform="translate(-86,10) scale(1,1)"><path fill="#ffffff" stroke="none" d="M 1321.3710202414773 361.68 C 1321.3710202414773 356.886167936 1325.2568625664228 353 1330.05029296875 353 C 1334.8437233710772 353 1338.7295656960227 356.886167936 1338.7295656960227 361.68 C 1338.7295656960227 366.473832064 1334.8437233710772 370.36 1330.05029296875 370.36 C 1325.2568625664228 370.36 1321.3710202414773 366.473832064 1321.3710202414773 361.68 Z"/></g><g transform="translate(-86,10) scale(1,1)"><path fill="none" stroke="#000000" d="M 1321.3710202414773 361.68 C 1321.3710202414773 356.886167936 1325.2568625664228 353 1330.05029296875 353 C 1334.8437233710772 353 1338.7295656960227 356.886167936 1338.7295656960227 361.68 C 1338.7295656960227 366.473832064 1334.8437233710772 370.36 1330.05029296875 370.36 C 1325.2568625664228 370.36 1321.3710202414773 366.473832064 1321.3710202414773 361.68 Z" stroke-miterlimit="10"/></g><g transform="translate(-86,10) scale(1,1)"><path fill="none" stroke="#000000" d="M 1330.05029296875 370.36 L 1330.05029296875 387.64" stroke-miterlimit="10"/></g><g transform="translate(-86,10) scale(1,1)"><path fill="none" stroke="#000000" d="M 1320.8604747869317 376.84 L 1339.2401111505683 376.84" stroke-miterlimit="10"/></g><g transform="translate(-86,10) scale(1,1)"><path fill="none" stroke="#000000" d="M 1330.05029296875 387.64 L 1317.2866566051136 405" stroke-miterlimit="10"/></g><g transform="translate(-86,10) scale(1,1)"><path fill="none" stroke="#000000" d="M 1330.05029296875 387.64 L 1342.8139293323864 405" stroke-miterlimit="10"/></g><g transform="translate(-86,10) scale(1,1)"><g><path fill="none" stroke="none"/><text fill="#000000" stroke="none" font-family="Arial" font-size="13px" font-style="normal" font-weight="bold" text-decoration="none" x="1310.23291015625" y="425.5">Админ</text></g></g><g transform="translate(-86,10) scale(1,1)"><path fill="none" stroke="#000000" d="M 1303 377 L 659 51" stroke-miterlimit="10"/></g><g transform="translate(-86,10) scale(1,1)"><path fill="#C0C0C0" stroke="none" d="M 879 472 C 879 462.6111584 919.294368 455 969 455 C 1018.705632 455 1059 462.6111584 1059 472 C 1059 481.3888416 1018.705632 489 969 489 C 919.294368 489 879 481.3888416 879 472 Z" opacity="0.2"/></g><g transform="translate(-86,10) scale(1,1)"><path fill="#ffffff" stroke="none" d="M 872 465 C 872 455.6111584 912.294368 448 962 448 C 1011.705632 448 1052 455.6111584 1052 465 C 1052 474.3888416 1011.705632 482 962 482 C 912.294368 482 872 474.3888416 872 465 Z"/></g><g transform="translate(-86,10) scale(1,1)"><path fill="none" stroke="#000000" d="M 872 465 C 872 455.6111584 912.294368 448 962 448 C 1011.705632 448 1052 455.6111584 1052 465 C 1052 474.3888416 1011.705632 482 962 482 C 912.294368 482 872 474.3888416 872 465 Z" stroke-miterlimit="10"/></g><g transform="translate(-86,10) scale(1,1)"><g><path fill="none" stroke="none"/><text fill="#000000" stroke="none" font-family="Arial" font-size="13px" font-style="normal" font-weight="bold" text-decoration="none" x="907.7783203125" y="472">Добавить продукт</text></g></g><g transform="translate(-86,10) scale(1,1)"><path fill="#C0C0C0" stroke="none" d="M 919 552 C 919 542.6111584 956.6080768 535 1003 535 C 1049.3919232 535 1087 542.6111584 1087 552 C 1087 561.3888416 1049.3919232 569 1003 569 C 956.6080768 569 919 561.3888416 919 552 Z" opacity="0.2"/></g><g transform="translate(-86,10) scale(1,1)"><path fill="#ffffff" stroke="none" d="M 912 545 C 912 535.6111584 949.6080768 528 996 528 C 1042.3919232 528 1080 535.6111584 1080 545 C 1080 554.3888416 1042.3919232 562 996 562 C 949.6080768 562 912 554.3888416 912 545 Z"/></g><g transform="translate(-86,10) scale(1,1)"><path fill="none" stroke="#000000" d="M 912 545 C 912 535.6111584 949.6080768 528 996 528 C 1042.3919232 528 1080 535.6111584 1080 545 C 1080 554.3888416 1042.3919232 562 996 562 C 949.6080768 562 912 554.3888416 912 545 Z" stroke-miterlimit="10"/></g><g transform="translate(-86,10) scale(1,1)"><g><path fill="none" stroke="none"/><text fill="#000000" stroke="none" font-family="Arial" font-size="13px" font-style="normal" font-weight="bold" text-decoration="none" x="945.2568359375" y="552">Удалить продукт</text></g></g><g transform="translate(-86,10) scale(1,1)"><path fill="#C0C0C0" stroke="none" d="M 935 624 C 935 614.6111584 975.294368 607 1025 607 C 1074.705632 607 1115 614.6111584 1115 624 C 1115 633.3888416 1074.705632 641 1025 641 C 975.294368 641 935 633.3888416 935 624 Z" opacity="0.2"/></g><g transform="translate(-86,10) scale(1,1)"><path fill="#ffffff" stroke="none" d="M 928 617 C 928 607.6111584 968.294368 600 1018 600 C 1067.705632 600 1108 607.6111584 1108 617 C 1108 626.3888416 1067.705632 634 1018 634 C 968.294368 634 928 626.3888416 928 617 Z"/></g><g transform="translate(-86,10) scale(1,1)"><path fill="none" stroke="#000000" d="M 928 617 C 928 607.6111584 968.294368 600 1018 600 C 1067.705632 600 1108 607.6111584 1108 617 C 1108 626.3888416 1067.705632 634 1018 634 C 968.294368 634 928 626.3888416 928 617 Z" stroke-miterlimit="10"/></g><g transform="translate(-86,10) scale(1,1)"><g><path fill="none" stroke="none"/><text fill="#000000" stroke="none" font-family="Arial" font-size="13px" font-style="normal" font-weight="bold" text-decoration="none" x="963.260986328125" y="624">Изменить продукт</text></g></g><g transform="translate(-86,10) scale(1,1)"><path fill="none" stroke="#000000" d="M 1303 396 L 1052 447" stroke-miterlimit="10"/></g><g transform="translate(-86,10) scale(1,1)"><path fill="none" stroke="#000000" d="M 1303 403 L 1035 527" stroke-miterlimit="10"/></g><g transform="translate(-86,10) scale(1,1)"><path fill="none" stroke="#000000" d="M 1303 411 L 1043 599" stroke-miterlimit="10"/></g><g transform="translate(-86,10) scale(1,1)"><path fill="#C0C0C0" stroke="none" d="M 623 440 C 623 430.6111584 660.3842192 423 706.5 423 C 752.6157808 423 790 430.6111584 790 440 C 790 449.3888416 752.6157808 457 706.5 457 C 660.3842192 457 623 449.3888416 623 440 Z" opacity="0.2"/></g><g transform="translate(-86,10) scale(1,1)"><path fill="#ffffff" stroke="none" d="M 616 433 C 616 423.6111584 653.3842192 416 699.5 416 C 745.6157808 416 783 423.6111584 783 433 C 783 442.3888416 745.6157808 450 699.5 450 C 653.3842192 450 616 442.3888416 616 433 Z"/></g><g transform="translate(-86,10) scale(1,1)"><path fill="none" stroke="#000000" d="M 616 433 C 616 423.6111584 653.3842192 416 699.5 416 C 745.6157808 416 783 423.6111584 783 433 C 783 442.3888416 745.6157808 450 699.5 450 C 653.3842192 450 616 442.3888416 616 433 Z" stroke-miterlimit="10"/></g><g transform="translate(-86,10) scale(1,1)"><g><path fill="none" stroke="none"/><text fill="#000000" stroke="none" font-family="Arial" font-size="13px" font-style="normal" font-weight="bold" text-decoration="none" x="648.21728515625" y="440">Просмотр заказа</text></g></g><g transform="translate(-86,10) scale(1,1)"><path fill="none" stroke="#000000" d="M 199 373 L 615 423" stroke-miterlimit="10"/></g><g transform="translate(-86,10) scale(1,1)"><path fill="none" stroke="#000000" d="M 1303 393 L 784 427" stroke-miterlimit="10"/></g><g transform="translate(-86,10) scale(1,1)"><path fill="none" stroke="#000000" d="M 1303 390 L 781 365" stroke-miterlimit="10"/></g><g transform="translate(-86,10) scale(1,1)"><path fill="#C0C0C0" stroke="none" d="M 407 48 C 407 38.6111584 429.6096176 31 457.5 31 C 485.3903824 31 508 38.6111584 508 48 C 508 57.3888416 485.3903824 65 457.5 65 C 429.6096176 65 407 57.3888416 407 48 Z" opacity="0.2"/></g><g transform="translate(-86,10) scale(1,1)"><path fill="#ffffff" stroke="none" d="M 400 41 C 400 31.6111584 422.6096176 24 450.5 24 C 478.3903824 24 501 31.6111584 501 41 C 501 50.3888416 478.3903824 58 450.5 58 C 422.6096176 58 400 50.3888416 400 41 Z"/></g><g transform="translate(-86,10) scale(1,1)"><path fill="none" stroke="#000000" d="M 400 41 C 400 31.6111584 422.6096176 24 450.5 24 C 478.3903824 24 501 31.6111584 501 41 C 501 50.3888416 478.3903824 58 450.5 58 C 422.6096176 58 400 50.3888416 400 41 Z" stroke-miterlimit="10"/></g><g transform="translate(-86,10) scale(1,1)"><g><path fill="none" stroke="none"/><text fill="#000000" stroke="none" font-family="Arial" font-size="13px" font-style="normal" font-weight="bold" text-decoration="none" x="424.35400390625" y="48">Десерты</text></g></g><g transform="translate(-86,10) scale(1,1)"><path fill="#C0C0C0" stroke="none" d="M 831 64 C 831 54.6111584 853.6096176 47 881.5 47 C 909.3903824 47 932 54.6111584 932 64 C 932 73.3888416 909.3903824 81 881.5 81 C 853.6096176 81 831 73.3888416 831 64 Z" opacity="0.2"/></g><g transform="translate(-86,10) scale(1,1)"><path fill="#ffffff" stroke="none" d="M 824 57 C 824 47.6111584 846.6096176 40 874.5 40 C 902.3903824 40 925 47.6111584 925 57 C 925 66.3888416 902.3903824 74 874.5 74 C 846.6096176 74 824 66.3888416 824 57 Z"/></g><g transform="translate(-86,10) scale(1,1)"><path fill="none" stroke="#000000" d="M 824 57 C 824 47.6111584 846.6096176 40 874.5 40 C 902.3903824 40 925 47.6111584 925 57 C 925 66.3888416 902.3903824 74 874.5 74 C 846.6096176 74 824 66.3888416 824 57 Z" stroke-miterlimit="10"/></g><g transform="translate(-86,10) scale(1,1)"><g><path fill="none" stroke="none"/><text fill="#000000" stroke="none" font-family="Arial" font-size="13px" font-style="normal" font-weight="bold" text-decoration="none" x="849.588623046875" y="64">Напитки</text></g></g><g transform="translate(-86,10) scale(1,1)"><path fill="none" stroke="#000000" d="M 502 39 L 543 37" stroke-miterlimit="10" stroke-dasharray="3"/></g><g transform="translate(-86,10) scale(1,1)"><path fill="none" stroke="#000000" d="M 533.0544932867136 41.69966979861084 L 543 37 L 532.6442963767635 33.290633144634185" stroke-miterlimit="10"/></g><g transform="translate(-86,10) scale(1,1)"><path fill="none" stroke="#000000" d="M 823 52 L 704 41" stroke-miterlimit="10" stroke-dasharray="3"/></g><g transform="translate(-86,10) scale(1,1)"><path fill="none" stroke="#000000" d="M 714.5069964155325 37.74377114993649 L 704 41 L 713.732069916301 46.12706691435064" stroke-miterlimit="10"/></g><g transform="translate(-86,10) scale(1,1)"><path fill="#C0C0C0" stroke="none" d="M 1007 40 C 1007 30.6111584 1048.6375136 23 1100 23 C 1151.3624864 23 1193 30.6111584 1193 40 C 1193 49.3888416 1151.3624864 57 1100 57 C 1048.6375136 57 1007 49.3888416 1007 40 Z" opacity="0.2"/></g><g transform="translate(-86,10) scale(1,1)"><path fill="#ffffff" stroke="none" d="M 1000 33 C 1000 23.6111584 1041.6375136 16 1093 16 C 1144.3624864 16 1186 23.6111584 1186 33 C 1186 42.3888416 1144.3624864 50 1093 50 C 1041.6375136 50 1000 42.3888416 1000 33 Z"/></g><g transform="translate(-86,10) scale(1,1)"><path fill="none" stroke="#000000" d="M 1000 33 C 1000 23.6111584 1041.6375136 16 1093 16 C 1144.3624864 16 1186 23.6111584 1186 33 C 1186 42.3888416 1144.3624864 50 1093 50 C 1041.6375136 50 1000 42.3888416 1000 33 Z" stroke-miterlimit="10"/></g><g transform="translate(-86,10) scale(1,1)"><g><path fill="none" stroke="none"/><text fill="#000000" stroke="none" font-family="Arial" font-size="13px" font-style="normal" font-weight="bold" text-decoration="none" x="1036.35986328125" y="40">Холодные напитки</text></g></g><g transform="translate(-86,10) scale(1,1)"><path fill="#C0C0C0" stroke="none" d="M 1047 112 C 1047 102.6111584 1084.3842192 95 1130.5 95 C 1176.6157808 95 1214 102.6111584 1214 112 C 1214 121.3888416 1176.6157808 129 1130.5 129 C 1084.3842192 129 1047 121.3888416 1047 112 Z" opacity="0.2"/></g><g transform="translate(-86,10) scale(1,1)"><path fill="#ffffff" stroke="none" d="M 1040 105 C 1040 95.6111584 1077.3842192 88 1123.5 88 C 1169.6157808 88 1207 95.6111584 1207 105 C 1207 114.3888416 1169.6157808 122 1123.5 122 C 1077.3842192 122 1040 114.3888416 1040 105 Z"/></g><g transform="translate(-86,10) scale(1,1)"><path fill="none" stroke="#000000" d="M 1040 105 C 1040 95.6111584 1077.3842192 88 1123.5 88 C 1169.6157808 88 1207 95.6111584 1207 105 C 1207 114.3888416 1169.6157808 122 1123.5 122 C 1077.3842192 122 1040 114.3888416 1040 105 Z" stroke-miterlimit="10"/></g><g transform="translate(-86,10) scale(1,1)"><g><path fill="none" stroke="none"/><text fill="#000000" stroke="none" font-family="Arial" font-size="13px" font-style="normal" font-weight="bold" text-decoration="none" x="1072.9853515625" y="112">Горячие напитки</text></g></g><g transform="translate(-86,10) scale(1,1)"><path fill="none" stroke="#000000" d="M 926 51 L 999 43" stroke-miterlimit="10"/></g><g transform="translate(-86,10) scale(1,1)"><path fill="none" stroke="#000000" d="M 989.3563781076418 48.29155523426054 L 999 43 L 988.4392349755457 39.92262415388329" stroke-miterlimit="10"/></g><g transform="translate(-86,10) scale(1,1)"><path fill="none" stroke="#000000" d="M 926 67 L 1039 89" stroke-miterlimit="10"/></g><g transform="translate(-86,10) scale(1,1)"><path fill="none" stroke="#000000" d="M 1028.2201737673654 91.18982793712242 L 1039 89 L 1029.8290695869205 82.92595395486242" stroke-miterlimit="10"/></g><g transform="translate(-86,10) scale(1,1)"><path fill="#C0C0C0" stroke="none" d="M 575 88 C 575 78.6111584 604.3253456 71 640.5 71 C 676.6746544 71 706 78.6111584 706 88 C 706 97.3888416 676.6746544 105 640.5 105 C 604.3253456 105 575 97.3888416 575 88 Z" opacity="0.2"/></g><g transform="translate(-86,10) scale(1,1)"><path fill="#ffffff" stroke="none" d="M 568 81 C 568 71.6111584 597.3253456 64 633.5 64 C 669.6746544 64 699 71.6111584 699 81 C 699 90.3888416 669.6746544 98 633.5 98 C 597.3253456 98 568 90.3888416 568 81 Z"/></g><g transform="translate(-86,10) scale(1,1)"><path fill="none" stroke="#000000" d="M 568 81 C 568 71.6111584 597.3253456 64 633.5 64 C 669.6746544 64 699 71.6111584 699 81 C 699 90.3888416 669.6746544 98 633.5 98 C 597.3253456 98 568 90.3888416 568 81 Z" stroke-miterlimit="10"/></g><g transform="translate(-86,10) scale(1,1)"><g><path fill="none" stroke="none"/><text fill="#000000" stroke="none" font-family="Arial" font-size="13px" font-style="normal" font-weight="bold" text-decoration="none" x="595.185546875" y="88">Выбор меню</text></g></g><g transform="translate(-86,10) scale(1,1)"><path fill="none" stroke="#000000" d="M 199 336 L 602 99" stroke-miterlimit="10"/></g><g transform="translate(-86,10) scale(1,1)"><path fill="#C0C0C0" stroke="none" d="M 631 312 C 631 302.6111584 653.6096176 295 681.5 295 C 709.3903824 295 732 302.6111584 732 312 C 732 321.3888416 709.3903824 329 681.5 329 C 653.6096176 329 631 321.3888416 631 312 Z" opacity="0.2"/></g><g transform="translate(-86,10) scale(1,1)"><path fill="#ffffff" stroke="none" d="M 624 305 C 624 295.6111584 646.6096176 288 674.5 288 C 702.3903824 288 725 295.6111584 725 305 C 725 314.3888416 702.3903824 322 674.5 322 C 646.6096176 322 624 314.3888416 624 305 Z"/></g><g transform="translate(-86,10) scale(1,1)"><path fill="none" stroke="#000000" d="M 624 305 C 624 295.6111584 646.6096176 288 674.5 288 C 702.3903824 288 725 295.6111584 725 305 C 725 314.3888416 702.3903824 322 674.5 322 C 646.6096176 322 624 314.3888416 624 305 Z" stroke-miterlimit="10"/></g><g transform="translate(-86,10) scale(1,1)"><g><path fill="none" stroke="none"/><text fill="#000000" stroke="none" font-family="Arial" font-size="13px" font-style="normal" font-weight="bold" text-decoration="none" x="649.66796875" y="312">Корзина</text></g></g><g transform="translate(-86,10) scale(1,1)"><path fill="#C0C0C0" stroke="none" d="M 791 304 C 791 294.6111584 826.5933583999999 287 870.5 287 C 914.4066416000001 287 950 294.6111584 950 304 C 950 313.3888416 914.4066416000001 321 870.5 321 C 826.5933583999999 321 791 313.3888416 791 304 Z" opacity="0.2"/></g><g transform="translate(-86,10) scale(1,1)"><path fill="#ffffff" stroke="none" d="M 784 297 C 784 287.6111584 819.5933583999999 280 863.5 280 C 907.4066416000001 280 943 287.6111584 943 297 C 943 306.3888416 907.4066416000001 314 863.5 314 C 819.5933583999999 314 784 306.3888416 784 297 Z"/></g><g transform="translate(-86,10) scale(1,1)"><path fill="none" stroke="#000000" d="M 784 297 C 784 287.6111584 819.5933583999999 280 863.5 280 C 907.4066416000001 280 943 287.6111584 943 297 C 943 306.3888416 907.4066416000001 314 863.5 314 C 819.5933583999999 314 784 306.3888416 784 297 Z" stroke-miterlimit="10"/></g><g transform="translate(-86,10) scale(1,1)"><g><path fill="none" stroke="none"/><text fill="#000000" stroke="none" font-family="Arial" font-size="13px" font-style="normal" font-weight="bold" text-decoration="none" x="816.492431640625" y="304">Форма корзины</text></g></g><g transform="translate(-86,10) scale(1,1)"><path fill="#C0C0C0" stroke="none" d="M 823 352 C 823 342.6111584 845.6096176 335 873.5 335 C 901.3903824 335 924 342.6111584 924 352 C 924 361.3888416 901.3903824 369 873.5 369 C 845.6096176 369 823 361.3888416 823 352 Z" opacity="0.2"/></g><g transform="translate(-86,10) scale(1,1)"><path fill="#ffffff" stroke="none" d="M 816 345 C 816 335.6111584 838.6096176 328 866.5 328 C 894.3903824 328 917 335.6111584 917 345 C 917 354.3888416 894.3903824 362 866.5 362 C 838.6096176 362 816 354.3888416 816 345 Z"/></g><g transform="translate(-86,10) scale(1,1)"><path fill="none" stroke="#000000" d="M 816 345 C 816 335.6111584 838.6096176 328 866.5 328 C 894.3903824 328 917 335.6111584 917 345 C 917 354.3888416 894.3903824 362 866.5 362 C 838.6096176 362 816 354.3888416 816 345 Z" stroke-miterlimit="10"/></g><g transform="translate(-86,10) scale(1,1)"><g><path fill="none" stroke="none"/><text fill="#000000" stroke="none" font-family="Arial" font-size="13px" font-style="normal" font-weight="bold" text-decoration="none" x="839.773193359375" y="352">cartItems</text></g></g><g transform="translate(-86,10) scale(1,1)"><path fill="none" stroke="#000000" d="M 864 315 L 865 327" stroke-miterlimit="10" stroke-dasharray="3"/></g><g transform="translate(-86,10) scale(1,1)"><path fill="none" stroke="#000000" d="M 859.9610587258368 317.22201090021395 L 865 327 L 868.3510128538653 316.52284805621156" stroke-miterlimit="10"/></g><g transform="translate(-86,10) scale(1,1)"><g><path fill="none" stroke="none"/><text fill="#000000" stroke="none" font-family="Arial" font-size="13px" font-style="normal" font-weight="normal" text-decoration="none" x="871" y="320">«include»</text></g></g><g transform="translate(-86,10) scale(1,1)"><path fill="none" stroke="#000000" d="M 783 300 L 726 303" stroke-miterlimit="10"/></g><g transform="translate(-86,10) scale(1,1)"><path fill="none" stroke="#000000" d="M 735.9273809652669 298.2621621840279 L 726 303 L 736.3698756477985 306.66956115212656" stroke-miterlimit="10"/></g><g transform="translate(-86,10) scale(1,1)"><path fill="none" stroke="#000000" d="M 199 361 L 623 311" stroke-miterlimit="10"/></g><g transform="translate(-86,10) scale(1,1)"><path fill="#C0C0C0" stroke="none" d="M 287 680 C 287 670.6111584 317.8923488 663 356 663 C 394.1076512 663 425 670.6111584 425 680 C 425 689.3888416 394.1076512 697 356 697 C 317.8923488 697 287 689.3888416 287 680 Z" opacity="0.2"/></g><g transform="translate(-86,10) scale(1,1)"><path fill="#ffffff" stroke="none" d="M 280 673 C 280 663.6111584 310.8923488 656 349 656 C 387.1076512 656 418 663.6111584 418 673 C 418 682.3888416 387.1076512 690 349 690 C 310.8923488 690 280 682.3888416 280 673 Z"/></g><g transform="translate(-86,10) scale(1,1)"><path fill="none" stroke="#000000" d="M 280 673 C 280 663.6111584 310.8923488 656 349 656 C 387.1076512 656 418 663.6111584 418 673 C 418 682.3888416 387.1076512 690 349 690 C 310.8923488 690 280 682.3888416 280 673 Z" stroke-miterlimit="10"/></g><g transform="translate(-86,10) scale(1,1)"><g><path fill="none" stroke="none"/><text fill="#000000" stroke="none" font-family="Arial" font-size="13px" font-style="normal" font-weight="bold" text-decoration="none" x="307.28955078125" y="680">Форма заказа</text></g></g><g transform="translate(-86,10) scale(1,1)"><path fill="none" stroke="#000000" d="M 348 655 L 347 611" stroke-miterlimit="10"/></g><g transform="translate(-86,10) scale(1,1)"><path fill="none" stroke="#000000" d="M 351.43934126307227 621.0644050569313 L 347 611 L 343.0224792467554 621.2556973754839" stroke-miterlimit="10"/></g><g transform="translate(-86,10) scale(1,1)"><path fill="#C0C0C0" stroke="none" d="M 1023 360 C 1023 350.6111584 1045.6096176 343 1073.5 343 C 1101.3903824 343 1124 350.6111584 1124 360 C 1124 369.3888416 1101.3903824 377 1073.5 377 C 1045.6096176 377 1023 369.3888416 1023 360 Z" opacity="0.2"/></g><g transform="translate(-86,10) scale(1,1)"><path fill="#ffffff" stroke="none" d="M 1016 353 C 1016 343.6111584 1038.6096176 336 1066.5 336 C 1094.3903824 336 1117 343.6111584 1117 353 C 1117 362.3888416 1094.3903824 370 1066.5 370 C 1038.6096176 370 1016 362.3888416 1016 353 Z"/></g><g transform="translate(-86,10) scale(1,1)"><path fill="none" stroke="#000000" d="M 1016 353 C 1016 343.6111584 1038.6096176 336 1066.5 336 C 1094.3903824 336 1117 343.6111584 1117 353 C 1117 362.3888416 1094.3903824 370 1066.5 370 C 1038.6096176 370 1016 362.3888416 1016 353 Z" stroke-miterlimit="10"/></g><g transform="translate(-86,10) scale(1,1)"><g><path fill="none" stroke="none"/><text fill="#000000" stroke="none" font-family="Arial" font-size="13px" font-style="normal" font-weight="bold" text-decoration="none" x="1043.734130859375" y="360">quantity</text></g></g><g transform="translate(-86,10) scale(1,1)"><path fill="none" stroke="#000000" d="M 918 347 L 1015 351" stroke-miterlimit="10" stroke-dasharray="3"/></g><g transform="translate(-86,10) scale(1,1)"><path fill="none" stroke="#000000" d="M 1004.6725139939834 354.78721966560335 L 1015 351 L 1005.0193959051453 346.37533331992773" stroke-miterlimit="10"/></g><g transform="translate(-86,10) scale(1,1)"><g><path fill="none" stroke="none"/><text fill="#000000" stroke="none" font-family="Arial" font-size="13px" font-style="normal" font-weight="normal" text-decoration="none" x="939" y="337">«include»</text></g></g><g transform="translate(-86,10) scale(1,1)"><path fill="#C0C0C0" stroke="none" d="M 263 792 C 263 782.6111584 285.6096176 775 313.5 775 C 341.3903824 775 364 782.6111584 364 792 C 364 801.3888416 341.3903824 809 313.5 809 C 285.6096176 809 263 801.3888416 263 792 Z" opacity="0.2"/></g><g transform="translate(-86,10) scale(1,1)"><path fill="#ffffff" stroke="none" d="M 256 785 C 256 775.6111584 278.6096176 768 306.5 768 C 334.3903824 768 357 775.6111584 357 785 C 357 794.3888416 334.3903824 802 306.5 802 C 278.6096176 802 256 794.3888416 256 785 Z"/></g><g transform="translate(-86,10) scale(1,1)"><path fill="none" stroke="#000000" d="M 256 785 C 256 775.6111584 278.6096176 768 306.5 768 C 334.3903824 768 357 775.6111584 357 785 C 357 794.3888416 334.3903824 802 306.5 802 C 278.6096176 802 256 794.3888416 256 785 Z" stroke-miterlimit="10"/></g><g transform="translate(-86,10) scale(1,1)"><g><path fill="none" stroke="none"/><text fill="#000000" stroke="none" font-family="Arial" font-size="13px" font-style="normal" font-weight="bold" text-decoration="none" x="290.240478515625" y="792">name</text></g></g><g transform="translate(-86,10) scale(1,1)"><path fill="#C0C0C0" stroke="none" d="M 399 792 C 399 782.6111584 421.6096176 775 449.5 775 C 477.3903824 775 500 782.6111584 500 792 C 500 801.3888416 477.3903824 809 449.5 809 C 421.6096176 809 399 801.3888416 399 792 Z" opacity="0.2"/></g><g transform="translate(-86,10) scale(1,1)"><path fill="#ffffff" stroke="none" d="M 392 785 C 392 775.6111584 414.6096176 768 442.5 768 C 470.3903824 768 493 775.6111584 493 785 C 493 794.3888416 470.3903824 802 442.5 802 C 414.6096176 802 392 794.3888416 392 785 Z"/></g><g transform="translate(-86,10) scale(1,1)"><path fill="none" stroke="#000000" d="M 392 785 C 392 775.6111584 414.6096176 768 442.5 768 C 470.3903824 768 493 775.6111584 493 785 C 493 794.3888416 470.3903824 802 442.5 802 C 414.6096176 802 392 794.3888416 392 785 Z" stroke-miterlimit="10"/></g><g transform="translate(-86,10) scale(1,1)"><g><path fill="none" stroke="none"/><text fill="#000000" stroke="none" font-family="Arial" font-size="13px" font-style="normal" font-weight="bold" text-decoration="none" x="424.425048828125" y="792">phone</text></g></g><g transform="translate(-86,10) scale(1,1)"><path fill="#C0C0C0" stroke="none" d="M 543 768 C 543 758.6111584 568.2959088 751 599.5 751 C 630.7040912 751 656 758.6111584 656 768 C 656 777.3888416 630.7040912 785 599.5 785 C 568.2959088 785 543 777.3888416 543 768 Z" opacity="0.2"/></g><g transform="translate(-86,10) scale(1,1)"><path fill="#ffffff" stroke="none" d="M 536 761 C 536 751.6111584 561.2959088 744 592.5 744 C 623.7040912 744 649 751.6111584 649 761 C 649 770.3888416 623.7040912 778 592.5 778 C 561.2959088 778 536 770.3888416 536 761 Z"/></g><g transform="translate(-86,10) scale(1,1)"><path fill="none" stroke="#000000" d="M 536 761 C 536 751.6111584 561.2959088 744 592.5 744 C 623.7040912 744 649 751.6111584 649 761 C 649 770.3888416 623.7040912 778 592.5 778 C 561.2959088 778 536 770.3888416 536 761 Z" stroke-miterlimit="10"/></g><g transform="translate(-86,10) scale(1,1)"><g><path fill="none" stroke="none"/><text fill="#000000" stroke="none" font-family="Arial" font-size="13px" font-style="normal" font-weight="bold" text-decoration="none" x="559.990478515625" y="768">order items</text></g></g><g transform="translate(-86,10) scale(1,1)"><path fill="none" stroke="#000000" d="M 342 691 L 313 767" stroke-miterlimit="10" stroke-dasharray="3"/></g><g transform="translate(-86,10) scale(1,1)"><path fill="none" stroke="#000000" d="M 312.6901371224374 756.0043651844421 L 313 767 L 320.5559817995694 759.0058059165057" stroke-miterlimit="10"/></g><g transform="translate(-86,10) scale(1,1)"><g><path fill="none" stroke="none"/><text fill="#000000" stroke="none" font-family="Arial" font-size="13px" font-style="normal" font-weight="normal" text-decoration="none" x="328" y="746">«include»</text></g></g><g transform="translate(-86,10) scale(1,1)"><path fill="none" stroke="#000000" d="M 364 691 L 427 767" stroke-miterlimit="10" stroke-dasharray="3"/></g><g transform="translate(-86,10) scale(1,1)"><path fill="none" stroke="#000000" d="M 417.2734672239596 761.862436359848 L 427 767 L 423.75510880535757 756.4894966278997" stroke-miterlimit="10"/></g><g transform="translate(-86,10) scale(1,1)"><g><path fill="none" stroke="none"/><text fill="#000000" stroke="none" font-family="Arial" font-size="13px" font-style="normal" font-weight="normal" text-decoration="none" x="399" y="738">«include»</text></g></g><g transform="translate(-86,10) scale(1,1)"><path fill="none" stroke="#000000" d="M 399 691 L 542 743" stroke-miterlimit="10" stroke-dasharray="3"/></g><g transform="translate(-86,10) scale(1,1)"><path fill="none" stroke="#000000" d="M 531.0106115116947 743.4830534681629 L 542 743 L 533.8877584958122 735.5708992618397" stroke-miterlimit="10"/></g><g transform="translate(-86,10) scale(1,1)"><g><path fill="none" stroke="none"/><text fill="#000000" stroke="none" font-family="Arial" font-size="13px" font-style="normal" font-weight="normal" text-decoration="none" x="482" y="722">«include»</text></g></g><g transform="translate(-86,10) scale(1,1)"><path fill="#C0C0C0" stroke="none" d="M 583 824 C 583 814.6111584 605.6096176 807 633.5 807 C 661.3903824 807 684 814.6111584 684 824 C 684 833.3888416 661.3903824 841 633.5 841 C 605.6096176 841 583 833.3888416 583 824 Z" opacity="0.2"/></g><g transform="translate(-86,10) scale(1,1)"><path fill="#ffffff" stroke="none" d="M 576 817 C 576 807.6111584 598.6096176 800 626.5 800 C 654.3903824 800 677 807.6111584 677 817 C 677 826.3888416 654.3903824 834 626.5 834 C 598.6096176 834 576 826.3888416 576 817 Z"/></g><g transform="translate(-86,10) scale(1,1)"><path fill="none" stroke="#000000" d="M 576 817 C 576 807.6111584 598.6096176 800 626.5 800 C 654.3903824 800 677 807.6111584 677 817 C 677 826.3888416 654.3903824 834 626.5 834 C 598.6096176 834 576 826.3888416 576 817 Z" stroke-miterlimit="10"/></g><g transform="translate(-86,10) scale(1,1)"><g><path fill="none" stroke="none"/><text fill="#000000" stroke="none" font-family="Arial" font-size="13px" font-style="normal" font-weight="bold" text-decoration="none" x="603.734130859375" y="824">quantity</text></g></g><g transform="translate(-86,10) scale(1,1)"><path fill="none" stroke="#000000" d="M 603 779 L 615 799" stroke-miterlimit="10" stroke-dasharray="3"/></g><g transform="translate(-86,10) scale(1,1)"><path fill="none" stroke="#000000" d="M 606.1617152255172 792.4513572211375 L 615 799 L 613.3809786184074 788.1197991854035" stroke-miterlimit="10"/></g><g transform="translate(-86,10) scale(1,1)"><g><path fill="none" stroke="none"/><text fill="#000000" stroke="none" font-family="Arial" font-size="13px" font-style="normal" font-weight="normal" text-decoration="none" x="612" y="788">«include»</text></g></g><g transform="translate(-86,10) scale(1,1)"><path fill="#C0C0C0" stroke="none" d="M 519 144 C 519 134.6111584 556.8319344 127 603.5 127 C 650.1680656 127 688 134.6111584 688 144 C 688 153.3888416 650.1680656 161 603.5 161 C 556.8319344 161 519 153.3888416 519 144 Z" opacity="0.2"/></g><g transform="translate(-86,10) scale(1,1)"><path fill="#ffffff" stroke="none" d="M 512 137 C 512 127.6111584 549.8319344 120 596.5 120 C 643.1680656 120 681 127.6111584 681 137 C 681 146.3888416 643.1680656 154 596.5 154 C 549.8319344 154 512 146.3888416 512 137 Z"/></g><g transform="translate(-86,10) scale(1,1)"><path fill="none" stroke="#000000" d="M 512 137 C 512 127.6111584 549.8319344 120 596.5 120 C 643.1680656 120 681 127.6111584 681 137 C 681 146.3888416 643.1680656 154 596.5 154 C 549.8319344 154 512 146.3888416 512 137 Z" stroke-miterlimit="10"/></g><g transform="translate(-86,10) scale(1,1)"><g><path fill="none" stroke="none"/><text fill="#000000" stroke="none" font-family="Arial" font-size="13px" font-style="normal" font-weight="bold" text-decoration="none" x="545.068115234375" y="144">Просмотр блюда</text></g></g><g transform="translate(-86,10) scale(1,1)"><path fill="none" stroke="#000000" d="M 199 340 L 561 155" stroke-miterlimit="10"/></g><g transform="translate(-86,10) scale(1,1)"><path fill="#C0C0C0" stroke="none" d="M 535 224 C 535 214.6111584 552.908608 207 575 207 C 597.091392 207 615 214.6111584 615 224 C 615 233.3888416 597.091392 241 575 241 C 552.908608 241 535 233.3888416 535 224 Z" opacity="0.2"/></g><g transform="translate(-86,10) scale(1,1)"><path fill="#ffffff" stroke="none" d="M 528 217 C 528 207.6111584 545.908608 200 568 200 C 590.091392 200 608 207.6111584 608 217 C 608 226.3888416 590.091392 234 568 234 C 545.908608 234 528 226.3888416 528 217 Z"/></g><g transform="translate(-86,10) scale(1,1)"><path fill="none" stroke="#000000" d="M 528 217 C 528 207.6111584 545.908608 200 568 200 C 590.091392 200 608 207.6111584 608 217 C 608 226.3888416 590.091392 234 568 234 C 545.908608 234 528 226.3888416 528 217 Z" stroke-miterlimit="10"/></g><g transform="translate(-86,10) scale(1,1)"><g><path fill="none" stroke="none"/><text fill="#000000" stroke="none" font-family="Arial" font-size="13px" font-style="normal" font-weight="bold" text-decoration="none" x="551.740478515625" y="224">name</text></g></g><g transform="translate(-86,10) scale(1,1)"><path fill="#C0C0C0" stroke="none" d="M 631 224 C 631 214.6111584 656.0720512 207 687 207 C 717.9279488 207 743 214.6111584 743 224 C 743 233.3888416 717.9279488 241 687 241 C 656.0720512 241 631 233.3888416 631 224 Z" opacity="0.2"/></g><g transform="translate(-86,10) scale(1,1)"><path fill="#ffffff" stroke="none" d="M 624 217 C 624 207.6111584 649.0720512 200 680 200 C 710.9279488 200 736 207.6111584 736 217 C 736 226.3888416 710.9279488 234 680 234 C 649.0720512 234 624 226.3888416 624 217 Z"/></g><g transform="translate(-86,10) scale(1,1)"><path fill="none" stroke="#000000" d="M 624 217 C 624 207.6111584 649.0720512 200 680 200 C 710.9279488 200 736 207.6111584 736 217 C 736 226.3888416 710.9279488 234 680 234 C 649.0720512 234 624 226.3888416 624 217 Z" stroke-miterlimit="10"/></g><g transform="translate(-86,10) scale(1,1)"><g><path fill="none" stroke="none"/><text fill="#000000" stroke="none" font-family="Arial" font-size="13px" font-style="normal" font-weight="bold" text-decoration="none" x="648.56640625" y="224">description</text></g></g><g transform="translate(-86,10) scale(1,1)"><path fill="#C0C0C0" stroke="none" d="M 759 216 C 759 206.6111584 774.4461744 199 793.5 199 C 812.5538256 199 828 206.6111584 828 216 C 828 225.3888416 812.5538256 233 793.5 233 C 774.4461744 233 759 225.3888416 759 216 Z" opacity="0.2"/></g><g transform="translate(-86,10) scale(1,1)"><path fill="#ffffff" stroke="none" d="M 752 209 C 752 199.6111584 767.4461744 192 786.5 192 C 805.5538256 192 821 199.6111584 821 209 C 821 218.3888416 805.5538256 226 786.5 226 C 767.4461744 226 752 218.3888416 752 209 Z"/></g><g transform="translate(-86,10) scale(1,1)"><path fill="none" stroke="#000000" d="M 752 209 C 752 199.6111584 767.4461744 192 786.5 192 C 805.5538256 192 821 199.6111584 821 209 C 821 218.3888416 805.5538256 226 786.5 226 C 767.4461744 226 752 218.3888416 752 209 Z" stroke-miterlimit="10"/></g><g transform="translate(-86,10) scale(1,1)"><g><path fill="none" stroke="none"/><text fill="#000000" stroke="none" font-family="Arial" font-size="13px" font-style="normal" font-weight="bold" text-decoration="none" x="768.79638671875" y="216">image</text></g></g><g transform="translate(-86,10) scale(1,1)"><path fill="#C0C0C0" stroke="none" d="M 719 144 C 719 134.6111584 735.1177472 127 755 127 C 774.8822528 127 791 134.6111584 791 144 C 791 153.3888416 774.8822528 161 755 161 C 735.1177472 161 719 153.3888416 719 144 Z" opacity="0.2"/></g><g transform="translate(-86,10) scale(1,1)"><path fill="#ffffff" stroke="none" d="M 712 137 C 712 127.6111584 728.1177472 120 748 120 C 767.8822528 120 784 127.6111584 784 137 C 784 146.3888416 767.8822528 154 748 154 C 728.1177472 154 712 146.3888416 712 137 Z"/></g><g transform="translate(-86,10) scale(1,1)"><path fill="none" stroke="#000000" d="M 712 137 C 712 127.6111584 728.1177472 120 748 120 C 767.8822528 120 784 127.6111584 784 137 C 784 146.3888416 767.8822528 154 748 154 C 728.1177472 154 712 146.3888416 712 137 Z" stroke-miterlimit="10"/></g><g transform="translate(-86,10) scale(1,1)"><g><path fill="none" stroke="none"/><text fill="#000000" stroke="none" font-family="Arial" font-size="13px" font-style="normal" font-weight="bold" text-decoration="none" x="733.911376953125" y="144">price</text></g></g><g transform="translate(-86,10) scale(1,1)"><path fill="#C0C0C0" stroke="none" d="M 831 200 C 831 190.6111584 853.6096176 183 881.5 183 C 909.3903824 183 932 190.6111584 932 200 C 932 209.3888416 909.3903824 217 881.5 217 C 853.6096176 217 831 209.3888416 831 200 Z" opacity="0.2"/></g><g transform="translate(-86,10) scale(1,1)"><path fill="#ffffff" stroke="none" d="M 824 193 C 824 183.6111584 846.6096176 176 874.5 176 C 902.3903824 176 925 183.6111584 925 193 C 925 202.3888416 902.3903824 210 874.5 210 C 846.6096176 210 824 202.3888416 824 193 Z"/></g><g transform="translate(-86,10) scale(1,1)"><path fill="none" stroke="#000000" d="M 824 193 C 824 183.6111584 846.6096176 176 874.5 176 C 902.3903824 176 925 183.6111584 925 193 C 925 202.3888416 902.3903824 210 874.5 210 C 846.6096176 210 824 202.3888416 824 193 Z" stroke-miterlimit="10"/></g><g transform="translate(-86,10) scale(1,1)"><g><path fill="none" stroke="none"/><text fill="#000000" stroke="none" font-family="Arial" font-size="13px" font-style="normal" font-weight="bold" text-decoration="none" x="851.734130859375" y="200">quantity</text></g></g><g transform="translate(-86,10) scale(1,1)"><path fill="#C0C0C0" stroke="none" d="M 431 256 C 431 246.6111584 453.6096176 239 481.5 239 C 509.3903824 239 532 246.6111584 532 256 C 532 265.3888416 509.3903824 273 481.5 273 C 453.6096176 273 431 265.3888416 431 256 Z" opacity="0.2"/></g><g transform="translate(-86,10) scale(1,1)"><path fill="#ffffff" stroke="none" d="M 424 249 C 424 239.6111584 446.6096176 232 474.5 232 C 502.3903824 232 525 239.6111584 525 249 C 525 258.3888416 502.3903824 266 474.5 266 C 446.6096176 266 424 258.3888416 424 249 Z"/></g><g transform="translate(-86,10) scale(1,1)"><path fill="none" stroke="#000000" d="M 424 249 C 424 239.6111584 446.6096176 232 474.5 232 C 502.3903824 232 525 239.6111584 525 249 C 525 258.3888416 502.3903824 266 474.5 266 C 446.6096176 266 424 258.3888416 424 249 Z" stroke-miterlimit="10"/></g><g transform="translate(-86,10) scale(1,1)"><g><path fill="none" stroke="none"/><text fill="#000000" stroke="none" font-family="Arial" font-size="13px" font-style="normal" font-weight="bold" text-decoration="none" x="449.569580078125" y="256">category</text></g></g><g transform="translate(-86,10) scale(1,1)"><path fill="none" stroke="#000000" d="M 590 155 L 574 199" stroke-miterlimit="10" stroke-dasharray="3"/></g><g transform="translate(-86,10) scale(1,1)"><path fill="none" stroke="#000000" d="M 573.5169465318371 188.01061151169475 L 574 199 L 581.4291007381603 190.8877584958123" stroke-miterlimit="10"/></g><g transform="translate(-86,10) scale(1,1)"><g><path fill="none" stroke="none"/><text fill="#000000" stroke="none" font-family="Arial" font-size="13px" font-style="normal" font-weight="normal" text-decoration="none" x="583" y="194">«include»</text></g></g><g transform="translate(-86,10) scale(1,1)"><path fill="none" stroke="#000000" d="M 682 137 L 711 137" stroke-miterlimit="10" stroke-dasharray="3"/></g><g transform="translate(-86,10) scale(1,1)"><path fill="none" stroke="#000000" d="M 700.8373251423759 141.209517756016 L 711 137 L 700.8373251423758 132.790482243984" stroke-miterlimit="10"/></g><g transform="translate(-86,10) scale(1,1)"><g><path fill="none" stroke="none"/><text fill="#000000" stroke="none" font-family="Arial" font-size="13px" font-style="normal" font-weight="normal" text-decoration="none" x="670" y="125">«include»</text></g></g><g transform="translate(-86,10) scale(1,1)"><path fill="none" stroke="#000000" d="M 576 155 L 494 231" stroke-miterlimit="10" stroke-dasharray="3"/></g><g transform="translate(-86,10) scale(1,1)"><path fill="none" stroke="#000000" d="M 498.5921322073762 221.00438487185613 L 494 231 L 504.3150950631822 227.17916058469947" stroke-miterlimit="10"/></g><g transform="translate(-86,10) scale(1,1)"><g><path fill="none" stroke="none"/><text fill="#000000" stroke="none" font-family="Arial" font-size="13px" font-style="normal" font-weight="normal" text-decoration="none" x="447" y="212">«include»</text></g></g><g transform="translate(-86,10) scale(1,1)"><path fill="none" stroke="#000000" d="M 615 155 L 661 199" stroke-miterlimit="10" stroke-dasharray="3"/></g><g transform="translate(-86,10) scale(1,1)"><path fill="none" stroke="#000000" d="M 650.7463117657383 195.01730272371063 L 661 199 L 656.5657397688582 188.93335526590343" stroke-miterlimit="10"/></g><g transform="translate(-86,10) scale(1,1)"><g><path fill="none" stroke="none"/><text fill="#000000" stroke="none" font-family="Arial" font-size="13px" font-style="normal" font-weight="normal" text-decoration="none" x="647" y="189">«include»</text></g></g><g transform="translate(-86,10) scale(1,1)"><path fill="none" stroke="#000000" d="M 644 155 L 751 196" stroke-miterlimit="10" stroke-dasharray="3"/></g><g transform="translate(-86,10) scale(1,1)"><path fill="none" stroke="#000000" d="M 740.0039437133394 196.29452697769668 L 751 196 L 743.0163520102216 188.432876056565" stroke-miterlimit="10"/></g><g transform="translate(-86,10) scale(1,1)"><g><path fill="none" stroke="none"/><text fill="#000000" stroke="none" font-family="Arial" font-size="13px" font-style="normal" font-weight="normal" text-decoration="none" x="727" y="189">«include»</text></g></g><g transform="translate(-86,10) scale(1,1)"><path fill="none" stroke="#000000" d="M 682 154 L 823 183" stroke-miterlimit="10" stroke-dasharray="3"/></g><g transform="translate(-86,10) scale(1,1)"><path fill="none" stroke="#000000" d="M 812.1976501893083 185.0758705565257 L 823 183 L 813.8937230487259 176.82944734349553" stroke-miterlimit="10"/></g><g transform="translate(-86,10) scale(1,1)"><g><path fill="none" stroke="none"/><text fill="#000000" stroke="none" font-family="Arial" font-size="13px" font-style="normal" font-weight="normal" text-decoration="none" x="770" y="164">«include»</text></g></g><g transform="translate(-86,10) scale(1,1)"><path fill="#C0C0C0" stroke="none" d="M 839 840 C 839 830.6111584 878.3989376 823 927 823 C 975.6010624 823 1015 830.6111584 1015 840 C 1015 849.3888416 975.6010624 857 927 857 C 878.3989376 857 839 849.3888416 839 840 Z" opacity="0.2"/></g><g transform="translate(-86,10) scale(1,1)"><path fill="#ffffff" stroke="none" d="M 832 833 C 832 823.6111584 871.3989376 816 920 816 C 968.6010624 816 1008 823.6111584 1008 833 C 1008 842.3888416 968.6010624 850 920 850 C 871.3989376 850 832 842.3888416 832 833 Z"/></g><g transform="translate(-86,10) scale(1,1)"><path fill="none" stroke="#000000" d="M 832 833 C 832 823.6111584 871.3989376 816 920 816 C 968.6010624 816 1008 823.6111584 1008 833 C 1008 842.3888416 968.6010624 850 920 850 C 871.3989376 850 832 842.3888416 832 833 Z" stroke-miterlimit="10"/></g><g transform="translate(-86,10) scale(1,1)"><g><path fill="none" stroke="none"/><text fill="#000000" stroke="none" font-family="Arial" font-size="13px" font-style="normal" font-weight="bold" text-decoration="none" x="865.96875" y="840">Посмотреть заказ</text></g></g><g transform="translate(-86,10) scale(1,1)"><path fill="none" stroke="#000000" d="M 1303 420 L 937 815" stroke-miterlimit="10"/></g><g transform="translate(-86,10) scale(1,1)"><path fill="none" stroke="#000000" d="M 199 398 L 890 815" stroke-miterlimit="10"/></g></g></svg>